  0
SECTION
  2
HEADER
  9
$ACADVER
  1
AC1032
  9
$ACADMAINTVER
 90
      251
  9
$DWGCODEPAGE
  3
ANSI_1252
  9
$REQUIREDVERSIONS
160
                 0
  9
$INSBASE
 10
0.0
 20
0.0
 30
0.0
  9
$EXTMIN
 10
1.000000000000000E+20
 20
1.000000000000000E+20
 30
1.000000000000000E+20
  9
$EXTMAX
 10
-1.000000000000000E+20
 20
-1.000000000000000E+20
 30
-1.000000000000000E+20
  9
$LIMMIN
 10
0.0
 20
0.0
  9
$LIMMAX
 10
12.0
 20
9.0
  9
$ORTHOMODE
 70
     0
  9
$REGENMODE
 70
     1
  9
$FILLMODE
 70
     1
  9
$QTEXTMODE
 70
     0
  9
$MIRRTEXT
 70
     0
  9
$LTSCALE
 40
1.0
  9
$ATTMODE
 70
     1
  9
$TEXTSIZE
 40
0.2
  9
$TRACEWID
 40
0.05
  9
$TEXTSTYLE
  7
Standard
  9
$CLAYER
  8
0
  9
$CELTYPE
  6
ByLayer
  9
$CECOLOR
 62
   256
  9
$CELTSCALE
 40
1.0
  9
$DISPSILH
 70
     0
  9
$DIMSCALE
 40
1.0
  9
$DIMASZ
 40
0.18
  9
$DIMEXO
 40
0.0625
  9
$DIMDLI
 40
0.38
  9
$DIMRND
 40
0.0
  9
$DIMDLE
 40
0.0
  9
$DIMEXE
 40
0.18
  9
$DIMTP
 40
0.0
  9
$DIMTM
 40
0.0
  9
$DIMTXT
 40
0.18
  9
$DIMCEN
 40
0.09
  9
$DIMTSZ
 40
0.0
  9
$DIMTOL
 70
     0
  9
$DIMLIM
 70
     0
  9
$DIMTIH
 70
     1
  9
$DIMTOH
 70
     1
  9
$DIMSE1
 70
     0
  9
$DIMSE2
 70
     0
  9
$DIMTAD
 70
     0
  9
$DIMZIN
 70
     0
  9
$DIMBLK
  1

  9
$DIMASO
 70
     1
  9
$DIMSHO
 70
     1
  9
$DIMPOST
  1

  9
$DIMAPOST
  1

  9
$DIMALT
 70
     0
  9
$DIMALTD
 70
     2
  9
$DIMALTF
 40
25.4
  9
$DIMLFAC
 40
1.0
  9
$DIMTOFL
 70
     0
  9
$DIMTVP
 40
0.0
  9
$DIMTIX
 70
     0
  9
$DIMSOXD
 70
     0
  9
$DIMSAH
 70
     0
  9
$DIMBLK1
  1

  9
$DIMBLK2
  1

  9
$DIMSTYLE
  2
Standard
  9
$DIMCLRD
 70
     0
  9
$DIMCLRE
 70
     0
  9
$DIMCLRT
 70
     0
  9
$DIMTFAC
 40
1.0
  9
$DIMGAP
 40
0.09
  9
$DIMJUST
 70
     0
  9
$DIMSD1
 70
     0
  9
$DIMSD2
 70
     0
  9
$DIMTOLJ
 70
     1
  9
$DIMTZIN
 70
     0
  9
$DIMALTZ
 70
     0
  9
$DIMALTTZ
 70
     0
  9
$DIMUPT
 70
     0
  9
$DIMDEC
 70
     4
  9
$DIMTDEC
 70
     4
  9
$DIMALTU
 70
     2
  9
$DIMALTTD
 70
     2
  9
$DIMTXSTY
  7
Standard
  9
$DIMAUNIT
 70
     0
  9
$DIMADEC
 70
     0
  9
$DIMALTRND
 40
0.0
  9
$DIMAZIN
 70
     0
  9
$DIMDSEP
 70
    46
  9
$DIMATFIT
 70
     3
  9
$DIMFRAC
 70
     0
  9
$DIMLDRBLK
  1

  9
$DIMLUNIT
 70
     2
  9
$DIMLWD
 70
    -2
  9
$DIMLWE
 70
    -2
  9
$DIMTMOVE
 70
     0
  9
$DIMFXL
 40
1.0
  9
$DIMFXLON
 70
     0
  9
$DIMJOGANG
 40
0.7853981633974483
  9
$DIMTFILL
 70
     0
  9
$DIMTFILLCLR
 70
     0
  9
$DIMARCSYM
 70
     0
  9
$DIMLTYPE
  6

  9
$DIMLTEX1
  6

  9
$DIMLTEX2
  6

  9
$DIMTXTDIRECTION
 70
     0
  9
$LUNITS
 70
     2
  9
$LUPREC
 70
     4
  9
$SKETCHINC
 40
0.1
  9
$FILLETRAD
 40
0.0
  9
$AUNITS
 70
     0
  9
$AUPREC
 70
     0
  9
$MENU
  1
.
  9
$ELEVATION
 40
0.0
  9
$PELEVATION
 40
0.0
  9
$THICKNESS
 40
0.0
  9
$LIMCHECK
 70
     0
  9
$CHAMFERA
 40
0.0
  9
$CHAMFERB
 40
0.0
  9
$CHAMFERC
 40
0.0
  9
$CHAMFERD
 40
0.0
  9
$SKPOLY
 70
     0
  9
$TDCREATE
 40
2460033.687511574
  9
$TDUCREATE
 40
2460033.854178241
  9
$TDUPDATE
 40
2460033.687511574
  9
$TDUUPDATE
 40
2460033.854178241
  9
$TDINDWG
 40
0.0000000000
  9
$TDUSRTIMER
 40
0.0000000000
  9
$USRTIMER
 70
     1
  9
$ANGBASE
 50
0.0
  9
$ANGDIR
 70
     0
  9
$PDMODE
 70
     0
  9
$PDSIZE
 40
0.0
  9
$PLINEWID
 40
0.0
  9
$SPLFRAME
 70
     0
  9
$SPLINETYPE
 70
     6
  9
$SPLINESEGS
 70
     8
  9
$HANDSEED
  5
CB
  9
$SURFTAB1
 70
     6
  9
$SURFTAB2
 70
     6
  9
$SURFTYPE
 70
     6
  9
$SURFU
 70
     6
  9
$SURFV
 70
     6
  9
$UCSBASE
  2

  9
$UCSNAME
  2

  9
$UCSORG
 10
0.0
 20
0.0
 30
0.0
  9
$UCSXDIR
 10
1.0
 20
0.0
 30
0.0
  9
$UCSYDIR
 10
0.0
 20
1.0
 30
0.0
  9
$UCSORTHOREF
  2

  9
$UCSORTHOVIEW
 70
     0
  9
$UCSORGTOP
 10
0.0
 20
0.0
 30
0.0
  9
$UCSORGBOTTOM
 10
0.0
 20
0.0
 30
0.0
  9
$UCSORGLEFT
 10
0.0
 20
0.0
 30
0.0
  9
$UCSORGRIGHT
 10
0.0
 20
0.0
 30
0.0
  9
$UCSORGFRONT
 10
0.0
 20
0.0
 30
0.0
  9
$UCSORGBACK
 10
0.0
 20
0.0
 30
0.0
  9
$PUCSBASE
  2

  9
$PUCSNAME
  2

  9
$PUCSORG
 10
0.0
 20
0.0
 30
0.0
  9
$PUCSXDIR
 10
1.0
 20
0.0
 30
0.0
  9
$PUCSYDIR
 10
0.0
 20
1.0
 30
0.0
  9
$PUCSORTHOREF
  2

  9
$PUCSORTHOVIEW
 70
     0
  9
$PUCSORGTOP
 10
0.0
 20
0.0
 30
0.0
  9
$PUCSORGBOTTOM
 10
0.0
 20
0.0
 30
0.0
  9
$PUCSORGLEFT
 10
0.0
 20
0.0
 30
0.0
  9
$PUCSORGRIGHT
 10
0.0
 20
0.0
 30
0.0
  9
$PUCSORGFRONT
 10
0.0
 20
0.0
 30
0.0
  9
$PUCSORGBACK
 10
0.0
 20
0.0
 30
0.0
  9
$USERI1
 70
     0
  9
$USERI2
 70
     0
  9
$USERI3
 70
     0
  9
$USERI4
 70
     0
  9
$USERI5
 70
     0
  9
$USERR1
 40
0.0
  9
$USERR2
 40
0.0
  9
$USERR3
 40
0.0
  9
$USERR4
 40
0.0
  9
$USERR5
 40
0.0
  9
$WORLDVIEW
 70
     1
  9
$SHADEDGE
 70
     3
  9
$SHADEDIF
 70
    70
  9
$TILEMODE
 70
     1
  9
$MAXACTVP
 70
    64
  9
$PINSBASE
 10
0.0
 20
0.0
 30
0.0
  9
$PLIMCHECK
 70
     0
  9
$PEXTMIN
 10
1.000000000000000E+20
 20
1.000000000000000E+20
 30
1.000000000000000E+20
  9
$PEXTMAX
 10
-1.000000000000000E+20
 20
-1.000000000000000E+20
 30
-1.000000000000000E+20
  9
$PLIMMIN
 10
0.0
 20
0.0
  9
$PLIMMAX
 10
12.0
 20
9.0
  9
$UNITMODE
 70
     0
  9
$VISRETAIN
 70
     1
  9
$PLINEGEN
 70
     0
  9
$PSLTSCALE
 70
     1
  9
$TREEDEPTH
 70
  3020
  9
$CMLSTYLE
  2
Standard
  9
$CMLJUST
 70
     0
  9
$CMLSCALE
 40
1.0
  9
$PROXYGRAPHICS
 70
     1
  9
$MEASUREMENT
 70
     0
  9
$CELWEIGHT
370
    -1
  9
$ENDCAPS
280
     0
  9
$JOINSTYLE
280
     0
  9
$LWDISPLAY
290
     1
  9
$INSUNITS
 70
     0
  9
$HYPERLINKBASE
  1

  9
$STYLESHEET
  1

  9
$XEDIT
290
     1
  9
$CEPSNTYPE
380
     0
  9
$PSTYLEMODE
290
     1
  9
$FINGERPRINTGUID
  2
{DB2D55CA-4CF6-D84C-B797-7983C015C9CC}
  9
$VERSIONGUID
  2
{A51AA867-6223-B349-B0E3-A220704ADE53}
  9
$EXTNAMES
290
     1
  9
$PSVPSCALE
 40
0.0
  9
$OLESTARTUP
290
     0
  9
$SORTENTS
280
   127
  9
$INDEXCTL
280
     0
  9
$HIDETEXT
280
     1
  9
$XCLIPFRAME
280
     2
  9
$HALOGAP
280
     0
  9
$OBSCOLOR
 70
   257
  9
$OBSLTYPE
280
     0
  9
$INTERSECTIONDISPLAY
280
     0
  9
$INTERSECTIONCOLOR
 70
   257
  9
$DIMASSOC
280
     2
  9
$PROJECTNAME
  1

  9
$CAMERADISPLAY
290
     0
  9
$LENSLENGTH
 40
50.0
  9
$CAMERAHEIGHT
 40
0.0
  9
$STEPSPERSEC
 40
2.0
  9
$STEPSIZE
 40
6.0
  9
$3DDWFPREC
 40
2.0
  9
$PSOLWIDTH
 40
0.25
  9
$PSOLHEIGHT
 40
4.0
  9
$LOFTANG1
 40
1.570796326794896
  9
$LOFTANG2
 40
1.570796326794896
  9
$LOFTMAG1
 40
0.0
  9
$LOFTMAG2
 40
0.0
  9
$LOFTPARAM
 70
     7
  9
$LOFTNORMALS
280
     1
  9
$LATITUDE
 40
37.795
  9
$LONGITUDE
 40
-122.394
  9
$NORTHDIRECTION
 40
0.0
  9
$TIMEZONE
 70
 -8000
  9
$LIGHTGLYPHDISPLAY
280
     1
  9
$TILEMODELIGHTSYNCH
280
     1
  9
$CMATERIAL
347
11
  9
$SOLIDHIST
280
     0
  9
$SHOWHIST
280
     1
  9
$DWFFRAME
280
     2
  9
$DGNFRAME
280
     0
  9
$REALWORLDSCALE
290
     1
  9
$INTERFERECOLOR
 62
     1
  9
$INTERFEREOBJVS
345
33
  9
$INTERFEREVPVS
346
30
  9
$CSHADOW
280
     0
  9
$SHADOWPLANELOCATION
 40
0.0
  0
ENDSEC
  0
SECTION
  2
CLASSES
  0
CLASS
  1
ACDBDICTIONARYWDFLT
  2
AcDbDictionaryWithDefault
  3
ObjectDBX Classes
 90
        0
 91
        1
280
     0
281
     0
  0
CLASS
  1
MATERIAL
  2
AcDbMaterial
  3
ObjectDBX Classes
 90
     1153
 91
        3
280
     0
281
     0
  0
CLASS
  1
VISUALSTYLE
  2
AcDbVisualStyle
  3
ObjectDBX Classes
 90
     4095
 91
       24
280
     0
281
     0
  0
CLASS
  1
SCALE
  2
AcDbScale
  3
ObjectDBX Classes
 90
     1153
 91
       17
280
     0
281
     0
  0
CLASS
  1
TABLESTYLE
  2
AcDbTableStyle
  3
ObjectDBX Classes
 90
     4095
 91
        1
280
     0
281
     0
  0
CLASS
  1
MLEADERSTYLE
  2
AcDbMLeaderStyle
  3
ACDB_MLEADERSTYLE_CLASS
 90
     4095
 91
        1
280
     0
281
     0
  0
CLASS
  1
ACDBSECTIONVIEWSTYLE
  2
AcDbSectionViewStyle
  3
ObjectDBX Classes
 90
     1025
 91
        1
280
     0
281
     0
  0
CLASS
  1
ACDBDETAILVIEWSTYLE
  2
AcDbDetailViewStyle
  3
ObjectDBX Classes
 90
     1025
 91
        1
280
     0
281
     0
  0
CLASS
  1
DICTIONARYVAR
  2
AcDbDictionaryVar
  3
ObjectDBX Classes
 90
        0
 91
        5
280
     0
281
     0
  0
CLASS
  1
CELLSTYLEMAP
  2
AcDbCellStyleMap
  3
ObjectDBX Classes
 90
     1152
 91
        1
280
     0
281
     0
  0
ENDSEC
  0
SECTION
  2
TABLES
  0
TABLE
  2
VPORT
  5
8
330
0
100
AcDbSymbolTable
 70
     1
  0
VPORT
  5
57
330
8
100
AcDbSymbolTableRecord
100
AcDbViewportTableRecord
  2
*Active
 70
     0
 10
0.0
 20
0.0
 11
1.0
 21
1.0
 12
0.0
 22
0.0
 13
0.0
 23
0.0
 14
1.0
 24
1.0
 15
0.0
 25
0.0
 16
0.0
 26
0.0
 36
1.0
 17
249.0
 27
350.0
 37
0.0
 40
714.0
 41
0.7114285714285716
 42
50.0
 43
0.0
 44
0.0
 50
0.0
 51
0.0
 71
     0
 72
   100
 73
     1
 74
     1
 75
     0
 76
     0
 77
     0
 78
     0
281
     0
 65
     1
110
0.0
120
0.0
130
0.0
111
1.0
121
0.0
131
0.0
112
0.0
122
1.0
132
0.0
 79
     0
146
0.0
 60
     3
 61
     5
292
     1
282
     1
141
0.0
142
0.0
 63
   250
421
  3355443
  0
ENDTAB
  0
TABLE
  2
LTYPE
  5
5
330
0
100
AcDbSymbolTable
 70
     1
  0
LTYPE
  5
5B
330
5
100
AcDbSymbolTableRecord
100
AcDbLinetypeTableRecord
  2
ByBlock
 70
     0
  3

 72
    65
 73
     0
 40
0.0
  0
LTYPE
  5
5C
330
5
100
AcDbSymbolTableRecord
100
AcDbLinetypeTableRecord
  2
ByLayer
 70
     0
  3

 72
    65
 73
     0
 40
0.0
  0
LTYPE
  5
5D
330
5
100
AcDbSymbolTableRecord
100
AcDbLinetypeTableRecord
  2
Continuous
 70
     0
  3
Solid line
 72
    65
 73
     0
 40
0.0
  0
ENDTAB
  0
TABLE
  2
LAYER
  5
2
330
0
100
AcDbSymbolTable
 70
     2
  0
LAYER
  5
54
330
2
100
AcDbSymbolTableRecord
100
AcDbLayerTableRecord
  2
0
 70
     0
 62
     7
  6
Continuous
370
    -3
390
F
347
21
348
0
  0
LAYER
  5
78
330
2
100
AcDbSymbolTableRecord
100
AcDbLayerTableRecord
  2
Layer 1
 70
     0
 62
     7
  6
Continuous
370
     0
390
F
347
21
348
0
  0
ENDTAB
  0
TABLE
  2
STYLE
  5
3
330
0
100
AcDbSymbolTable
 70
     2
  0
STYLE
  5
55
330
3
100
AcDbSymbolTableRecord
100
AcDbTextStyleTableRecord
  2
Standard
 70
     0
 40
0.0
 41
1.0
 50
0.0
 71
     0
 42
0.2
  3
txt
  4

  0
STYLE
  5
5A
330
3
100
AcDbSymbolTableRecord
100
AcDbTextStyleTableRecord
  2
Annotative
 70
     0
 40
0.0
 41
1.0
 50
0.0
 71
     0
 42
0.2
  3
txt
  4

1001
AcadAnnotative
1000
AnnotativeData
1002
{
1070
     1
1070
     1
1002
}
  0
ENDTAB
  0
TABLE
  2
VIEW
  5
6
330
0
100
AcDbSymbolTable
 70
     0
  0
ENDTAB
  0
TABLE
  2
UCS
  5
7
330
0
100
AcDbSymbolTable
 70
     0
  0
ENDTAB
  0
TABLE
  2
APPID
  5
9
330
0
100
AcDbSymbolTable
 70
     2
  0
APPID
  5
56
330
9
100
AcDbSymbolTableRecord
100
AcDbRegAppTableRecord
  2
ACAD
 70
     0
  0
APPID
  5
5E
330
9
100
AcDbSymbolTableRecord
100
AcDbRegAppTableRecord
  2
AcadAnnotative
 70
     0
  0
ENDTAB
  0
TABLE
  2
DIMSTYLE
  5
A
330
0
100
AcDbSymbolTable
 70
     2
100
AcDbDimStyleTable
 71
     0
  0
DIMSTYLE
105
58
330
A
100
AcDbSymbolTableRecord
100
AcDbDimStyleTableRecord
  2
Standard
 70
     0
340
55
  0
DIMSTYLE
105
59
330
A
100
AcDbSymbolTableRecord
100
AcDbDimStyleTableRecord
  2
Annotative
 70
     0
340
55
1001
AcadAnnotative
1000
AnnotativeData
1002
{
1070
     1
1070
     1
1002
}
  0
ENDTAB
  0
TABLE
  2
BLOCK_RECORD
  5
1
330
0
100
AcDbSymbolTable
 70
     1
  0
BLOCK_RECORD
  5
70
330
1
100
AcDbSymbolTableRecord
100
AcDbBlockTableRecord
  2
*Model_Space
340
73
 70
     0
280
     1
281
     0
  0
BLOCK_RECORD
  5
6C
330
1
100
AcDbSymbolTableRecord
100
AcDbBlockTableRecord
  2
*Paper_Space
340
6F
 70
     0
280
     1
281
     0
  0
BLOCK_RECORD
  5
74
330
1
100
AcDbSymbolTableRecord
100
AcDbBlockTableRecord
  2
*Paper_Space0
340
77
 70
     0
280
     1
281
     0
  0
ENDTAB
  0
ENDSEC
  0
SECTION
  2
BLOCKS
  0
BLOCK
  5
71
330
70
100
AcDbEntity
  8
0
100
AcDbBlockBegin
  2
*Model_Space
 70
     0
 10
0.0
 20
0.0
 30
0.0
  3
*Model_Space
  1

  0
ENDBLK
  5
72
330
70
100
AcDbEntity
  8
0
100
AcDbBlockEnd
  0
BLOCK
  5
6D
330
6C
100
AcDbEntity
 67
     1
  8
0
100
AcDbBlockBegin
  2
*Paper_Space
 70
     0
 10
0.0
 20
0.0
 30
0.0
  3
*Paper_Space
  1

  0
ENDBLK
  5
6E
330
6C
100
AcDbEntity
 67
     1
  8
0
100
AcDbBlockEnd
  0
BLOCK
  5
75
330
74
100
AcDbEntity
 67
     1
  8
0
100
AcDbBlockBegin
  2
*Paper_Space0
 70
     0
 10
0.0
 20
0.0
 30
0.0
  3
*Paper_Space0
  1

  0
ENDBLK
  5
76
330
74
100
AcDbEntity
 67
     1
  8
0
100
AcDbBlockEnd
  0
ENDSEC
  0
SECTION
  2
ENTITIES
  0
SPLINE
  5
79
330
70
100
AcDbEntity
  8
Layer 1
 62
   250
420
  2301728
370
    18
100
AcDbSpline
210
0.0
220
0.0
230
1.0
 70
     9
 71
     3
 72
    41
 73
    37
 74
     0
 42
0.0000000001
 43
0.0000000001
 40
0.0
 40
0.0
 40
0.0
 40
0.0
 40
1.0
 40
1.0
 40
1.0
 40
2.0
 40
2.0
 40
2.0
 40
3.0
 40
3.0
 40
3.0
 40
4.0
 40
4.0
 40
4.0
 40
5.0
 40
5.0
 40
5.0
 40
6.0
 40
6.0
 40
6.0
 40
7.0
 40
7.0
 40
7.0
 40
8.0
 40
8.0
 40
8.0
 40
9.0
 40
9.0
 40
9.0
 40
10.0
 40
10.0
 40
10.0
 40
11.0
 40
11.0
 40
11.0
 40
12.0
 40
12.0
 40
12.0
 40
12.0
 10
152.9999961348949
 20
503.999987267889
 30
0.0
 10
171.0602956786533
 20
498.5123874065175
 30
0.0
 10
179.8725954560359
 20
485.9032877250501
 30
0.0
 10
192.9999951244099
 20
475.9999879752285
 30
0.0
 10
208.6729947284766
 20
464.1762882739203
 30
0.0
 10
223.3632943573685
 20
451.0182886063193
 30
0.0
 10
237.9999939876143
 20
437.9999889351893
 30
0.0
 10
243.4803938491677
 20
433.125589058327
 30
0.0
 10
248.1272937317772
 20
426.4300892274695
 30
0.0
 10
253.9999935834203
 20
421.9999893393833
 30
0.0
 10
268.839493208543
 20
410.8058896221701
 30
0.0
 10
286.1456927713516
 20
400.2226898895242
 30
0.0
 10
295.999992522411
 20
383.999990299344
 30
0.0
 10
295.3333925392508
 20
383.999990299344
 30
0.0
 10
294.6665925560956
 20
383.999990299344
 30
0.0
 10
293.9999925729353
 20
383.999990299344
 30
0.0
 10
290.126892670778
 20
389.3338901645984
 30
0.0
 10
282.3530928671607
 20
390.1177901447955
 30
0.0
 10
276.9999930023914
 20
393.9999900467228
 30
0.0
 10
273.0003931034298
 20
398.3328899372645
 30
0.0
 10
268.9995932044985
 20
402.6670898277734
 30
0.0
 10
264.9999933055369
 20
406.9999897183151
 30
0.0
 10
262.6120933658603
 20
408.793589673005
 30
0.0
 10
260.3876934220534
 20
409.2061896625819
 30
0.0
 10
257.9999934823718
 20
410.9999896172666
 30
0.0
 10
255.6668935413108
 20
413.6663895499077
 30
0.0
 10
253.3330936002676
 20
416.3335894825285
 30
0.0
 10
250.9999936592067
 20
418.9999894151696
 30
0.0
 10
232.8539941176132
 20
432.513289073795
 30
0.0
 10
216.1232945402662
 20
446.5608887189228
 30
0.0
 10
197.9999949980993
 20
459.9999883794225
 30
0.0
 10
194.3336950907178
 20
463.666288286804
 30
0.0
 10
190.6662951833641
 20
467.3336881941577
 30
0.0
 10
186.9999952759826
 20
470.9999881015392
 30
0.0
 10
174.6231955886469
 20
480.3045878664852
 30
0.0
 10
157.6220960181308
 20
490.1230876184491
 30
0.0
 10
152.9999961348949
 20
503.999987267889
 30
0.0
  0
SPLINE
  5
7A
330
70
100
AcDbEntity
  8
Layer 1
 62
   250
420
  2301728
370
    18
100
AcDbSpline
210
0.0
220
0.0
230
1.0
 70
     9
 71
     3
 72
    32
 73
    28
 74
     0
 42
0.0000000001
 43
0.0000000001
 40
0.0
 40
0.0
 40
0.0
 40
0.0
 40
1.0
 40
1.0
 40
1.0
 40
2.0
 40
2.0
 40
2.0
 40
3.0
 40
3.0
 40
3.0
 40
4.0
 40
4.0
 40
4.0
 40
5.0
 40
5.0
 40
5.0
 40
6.0
 40
6.0
 40
6.0
 40
7.0
 40
7.0
 40
7.0
 40
8.0
 40
8.0
 40
8.0
 40
9.0
 40
9.0
 40
9.0
 40
9.0
 10
176.9999955286039
 20
502.9999872931512
 30
0.0
 10
205.1022948186801
 20
494.1218875174309
 30
0.0
 10
232.1883941344276
 20
460.2395883733698
 30
0.0
 10
254.9999935581582
 20
442.9999888088786
 30
0.0
 10
258.6662934655397
 20
439.0003889099171
 30
0.0
 10
262.3336933728933
 20
434.9995890109858
 30
0.0
 10
265.9999932802748
 20
430.9999891120241
 30
0.0
 10
281.4065928910713
 20
419.3892894053351
 30
0.0
 10
305.6853922777373
 20
401.8512898483822
 30
0.0
 10
315.9999920171685
 20
385.9999902488198
 30
0.0
 10
315.3333920340083
 20
385.9999902488198
 30
0.0
 10
314.6665920508531
 20
385.9999902488198
 30
0.0
 10
313.9999920676928
 20
385.9999902488198
 30
0.0
 10
309.5970921789194
 20
391.9483900985506
 30
0.0
 10
298.8714924498708
 20
395.4737900094924
 30
0.0
 10
292.9999925981974
 20
399.9999898951501
 30
0.0
 10
291.0001926487166
 20
402.6663898277911
 30
0.0
 10
288.999792699251
 20
405.3335897604119
 30
0.0
 10
286.9999927497702
 20
407.999989693053
 30
0.0
 10
272.8698931067265
 20
418.8608894186836
 30
0.0
 10
259.2928934497104
 20
429.3310891541842
 30
0.0
 10
244.9999938107794
 20
439.999988884665
 30
0.0
 10
233.8751940918164
 20
448.3040886748859
 30
0.0
 10
224.1566943373255
 20
459.6573883880774
 30
0.0
 10
212.9999946191674
 20
467.9999881773255
 30
0.0
 10
199.5937949578374
 20
478.0247879240778
 30
0.0
 10
182.8942953797013
 20
488.5492876582065
 30
0.0
 10
176.9999955286039
 20
502.9999872931512
 30
0.0
  0
SPLINE
  5
7B
330
70
100
AcDbEntity
  8
Layer 1
 62
   250
420
  2301728
370
    18
100
AcDbSpline
210
0.0
220
0.0
230
1.0
 70
     9
 71
     3
 72
    32
 73
    28
 74
     0
 42
0.0000000001
 43
0.0000000001
 40
0.0
 40
0.0
 40
0.0
 40
0.0
 40
1.0
 40
1.0
 40
1.0
 40
2.0
 40
2.0
 40
2.0
 40
3.0
 40
3.0
 40
3.0
 40
4.0
 40
4.0
 40
4.0
 40
5.0
 40
5.0
 40
5.0
 40
6.0
 40
6.0
 40
6.0
 40
7.0
 40
7.0
 40
7.0
 40
8.0
 40
8.0
 40
8.0
 40
9.0
 40
9.0
 40
9.0
 40
9.0
 10
132.9999966401374
 20
501.9999873184133
 30
0.0
 10
151.0439961843076
 20
495.9608874709738
 30
0.0
 10
161.4198959221903
 20
482.1123878208164
 30
0.0
 10
174.9999955791281
 20
471.999988076277
 30
0.0
 10
197.9801949985985
 20
454.8876885085701
 30
0.0
 10
217.7938944980633
 20
434.8257890153763
 30
0.0
 10
238.9999939623522
 20
415.999989490956
 30
0.0
 10
249.5172936966628
 20
406.6632897268209
 30
0.0
 10
268.503693217026
 20
398.773689926129
 30
0.0
 10
272.9999931034399
 20
383.999990299344
 30
0.0
 10
272.3333931202796
 20
383.999990299344
 30
0.0
 10
271.6665931371244
 20
383.999990299344
 30
0.0
 10
270.9999931539642
 20
383.999990299344
 30
0.0
 10
266.7055932624498
 20
388.8585901766064
 30
0.0
 10
258.0121934820636
 20
390.8513901262631
 30
0.0
 10
252.9999936086824
 20
394.9999900214607
 30
0.0
 10
249.3859936999797
 20
397.9912899458941
 30
0.0
 10
246.7803937658027
 20
403.1550898154454
 30
0.0
 10
242.9999938613037
 20
405.9999897435773
 30
0.0
 10
224.8231943204883
 20
419.6788893980192
 30
0.0
 10
208.2508947391398
 20
434.3084890284444
 30
0.0
 10
189.9999952001962
 20
447.999988682568
 30
0.0
 10
188.0001952507145
 20
450.333088623629
 30
0.0
 10
185.9997953012498
 20
452.6668885646722
 30
0.0
 10
183.999995351769
 20
454.9999885057331
 30
0.0
 10
165.129095828488
 20
469.0588881505764
 30
0.0
 10
146.2414963056289
 20
482.2857878164358
 30
0.0
 10
132.9999966401374
 20
501.9999873184133
 30
0.0
  0
SPLINE
  5
7C
330
70
100
AcDbEntity
  8
Layer 1
 62
   250
420
  2301728
370
    18
100
AcDbSpline
210
0.0
220
0.0
230
1.0
 70
     9
 71
     3
 72
    23
 73
    19
 74
     0
 42
0.0000000001
 43
0.0000000001
 40
0.0
 40
0.0
 40
0.0
 40
0.0
 40
1.0
 40
1.0
 40
1.0
 40
2.0
 40
2.0
 40
2.0
 40
3.0
 40
3.0
 40
3.0
 40
4.0
 40
4.0
 40
4.0
 40
5.0
 40
5.0
 40
5.0
 40
6.0
 40
6.0
 40
6.0
 40
6.0
 10
206.9999947707402
 20
496.9999874447239
 30
0.0
 10
234.1712940843354
 20
483.6620877816677
 30
0.0
 10
254.2176935779207
 20
462.798388308729
 30
0.0
 10
273.9999930781778
 20
441.9999888341408
 30
0.0
 10
281.5685928869789
 20
434.0425890351617
 30
0.0
 10
292.9174926002815
 20
428.2538891813974
 30
0.0
 10
298.9999924466247
 20
418.9999894151696
 30
0.0
 10
298.3333924634644
 20
418.9999894151696
 30
0.0
 10
297.6665924803092
 20
418.9999894151696
 30
0.0
 10
296.9999924971489
 20
418.9999894151696
 30
0.0
 10
288.9856926996072
 20
430.1507891334767
 30
0.0
 10
271.7151931358967
 20
434.6959890186553
 30
0.0
 10
261.9999933813233
 20
443.9999887836165
 30
0.0
 10
244.4716938241254
 20
460.7863883595564
 30
0.0
 10
224.852894319738
 20
475.5265879871877
 30
0.0
 10
206.9999947707402
 20
491.9999875710345
 30
0.0
 10
207.273494763831
 20
495.3301874869066
 30
0.0
 10
207.3733947613073
 20
493.6599875290994
 30
0.0
 10
206.9999947707402
 20
496.9999874447239
 30
0.0
  0
SPLINE
  5
7D
330
70
100
AcDbEntity
  8
Layer 1
 62
   250
420
  2301728
370
    18
100
AcDbSpline
210
0.0
220
0.0
230
1.0
 70
     9
 71
     3
 72
    32
 73
    28
 74
     0
 42
0.0000000001
 43
0.0000000001
 40
0.0
 40
0.0
 40
0.0
 40
0.0
 40
1.0
 40
1.0
 40
1.0
 40
2.0
 40
2.0
 40
2.0
 40
3.0
 40
3.0
 40
3.0
 40
4.0
 40
4.0
 40
4.0
 40
5.0
 40
5.0
 40
5.0
 40
6.0
 40
6.0
 40
6.0
 40
7.0
 40
7.0
 40
7.0
 40
8.0
 40
8.0
 40
8.0
 40
9.0
 40
9.0
 40
9.0
 40
9.0
 10
117.9999970190692
 20
495.999987469986
 30
0.0
 10
133.098696637644
 20
493.7504875268132
 30
0.0
 10
141.9043964151933
 20
479.6280878835751
 30
0.0
 10
151.999996160157
 20
471.999988076277
 30
0.0
 10
177.291295521245
 20
452.8902885590286
 30
0.0
 10
200.4239949368639
 20
430.9681891128275
 30
0.0
 10
223.999994341284
 20
409.9999896425288
 30
0.0
 10
232.3800941295849
 20
402.5467898308134
 30
0.0
 10
249.9352936861033
 20
396.0753899942938
 30
0.0
 10
251.9999936339445
 20
382.9999903246062
 30
0.0
 10
251.3333936507843
 20
382.9999903246062
 30
0.0
 10
250.6665936676291
 20
382.9999903246062
 30
0.0
 10
249.9999936844688
 20
382.9999903246062
 30
0.0
 10
245.5367937972187
 20
386.9526902247526
 30
0.0
 10
238.2861939803843
 20
387.8721902015241
 30
0.0
 10
233.9999940886628
 20
391.999990097247
 30
0.0
 10
215.4109945582604
 20
409.9021896449994
 30
0.0
 10
196.0091950483911
 20
426.4526892268986
 30
0.0
 10
174.9999955791281
 20
441.9999888341408
 30
0.0
 10
167.9954957560767
 20
447.1834887031945
 30
0.0
 10
162.1203959044942
 20
454.8210885102526
 30
0.0
 10
154.9999960843706
 20
459.9999883794225
 30
0.0
 10
147.3641962772672
 20
465.5537882391217
 30
0.0
 10
117.6000970291716
 20
486.6922877051183
 30
0.0
 10
114.9999970948556
 20
493.9999875205103
 30
0.0
 10
116.2568970631037
 20
494.6503875040798
 30
0.0
 10
117.0706970425453
 20
495.0893874929898
 30
0.0
 10
117.9999970190692
 20
495.999987469986
 30
0.0
  0
SPLINE
  5
7E
330
70
100
AcDbEntity
  8
Layer 1
 62
   250
420
  2301728
370
    18
100
AcDbSpline
210
0.0
220
0.0
230
1.0
 70
     9
 71
     3
 72
    38
 73
    34
 74
     0
 42
0.0000000001
 43
0.0000000001
 40
0.0
 40
0.0
 40
0.0
 40
0.0
 40
1.0
 40
1.0
 40
1.0
 40
2.0
 40
2.0
 40
2.0
 40
3.0
 40
3.0
 40
3.0
 40
4.0
 40
4.0
 40
4.0
 40
5.0
 40
5.0
 40
5.0
 40
6.0
 40
6.0
 40
6.0
 40
7.0
 40
7.0
 40
7.0
 40
8.0
 40
8.0
 40
8.0
 40
9.0
 40
9.0
 40
9.0
 40
10.0
 40
10.0
 40
10.0
 40
11.0
 40
11.0
 40
11.0
 40
11.0
 10
104.9999973474769
 20
489.9999876215588
 30
0.0
 10
116.5370970560252
 20
489.0995876443049
 30
0.0
 10
130.9452966920426
 20
471.9848880766585
 30
0.0
 10
137.9999965138267
 20
464.9999882531119
 30
0.0
 10
154.3257961014024
 20
448.835588661459
 30
0.0
 10
172.4030956447314
 20
434.939289012509
 30
0.0
 10
190.9999951749341
 20
420.9999893646454
 30
0.0
 10
195.3328950654759
 20
416.6670894741036
 30
0.0
 10
199.6670949559848
 20
412.3328895835948
 30
0.0
 10
203.9999948465265
 20
407.999989693053
 30
0.0
 10
213.3476946103838
 20
400.9944898700268
 30
0.0
 10
229.6933941974566
 20
392.4916900848257
 30
0.0
 10
232.9999941139249
 20
379.9999904003926
 30
0.0
 10
232.3333941307646
 20
379.9999904003926
 30
0.0
 10
231.6665941476094
 20
379.9999904003926
 30
0.0
 10
230.9999941644492
 20
379.9999904003926
 30
0.0
 10
228.6264942244088
 20
382.3233903416985
 30
0.0
 10
225.9988942907876
 20
382.0464903486936
 30
0.0
 10
222.9999943665462
 20
383.999990299344
 30
0.0
 10
220.3335944339051
 20
386.6663902319851
 30
0.0
 10
217.6663945012842
 20
389.333590164606
 30
0.0
 10
214.9999945686432
 20
391.999990097247
 30
0.0
 10
209.619694704561
 20
396.0018899961506
 30
0.0
 10
204.5135948335519
 20
398.9984899204501
 30
0.0
 10
198.9999949728371
 20
402.9999898193636
 30
0.0
 10
184.684895334467
 20
413.3892895569078
 30
0.0
 10
173.1242956265123
 20
428.4760891757833
 30
0.0
 10
158.9999959833221
 20
438.9999889099271
 30
0.0
 10
139.9536964644721
 20
453.1913885514223
 30
0.0
 10
122.0127969176974
 20
467.8753881804732
 30
0.0
 10
104.9999973474769
 20
483.9999877731315
 30
0.0
 10
104.9999973474769
 20
485.9997877226123
 30
0.0
 10
104.9999973474769
 20
488.000187672078
 30
0.0
 10
104.9999973474769
 20
489.9999876215588
 30
0.0
  0
SPLINE
  5
7F
330
70
100
AcDbEntity
  8
Layer 1
 62
   250
420
  2301728
370
    18
100
AcDbSpline
210
0.0
220
0.0
230
1.0
 70
     9
 71
     3
 72
    35
 73
    31
 74
     0
 42
0.0000000001
 43
0.0000000001
 40
0.0
 40
0.0
 40
0.0
 40
0.0
 40
1.0
 40
1.0
 40
1.0
 40
2.0
 40
2.0
 40
2.0
 40
3.0
 40
3.0
 40
3.0
 40
4.0
 40
4.0
 40
4.0
 40
5.0
 40
5.0
 40
5.0
 40
6.0
 40
6.0
 40
6.0
 40
7.0
 40
7.0
 40
7.0
 40
8.0
 40
8.0
 40
8.0
 40
9.0
 40
9.0
 40
9.0
 40
10.0
 40
10.0
 40
10.0
 40
10.0
 10
103.999997372739
 20
469.9999881268013
 30
0.0
 10
106.3330973137999
 20
469.9999881268013
 30
0.0
 10
108.6668972548432
 20
469.9999881268013
 30
0.0
 10
110.9999971959041
 20
469.9999881268013
 30
0.0
 10
116.5675970552547
 20
461.8170883335188
 30
0.0
 10
127.0663967900327
 20
453.9886885312808
 30
0.0
 10
134.9999965896131
 20
447.999988682568
 30
0.0
 10
136.9997965390939
 20
445.6668887415071
 30
0.0
 10
139.0001964885596
 20
443.3330888004639
 30
0.0
 10
140.9999964380404
 20
440.9999888594029
 30
0.0
 10
155.7942960643049
 20
429.8498891410782
 30
0.0
 10
169.4672957188959
 20
416.9563894667954
 30
0.0
 10
183.999995351769
 20
405.9999897435773
 30
0.0
 10
192.202395144559
 20
399.8160898997958
 30
0.0
 10
211.5853946549032
 20
385.55109026016
 30
0.0
 10
214.9999945686432
 20
375.9999905014411
 30
0.0
 10
214.3333945854829
 20
375.9999905014411
 30
0.0
 10
213.6665946023277
 20
375.9999905014411
 30
0.0
 10
212.9999946191674
 20
375.9999905014411
 30
0.0
 10
208.7638947261803
 20
380.3361903918995
 30
0.0
 10
203.0764948698561
 20
382.4262903390991
 30
0.0
 10
197.9999949980993
 20
385.9999902488198
 30
0.0
 10
189.3991952153737
 20
392.0546900958652
 30
0.0
 10
181.6285954116756
 20
399.5576899063244
 30
0.0
 10
172.9999956296524
 20
405.9999897435773
 30
0.0
 10
159.7912959633322
 20
415.8618894944448
 30
0.0
 10
149.1065962332504
 20
430.1083891345479
 30
0.0
 10
135.999996564351
 20
439.999988884665
 30
0.0
 10
125.7149968241719
 20
447.7621886885754
 30
0.0
 10
107.7901972769914
 20
456.2446884742894
 30
0.0
 10
103.999997372739
 20
469.9999881268013
 30
0.0
  0
SPLINE
  5
80
330
70
100
AcDbEntity
  8
Layer 1
 62
   250
420
  2301728
370
    18
100
AcDbSpline
210
0.0
220
0.0
230
1.0
 70
     9
 71
     3
 72
    41
 73
    37
 74
     0
 42
0.0000000001
 43
0.0000000001
 40
0.0
 40
0.0
 40
0.0
 40
0.0
 40
1.0
 40
1.0
 40
1.0
 40
2.0
 40
2.0
 40
2.0
 40
3.0
 40
3.0
 40
3.0
 40
4.0
 40
4.0
 40
4.0
 40
5.0
 40
5.0
 40
5.0
 40
6.0
 40
6.0
 40
6.0
 40
7.0
 40
7.0
 40
7.0
 40
8.0
 40
8.0
 40
8.0
 40
9.0
 40
9.0
 40
9.0
 40
10.0
 40
10.0
 40
10.0
 40
11.0
 40
11.0
 40
11.0
 40
12.0
 40
12.0
 40
12.0
 40
12.0
 10
102.9999973980011
 20
450.9999886067816
 30
0.0
 10
105.5323973340273
 20
450.9260886086486
 30
0.0
 10
106.716397304117
 20
450.8794886098257
 30
0.0
 10
107.9999972716914
 20
449.9999886320438
 30
0.0
 10
115.0076970946611
 20
447.5362886942821
 30
0.0
 10
124.6707968505507
 20
434.6953890186705
 30
0.0
 10
130.9999966906616
 20
429.9999891372863
 30
0.0
 10
144.9752963376158
 20
419.6321893991989
 30
0.0
 10
158.224296002918
 20
409.567789653447
 30
0.0
 10
171.9999956549154
 20
398.9999899204122
 30
0.0
 10
173.1754956252189
 20
398.0981899431936
 30
0.0
 10
172.9693956304254
 20
396.0065899960318
 30
0.0
 10
173.9999956043902
 20
394.9999900214607
 30
0.0
 10
176.2473955476162
 20
392.8048900769136
 30
0.0
 10
179.6568954614849
 20
392.1169900942914
 30
0.0
 10
181.9999954022932
 20
389.9999901477713
 30
0.0
 10
183.6371953609341
 20
388.5207901851391
 30
0.0
 10
184.3315953433921
 20
385.4028902639038
 30
0.0
 10
185.9999953012447
 20
383.999990299344
 30
0.0
 10
191.0001951749291
 20
379.7956904055536
 30
0.0
 10
202.7540948780006
 20
371.0080906275471
 30
0.0
 10
204.9999948212644
 20
364.9999907793244
 30
0.0
 10
204.6666948296843
 20
364.9999907793244
 30
0.0
 10
204.3332948381066
 20
364.9999907793244
 30
0.0
 10
203.9999948465265
 20
364.9999907793244
 30
0.0
 10
199.057594971382
 20
371.1782906232475
 30
0.0
 10
189.4967952129082
 20
374.3302905436213
 30
0.0
 10
182.9999953770311
 20
378.9999904256547
 30
0.0
 10
165.8612958099911
 20
391.3188901144531
 30
0.0
 10
151.0118961851194
 20
407.1583897143137
 30
0.0
 10
133.9999966148752
 20
419.9999893899075
 30
0.0
 10
130.6669966990739
 20
423.666289297289
 30
0.0
 10
127.3329967832978
 20
427.3336892046427
 30
0.0
 10
123.9999968674974
 20
430.9999891120241
 30
0.0
 10
115.7110970768917
 20
437.2553889540004
 30
0.0
 10
108.6027972564634
 20
442.0127888338174
 30
0.0
 10
102.9999973980011
 20
450.9999886067816
 30
0.0
  0
SPLINE
  5
81
330
70
100
AcDbEntity
  8
Layer 1
 62
   250
420
  2301728
370
    18
100
AcDbSpline
210
0.0
220
0.0
230
1.0
 70
     9
 71
     3
 72
    59
 73
    55
 74
     0
 42
0.0000000001
 43
0.0000000001
 40
0.0
 40
0.0
 40
0.0
 40
0.0
 40
1.0
 40
1.0
 40
1.0
 40
2.0
 40
2.0
 40
2.0
 40
3.0
 40
3.0
 40
3.0
 40
4.0
 40
4.0
 40
4.0
 40
5.0
 40
5.0
 40
5.0
 40
6.0
 40
6.0
 40
6.0
 40
7.0
 40
7.0
 40
7.0
 40
8.0
 40
8.0
 40
8.0
 40
9.0
 40
9.0
 40
9.0
 40
10.0
 40
10.0
 40
10.0
 40
11.0
 40
11.0
 40
11.0
 40
12.0
 40
12.0
 40
12.0
 40
13.0
 40
13.0
 40
13.0
 40
14.0
 40
14.0
 40
14.0
 40
15.0
 40
15.0
 40
15.0
 40
16.0
 40
16.0
 40
16.0
 40
17.0
 40
17.0
 40
17.0
 40
18.0
 40
18.0
 40
18.0
 40
18.0
 10
105.9999973222147
 20
430.9999891120241
 30
0.0
 10
113.9729971207998
 20
428.4670891760106
 30
0.0
 10
118.0114970187787
 20
421.4586893530577
 30
0.0
 10
123.9999968674974
 20
416.9999894656939
 30
0.0
 10
133.8822966178486
 20
409.642289651565
 30
0.0
 10
143.1843963828578
 20
402.3803898350161
 30
0.0
 10
152.9999961348949
 20
394.9999900214607
 30
0.0
 10
157.3328960254366
 20
390.667090130919
 30
0.0
 10
161.6670959159455
 20
386.33289024041
 30
0.0
 10
165.9999958064872
 20
381.9999903498683
 30
0.0
 10
194.3451950904273
 20
360.5719908911851
 30
0.0
 10
219.3895944577525
 20
334.2081915571907
 30
0.0
 10
247.999993734993
 20
312.9999920929549
 30
0.0
 10
257.1551935037132
 20
306.2134922643963
 30
0.0
 10
267.011893254712
 20
299.9705924221053
 30
0.0
 10
274.9999930529157
 20
291.9999926234595
 30
0.0
 10
280.2508929202668
 20
286.7605927558179
 30
0.0
 10
284.0608928240181
 20
279.4939929393877
 30
0.0
 10
289.9999926739838
 20
274.9999930529157
 30
0.0
 10
297.0801924951229
 20
269.642593188255
 30
0.0
 10
305.1124922922099
 20
263.4254933453121
 30
0.0
 10
309.9999921687413
 20
255.999993532896
 30
0.0
 10
309.333392185581
 20
255.999993532896
 30
0.0
 10
308.6665922024258
 20
255.999993532896
 30
0.0
 10
307.9999922192655
 20
255.999993532896
 30
0.0
 10
301.6469923797558
 20
265.1337933021569
 30
0.0
 10
289.0943926968612
 20
271.4550931424674
 30
0.0
 10
279.999992926605
 20
277.9999929771293
 30
0.0
 10
268.6305932138203
 20
286.1820927704321
 30
0.0
 10
258.4280934715571
 20
296.419792511806
 30
0.0
 10
246.9999937602552
 20
304.9999922950519
 30
0.0
 10
240.6672939202326
 20
311.3326921350745
 30
0.0
 10
234.3326940802581
 20
317.667291975049
 30
0.0
 10
227.9999942402355
 20
323.9999918150715
 30
0.0
 10
221.7928943970401
 20
328.6978916963926
 30
0.0
 10
215.4943945561536
 20
333.5555915736768
 30
0.0
 10
209.9999946949538
 20
338.9999914361397
 30
0.0
 10
208.6349947294366
 20
340.3525914019701
 30
0.0
 10
208.5638947312327
 20
342.8184913396763
 30
0.0
 10
206.9999947707402
 20
343.9999913098291
 30
0.0
 10
200.3350949391097
 20
349.0352911826267
 30
0.0
 10
193.6647951076156
 20
353.0006910824523
 30
0.0
 10
186.9999952759826
 20
357.9999909561593
 30
0.0
 10
177.2479955223389
 20
365.3149907713669
 30
0.0
 10
169.0389957297156
 20
375.7949905066198
 30
0.0
 10
158.9999959833221
 20
382.9999903246062
 30
0.0
 10
152.7222961419102
 20
387.5055902107852
 30
0.0
 10
146.0802963097012
 20
390.4362901367495
 30
0.0
 10
139.9999964633034
 20
394.9999900214607
 30
0.0
 10
133.0006966401197
 20
401.9992898446444
 30
0.0
 10
125.9992968169899
 20
409.0006896677732
 30
0.0
 10
118.9999969938071
 20
415.999989490956
 30
0.0
 10
113.547097131559
 20
420.0946893875152
 30
0.0
 10
106.9616972979201
 20
422.370989330011
 30
0.0
 10
105.9999973222147
 20
430.9999891120241
 30
0.0
  0
SPLINE
  5
82
330
70
100
AcDbEntity
  8
Layer 1
 62
   250
420
  2301728
370
    18
100
AcDbSpline
210
0.0
220
0.0
230
1.0
 70
     9
 71
     3
 72
    14
 73
    10
 74
     0
 42
0.0000000001
 43
0.0000000001
 40
0.0
 40
0.0
 40
0.0
 40
0.0
 40
1.0
 40
1.0
 40
1.0
 40
2.0
 40
2.0
 40
2.0
 40
3.0
 40
3.0
 40
3.0
 40
3.0
 10
298.9999924466247
 20
418.9999894151696
 30
0.0
 10
301.6841923788161
 20
418.1086894376858
 30
0.0
 10
301.5892923812135
 20
417.9716894411467
 30
0.0
 10
302.9999923455762
 20
415.999989490956
 30
0.0
 10
303.3332923371563
 20
415.6666894993759
 30
0.0
 10
303.6666923287339
 20
415.3332895077983
 30
0.0
 10
303.999992320314
 20
414.9999895162181
 30
0.0
 10
301.0728923942588
 20
415.946589492305
 30
0.0
 10
300.4888924090119
 20
416.7638894716583
 30
0.0
 10
298.9999924466247
 20
418.9999894151696
 30
0.0
  0
SPLINE
  5
83
330
70
100
AcDbEntity
  8
Layer 1
 62
   250
420
  2301728
370
    18
100
AcDbSpline
210
0.0
220
0.0
230
1.0
 70
     9
 71
     3
 72
    14
 73
    10
 74
     0
 42
0.0000000001
 43
0.0000000001
 40
0.0
 40
0.0
 40
0.0
 40
0.0
 40
1.0
 40
1.0
 40
1.0
 40
2.0
 40
2.0
 40
2.0
 40
3.0
 40
3.0
 40
3.0
 40
3.0
 10
303.999992320314
 20
414.9999895162181
 30
0.0
 10
306.9270922463693
 20
414.0533895401313
 30
0.0
 10
307.5110922316162
 20
413.236089560778
 30
0.0
 10
308.9999921940034
 20
410.9999896172666
 30
0.0
 10
309.3332921855836
 20
410.6666896256865
 30
0.0
 10
309.6666921771612
 20
410.3332896341089
 30
0.0
 10
309.9999921687413
 20
409.9999896425288
 30
0.0
 10
306.8325922487566
 20
411.0190896167841
 30
0.0
 10
305.600692279877
 20
412.526489578704
 30
0.0
 10
303.999992320314
 20
414.9999895162181
 30
0.0
  0
SPLINE
  5
84
330
70
100
AcDbEntity
  8
Layer 1
 62
   250
420
  2301728
370
    18
100
AcDbSpline
210
0.0
220
0.0
230
1.0
 70
     9
 71
     3
 72
    23
 73
    19
 74
     0
 42
0.0000000001
 43
0.0000000001
 40
0.0
 40
0.0
 40
0.0
 40
0.0
 40
1.0
 40
1.0
 40
1.0
 40
2.0
 40
2.0
 40
2.0
 40
3.0
 40
3.0
 40
3.0
 40
4.0
 40
4.0
 40
4.0
 40
5.0
 40
5.0
 40
5.0
 40
6.0
 40
6.0
 40
6.0
 40
6.0
 10
106.9999972969526
 20
411.9999895920045
 30
0.0
 10
108.3331972632731
 20
411.9999895920045
 30
0.0
 10
109.6667972295836
 20
411.9999895920045
 30
0.0
 10
110.9999971959041
 20
411.9999895920045
 30
0.0
 10
114.3750971106419
 20
406.9866897186511
 30
0.0
 10
120.2157969630934
 20
404.6234897783506
 30
0.0
 10
124.9999968422344
 20
400.9999898698879
 30
0.0
 10
129.2262967354691
 20
397.7990899507504
 30
0.0
 10
128.7826967466753
 20
393.3472900632114
 30
0.0
 10
131.9999966654004
 20
388.9999901730334
 30
0.0
 10
134.0197966143751
 20
386.2707902419789
 30
0.0
 10
137.9166965159311
 20
385.1228902709772
 30
0.0
 10
139.9999964633034
 20
381.9999903498683
 30
0.0
 10
139.3333964801422
 20
381.9999903498683
 30
0.0
 10
138.666596496987
 20
381.9999903498683
 30
0.0
 10
137.9999965138267
 20
381.9999903498683
 30
0.0
 10
130.9691966914397
 20
391.5625901082967
 30
0.0
 10
107.8323972759244
 20
398.7956899255733
 30
0.0
 10
106.9999972969526
 20
411.9999895920045
 30
0.0
  0
SPLINE
  5
85
330
70
100
AcDbEntity
  8
Layer 1
 62
   250
420
  2301728
370
    18
100
AcDbSpline
210
0.0
220
0.0
230
1.0
 70
     9
 71
     3
 72
    11
 73
     7
 74
     0
 42
0.0000000001
 43
0.0000000001
 40
0.0
 40
0.0
 40
0.0
 40
0.0
 40
1.0
 40
1.0
 40
1.0
 40
2.0
 40
2.0
 40
2.0
 40
2.0
 10
309.9999921687413
 20
409.9999896425288
 30
0.0
 10
310.6665921519016
 20
409.9999896425288
 30
0.0
 10
311.3333921350568
 20
409.9999896425288
 30
0.0
 10
311.999992118217
 20
409.9999896425288
 30
0.0
 10
310.8114921482411
 20
408.3913896831663
 30
0.0
 10
311.5818921287791
 20
408.7761896734446
 30
0.0
 10
309.9999921687413
 20
409.9999896425288
 30
0.0
  0
SPLINE
  5
86
330
70
100
AcDbEntity
  8
Layer 1
 62
   250
420
  2301728
370
    18
100
AcDbSpline
210
0.0
220
0.0
230
1.0
 70
     9
 71
     3
 72
    14
 73
    10
 74
     0
 42
0.0000000001
 43
0.0000000001
 40
0.0
 40
0.0
 40
0.0
 40
0.0
 40
1.0
 40
1.0
 40
1.0
 40
2.0
 40
2.0
 40
2.0
 40
3.0
 40
3.0
 40
3.0
 40
3.0
 10
311.999992118217
 20
407.999989693053
 30
0.0
 10
314.3889920578658
 20
407.1580897143212
 30
0.0
 10
313.6448920766634
 20
407.5984897031958
 30
0.0
 10
314.9999920424307
 20
405.9999897435773
 30
0.0
 10
315.3332920340108
 20
405.6666897519972
 30
0.0
 10
315.6666920255884
 20
405.3332897604195
 30
0.0
 10
315.9999920171685
 20
404.9999897688394
 30
0.0
 10
313.3157920849772
 20
405.8912897463232
 30
0.0
 10
313.4106920825798
 20
406.0282897428623
 30
0.0
 10
311.999992118217
 20
407.999989693053
 30
0.0
  0
SPLINE
  5
87
330
70
100
AcDbEntity
  8
Layer 1
 62
   250
420
  2301728
370
    18
100
AcDbSpline
210
0.0
220
0.0
230
1.0
 70
     9
 71
     3
 72
    11
 73
     7
 74
     0
 42
0.0000000001
 43
0.0000000001
 40
0.0
 40
0.0
 40
0.0
 40
0.0
 40
1.0
 40
1.0
 40
1.0
 40
2.0
 40
2.0
 40
2.0
 40
2.0
 10
317.9999919666443
 20
402.9999898193636
 30
0.0
 10
318.6665919498046
 20
402.9999898193636
 30
0.0
 10
319.3333919329598
 20
402.9999898193636
 30
0.0
 10
319.99999191612
 20
402.9999898193636
 30
0.0
 10
318.8114919461441
 20
401.3913898600003
 30
0.0
 10
319.5818919266821
 20
401.7761898502803
 30
0.0
 10
317.9999919666443
 20
402.9999898193636
 30
0.0
  0
SPLINE
  5
88
330
70
100
AcDbEntity
  8
Layer 1
 62
   250
420
  2301728
370
    18
100
AcDbSpline
210
0.0
220
0.0
230
1.0
 70
     9
 71
     3
 72
    14
 73
    10
 74
     0
 42
0.0000000001
 43
0.0000000001
 40
0.0
 40
0.0
 40
0.0
 40
0.0
 40
1.0
 40
1.0
 40
1.0
 40
2.0
 40
2.0
 40
2.0
 40
3.0
 40
3.0
 40
3.0
 40
3.0
 10
272.9999931034399
 20
383.999990299344
 30
0.0
 10
275.9270930294952
 20
383.0533903232572
 30
0.0
 10
276.5110930147421
 20
382.2360903439039
 30
0.0
 10
277.9999929771293
 20
379.9999904003926
 30
0.0
 10
278.3332929687095
 20
379.6666904088124
 30
0.0
 10
278.666692960287
 20
379.3332904172348
 30
0.0
 10
278.9999929518672
 20
378.9999904256547
 30
0.0
 10
275.8325930318824
 20
380.0190903999101
 30
0.0
 10
274.6006930630028
 20
381.5264903618299
 30
0.0
 10
272.9999931034399
 20
383.999990299344
 30
0.0
  0
SPLINE
  5
89
330
70
100
AcDbEntity
  8
Layer 1
 62
   250
420
  2301728
370
    18
100
AcDbSpline
210
0.0
220
0.0
230
1.0
 70
     9
 71
     3
 72
    20
 73
    16
 74
     0
 42
0.0000000001
 43
0.0000000001
 40
0.0
 40
0.0
 40
0.0
 40
0.0
 40
1.0
 40
1.0
 40
1.0
 40
2.0
 40
2.0
 40
2.0
 40
3.0
 40
3.0
 40
3.0
 40
4.0
 40
4.0
 40
4.0
 40
5.0
 40
5.0
 40
5.0
 40
5.0
 10
119.999996968545
 20
379.9999904003926
 30
0.0
 10
134.8575965932095
 20
375.1086905239572
 30
0.0
 10
144.1082963595181
 20
361.0864908781878
 30
0.0
 10
155.9999960591094
 20
352.9999910824699
 30
0.0
 10
155.6666960675284
 20
352.0000911077295
 30
0.0
 10
155.3332960759508
 20
350.9998911329967
 30
0.0
 10
154.9999960843706
 20
349.9999911582563
 30
0.0
 10
154.6666960927914
 20
349.9999911582563
 30
0.0
 10
154.3332961012129
 20
349.9999911582563
 30
0.0
 10
153.9999961096327
 20
349.9999911582563
 30
0.0
 10
152.2483961538819
 20
351.34969112416
 30
0.0
 10
150.2749962037342
 20
350.7386911395952
 30
0.0
 10
147.9999962612064
 20
351.9999911077321
 30
0.0
 10
137.4484965277588
 20
357.8499909599486
 30
0.0
 10
126.4020968068144
 20
369.7717906587786
 30
0.0
 10
119.999996968545
 20
379.9999904003926
 30
0.0
  0
SPLINE
  5
8A
330
70
100
AcDbEntity
  8
Layer 1
 62
   250
420
  2301728
370
    18
100
AcDbSpline
210
0.0
220
0.0
230
1.0
 70
     9
 71
     3
 72
    14
 73
    10
 74
     0
 42
0.0000000001
 43
0.0000000001
 40
0.0
 40
0.0
 40
0.0
 40
0.0
 40
1.0
 40
1.0
 40
1.0
 40
2.0
 40
2.0
 40
2.0
 40
3.0
 40
3.0
 40
3.0
 40
3.0
 10
254.9999935581582
 20
379.9999904003926
 30
0.0
 10
257.3889934978069
 20
379.1580904216607
 30
0.0
 10
256.6448935166045
 20
379.5984904105353
 30
0.0
 10
257.9999934823718
 20
377.9999904509168
 30
0.0
 10
258.3332934739519
 20
377.6666904593367
 30
0.0
 10
258.6666934655295
 20
377.3332904677591
 30
0.0
 10
258.9999934571097
 20
376.9999904761789
 30
0.0
 10
256.3157935249183
 20
377.8912904536628
 30
0.0
 10
256.4106935225209
 20
378.0282904502019
 30
0.0
 10
254.9999935581582
 20
379.9999904003926
 30
0.0
  0
SPLINE
  5
8B
330
70
100
AcDbEntity
  8
Layer 1
 62
   250
420
  2301728
370
    18
100
AcDbSpline
210
0.0
220
0.0
230
1.0
 70
     9
 71
     3
 72
    14
 73
    10
 74
     0
 42
0.0000000001
 43
0.0000000001
 40
0.0
 40
0.0
 40
0.0
 40
0.0
 40
1.0
 40
1.0
 40
1.0
 40
2.0
 40
2.0
 40
2.0
 40
3.0
 40
3.0
 40
3.0
 40
3.0
 10
280.9999929013429
 20
376.9999904761789
 30
0.0
 10
283.3889928409917
 20
376.1580904974471
 30
0.0
 10
282.6448928597892
 20
376.5984904863217
 30
0.0
 10
283.9999928255565
 20
374.9999905267032
 30
0.0
 10
284.3332928171367
 20
374.6666905351231
 30
0.0
 10
284.6666928087143
 20
374.3332905435455
 30
0.0
 10
284.9999928002944
 20
373.9999905519653
 30
0.0
 10
282.315792868103
 20
374.8912905294492
 30
0.0
 10
282.4106928657057
 20
375.0282905259883
 30
0.0
 10
280.9999929013429
 20
376.9999904761789
 30
0.0
  0
SPLINE
  5
8C
330
70
100
AcDbEntity
  8
Layer 1
 62
   250
420
  2301728
370
    18
100
AcDbSpline
210
0.0
220
0.0
230
1.0
 70
     9
 71
     3
 72
    14
 73
    10
 74
     0
 42
0.0000000001
 43
0.0000000001
 40
0.0
 40
0.0
 40
0.0
 40
0.0
 40
1.0
 40
1.0
 40
1.0
 40
2.0
 40
2.0
 40
2.0
 40
3.0
 40
3.0
 40
3.0
 40
3.0
 10
262.9999933560612
 20
372.9999905772274
 30
0.0
 10
263.6665933392214
 20
372.9999905772274
 30
0.0
 10
264.3333933223766
 20
372.9999905772274
 30
0.0
 10
264.9999933055369
 20
372.9999905772274
 30
0.0
 10
264.9999933055369
 20
372.6666905856473
 30
0.0
 10
264.9999933055369
 20
372.3332905940697
 30
0.0
 10
264.9999933055369
 20
371.9999906024896
 30
0.0
 10
263.2458933498492
 20
372.6306905865568
 30
0.0
 10
264.0285933300765
 20
372.1928905976174
 30
0.0
 10
262.9999933560612
 20
372.9999905772274
 30
0.0
  0
SPLINE
  5
8D
330
70
100
AcDbEntity
  8
Layer 1
 62
   250
420
  2301728
370
    18
100
AcDbSpline
210
0.0
220
0.0
230
1.0
 70
     9
 71
     3
 72
    14
 73
    10
 74
     0
 42
0.0000000001
 43
0.0000000001
 40
0.0
 40
0.0
 40
0.0
 40
0.0
 40
1.0
 40
1.0
 40
1.0
 40
2.0
 40
2.0
 40
2.0
 40
3.0
 40
3.0
 40
3.0
 40
3.0
 10
288.9999926992459
 20
369.9999906530138
 30
0.0
 10
289.6665926824062
 20
369.9999906530138
 30
0.0
 10
290.3333926655614
 20
369.9999906530138
 30
0.0
 10
290.9999926487217
 20
369.9999906530138
 30
0.0
 10
290.9999926487217
 20
369.6666906614337
 30
0.0
 10
290.9999926487217
 20
369.3332906698561
 30
0.0
 10
290.9999926487217
 20
368.9999906782759
 30
0.0
 10
289.245892693034
 20
369.6306906623431
 30
0.0
 10
290.0285926732613
 20
369.1928906734029
 30
0.0
 10
288.9999926992459
 20
369.9999906530138
 30
0.0
  0
SPLINE
  5
8E
330
70
100
AcDbEntity
  8
Layer 1
 62
   250
420
  2301728
370
    18
100
AcDbSpline
210
0.0
220
0.0
230
1.0
 70
     9
 71
     3
 72
    11
 73
     7
 74
     0
 42
0.0000000001
 43
0.0000000001
 40
0.0
 40
0.0
 40
0.0
 40
0.0
 40
1.0
 40
1.0
 40
1.0
 40
2.0
 40
2.0
 40
2.0
 40
2.0
 10
290.9999926487217
 20
368.9999906782759
 30
0.0
 10
292.1156926205367
 20
367.3400907202085
 30
0.0
 10
292.7698926040102
 20
367.931390705271
 30
0.0
 10
290.9999926487217
 20
366.9999907288002
 30
0.0
 10
290.9999926487217
 20
367.6665907119605
 30
0.0
 10
290.9999926487217
 20
368.3333906951157
 30
0.0
 10
290.9999926487217
 20
368.9999906782759
 30
0.0
  0
SPLINE
  5
8F
330
70
100
AcDbEntity
  8
Layer 1
 62
   250
420
  2301728
370
    18
100
AcDbSpline
210
0.0
220
0.0
230
1.0
 70
     9
 71
     3
 72
    14
 73
    10
 74
     0
 42
0.0000000001
 43
0.0000000001
 40
0.0
 40
0.0
 40
0.0
 40
0.0
 40
1.0
 40
1.0
 40
1.0
 40
2.0
 40
2.0
 40
2.0
 40
3.0
 40
3.0
 40
3.0
 40
3.0
 10
268.9999932044884
 20
367.9999907035381
 30
0.0
 10
274.5947930631519
 20
366.2008907489871
 30
0.0
 10
293.186692593481
 20
351.1372911295257
 30
0.0
 10
294.9999925476732
 20
345.9999912593048
 30
0.0
 10
294.6666925560931
 20
345.9999912593048
 30
0.0
 10
294.3332925645155
 20
345.9999912593048
 30
0.0
 10
293.9999925729353
 20
345.9999912593048
 30
0.0
 10
287.0280927490603
 20
354.5988910420783
 30
0.0
 10
275.2803930458322
 20
358.4740909441825
 30
0.0
 10
268.9999932044884
 20
367.9999907035381
 30
0.0
  0
SPLINE
  5
90
330
70
100
AcDbEntity
  8
Layer 1
 62
   250
420
  2301728
370
    18
100
AcDbSpline
210
0.0
220
0.0
230
1.0
 70
     9
 71
     3
 72
    14
 73
    10
 74
     0
 42
0.0000000001
 43
0.0000000001
 40
0.0
 40
0.0
 40
0.0
 40
0.0
 40
1.0
 40
1.0
 40
1.0
 40
2.0
 40
2.0
 40
2.0
 40
3.0
 40
3.0
 40
3.0
 40
3.0
 10
156.9999960338464
 20
366.9999907288002
 30
0.0
 10
159.6841959660378
 20
366.1086907513163
 30
0.0
 10
159.5892959684352
 20
365.9716907547772
 30
0.0
 10
160.9999959327979
 20
363.9999908045866
 30
0.0
 10
161.333295924378
 20
363.6666908130064
 30
0.0
 10
161.6666959159556
 20
363.3332908214288
 30
0.0
 10
161.9999959075357
 20
362.9999908298487
 30
0.0
 10
159.0728959814805
 20
363.9465908059356
 30
0.0
 10
158.4888959962336
 20
364.7638907852888
 30
0.0
 10
156.9999960338464
 20
366.9999907288002
 30
0.0
  0
SPLINE
  5
91
330
70
100
AcDbEntity
  8
Layer 1
 62
   250
420
  2301728
370
    18
100
AcDbSpline
210
0.0
220
0.0
230
1.0
 70
     9
 71
     3
 72
    11
 73
     7
 74
     0
 42
0.0000000001
 43
0.0000000001
 40
0.0
 40
0.0
 40
0.0
 40
0.0
 40
1.0
 40
1.0
 40
1.0
 40
2.0
 40
2.0
 40
2.0
 40
2.0
 10
292.9999925981974
 20
366.9999907288002
 30
0.0
 10
296.4122925119955
 20
365.8976907566466
 30
0.0
 10
298.2669924651418
 20
363.7044908120515
 30
0.0
 10
299.9999924213625
 20
360.9999908803729
 30
0.0
 10
296.5876925075645
 20
362.1022908525274
 30
0.0
 10
294.7329925544181
 20
364.2954907971216
 30
0.0
 10
292.9999925981974
 20
366.9999907288002
 30
0.0
  0
SPLINE
  5
92
330
70
100
AcDbEntity
  8
Layer 1
 62
   250
420
  2301728
370
    18
100
AcDbSpline
210
0.0
220
0.0
230
1.0
 70
     9
 71
     3
 72
    14
 73
    10
 74
     0
 42
0.0000000001
 43
0.0000000001
 40
0.0
 40
0.0
 40
0.0
 40
0.0
 40
1.0
 40
1.0
 40
1.0
 40
2.0
 40
2.0
 40
2.0
 40
3.0
 40
3.0
 40
3.0
 40
3.0
 10
249.9999936844688
 20
364.9999907793244
 30
0.0
 10
257.8243934868078
 20
362.8785908329164
 30
0.0
 10
275.8067930325342
 20
346.4638912475857
 30
0.0
 10
279.999992926605
 20
339.9999914108776
 30
0.0
 10
279.3333929434448
 20
339.9999914108776
 30
0.0
 10
278.6665929602896
 20
339.9999914108776
 30
0.0
 10
277.9999929771293
 20
339.9999914108776
 30
0.0
 10
270.3110931713673
 20
349.6736911664994
 30
0.0
 10
257.0161935072247
 20
354.3637910480175
 30
0.0
 10
249.9999936844688
 20
364.9999907793244
 30
0.0
  0
SPLINE
  5
93
330
70
100
AcDbEntity
  8
Layer 1
 62
   250
420
  2301728
370
    18
100
AcDbSpline
210
0.0
220
0.0
230
1.0
 70
     9
 71
     3
 72
    38
 73
    34
 74
     0
 42
0.0000000001
 43
0.0000000001
 40
0.0
 40
0.0
 40
0.0
 40
0.0
 40
1.0
 40
1.0
 40
1.0
 40
2.0
 40
2.0
 40
2.0
 40
3.0
 40
3.0
 40
3.0
 40
4.0
 40
4.0
 40
4.0
 40
5.0
 40
5.0
 40
5.0
 40
6.0
 40
6.0
 40
6.0
 40
7.0
 40
7.0
 40
7.0
 40
8.0
 40
8.0
 40
8.0
 40
9.0
 40
9.0
 40
9.0
 40
10.0
 40
10.0
 40
10.0
 40
11.0
 40
11.0
 40
11.0
 40
11.0
 10
162.9999958822736
 20
361.9999908551108
 30
0.0
 10
171.3606956710646
 20
359.1976909259029
 30
0.0
 10
175.4531955676793
 20
351.5248911197341
 30
0.0
 10
181.9999954022932
 20
346.9999912340427
 30
0.0
 10
189.1449952217954
 20
342.0615913587972
 30
0.0
 10
196.2190950430886
 20
339.048391434917
 30
0.0
 10
202.9999948717887
 20
333.9999915624503
 30
0.0
 10
210.3325946865516
 20
326.6673917476873
 30
0.0
 10
217.667394501259
 20
319.33259193298
 30
0.0
 10
224.9999943160219
 20
311.999992118217
 30
0.0
 10
227.2086942602255
 20
310.397792158692
 30
0.0
 10
229.701694197247
 20
310.5900921538341
 30
0.0
 10
231.999994139187
 20
308.9999921940034
 30
0.0
 10
240.6657939202714
 20
300.33419241292
 30
0.0
 10
249.3341937012883
 20
291.6657926319022
 30
0.0
 10
257.9999934823718
 20
282.9999928508187
 30
0.0
 10
273.3308930950807
 20
271.4064931436951
 30
0.0
 10
292.5082926106188
 20
259.2724934502257
 30
0.0
 10
302.9999923455762
 20
242.9999938613037
 30
0.0
 10
302.3333923624159
 20
242.9999938613037
 30
0.0
 10
301.6665923792607
 20
242.9999938613037
 30
0.0
 10
300.9999923961004
 20
242.9999938613037
 30
0.0
 10
293.5906925832751
 20
252.3121936260577
 30
0.0
 10
277.8385929812066
 20
259.1881934523553
 30
0.0
 10
268.9999932044884
 20
267.9999932297505
 30
0.0
 10
245.5012937981164
 20
291.4273926379246
 30
0.0
 10
219.2555944611377
 20
311.2404921374036
 30
0.0
 10
192.9999951244099
 20
331.9999916129745
 30
0.0
 10
190.666895183349
 20
335.3329915287759
 30
0.0
 10
188.3330952423057
 20
338.666991444552
 30
0.0
 10
185.9999953012447
 20
341.9999913603533
 30
0.0
 10
178.6479954869719
 20
348.2846912015884
 30
0.0
 10
168.2543957495363
 20
353.7478910635764
 30
0.0
 10
162.9999958822736
 20
361.9999908551108
 30
0.0
  0
SPLINE
  5
94
330
70
100
AcDbEntity
  8
Layer 1
 62
   250
420
  2301728
370
    18
100
AcDbSpline
210
0.0
220
0.0
230
1.0
 70
     9
 71
     3
 72
    14
 73
    10
 74
     0
 42
0.0000000001
 43
0.0000000001
 40
0.0
 40
0.0
 40
0.0
 40
0.0
 40
1.0
 40
1.0
 40
1.0
 40
2.0
 40
2.0
 40
2.0
 40
3.0
 40
3.0
 40
3.0
 40
3.0
 10
321.9999918655958
 20
360.9999908803729
 30
0.0
 10
324.3889918052446
 20
360.1580909016411
 30
0.0
 10
323.6448918240421
 20
360.5984908905157
 30
0.0
 10
324.9999917898094
 20
358.9999909308972
 30
0.0
 10
325.3332917813896
 20
358.6666909393171
 30
0.0
 10
325.6666917729672
 20
358.3332909477395
 30
0.0
 10
325.9999917645473
 20
357.9999909561593
 30
0.0
 10
323.3157918323559
 20
358.8912909336432
 30
0.0
 10
323.4106918299585
 20
359.0282909301823
 30
0.0
 10
321.9999918655958
 20
360.9999908803729
 30
0.0
  0
SPLINE
  5
95
330
70
100
AcDbEntity
  8
Layer 1
 62
   250
420
  2301728
370
    18
100
AcDbSpline
210
0.0
220
0.0
230
1.0
 70
     9
 71
     3
 72
    14
 73
    10
 74
     0
 42
0.0000000001
 43
0.0000000001
 40
0.0
 40
0.0
 40
0.0
 40
0.0
 40
1.0
 40
1.0
 40
1.0
 40
2.0
 40
2.0
 40
2.0
 40
3.0
 40
3.0
 40
3.0
 40
3.0
 10
301.9999923708383
 20
358.9999909308972
 30
0.0
 10
302.9998923455787
 20
358.6666909393171
 30
0.0
 10
304.0000923203115
 20
358.3332909477395
 30
0.0
 10
304.9999922950519
 20
357.9999909561593
 30
0.0
 10
304.9999922950519
 20
357.6666909645792
 30
0.0
 10
304.9999922950519
 20
357.3332909730016
 30
0.0
 10
304.9999922950519
 20
356.9999909814214
 30
0.0
 10
302.6109923554031
 20
357.8418909601532
 30
0.0
 10
303.3550923366056
 20
357.4014909712787
 30
0.0
 10
301.9999923708383
 20
358.9999909308972
 30
0.0
  0
SPLINE
  5
96
330
70
100
AcDbEntity
  8
Layer 1
 62
   250
420
  2301728
370
    18
100
AcDbSpline
210
0.0
220
0.0
230
1.0
 70
     9
 71
     3
 72
    14
 73
    10
 74
     0
 42
0.0000000001
 43
0.0000000001
 40
0.0
 40
0.0
 40
0.0
 40
0.0
 40
1.0
 40
1.0
 40
1.0
 40
2.0
 40
2.0
 40
2.0
 40
3.0
 40
3.0
 40
3.0
 40
3.0
 10
325.9999917645473
 20
357.9999909561593
 30
0.0
 10
334.9801915376884
 20
355.6035910166975
 30
0.0
 10
352.2388911016969
 20
338.3212914532851
 30
0.0
 10
356.9999909814214
 20
330.9999916382367
 30
0.0
 10
356.3333909982612
 20
330.9999916382367
 30
0.0
 10
355.666591015106
 20
330.9999916382367
 30
0.0
 10
354.9999910319457
 20
330.9999916382367
 30
0.0
 10
347.3366912255369
 20
341.5346913721078
 30
0.0
 10
330.4805916513578
 20
344.1993913047918
 30
0.0
 10
325.9999917645473
 20
357.9999909561593
 30
0.0
  0
SPLINE
  5
97
330
70
100
AcDbEntity
  8
Layer 1
 62
   250
420
  2301728
370
    18
100
AcDbSpline
210
0.0
220
0.0
230
1.0
 70
     9
 71
     3
 72
    11
 73
     7
 74
     0
 42
0.0000000001
 43
0.0000000001
 40
0.0
 40
0.0
 40
0.0
 40
0.0
 40
1.0
 40
1.0
 40
1.0
 40
2.0
 40
2.0
 40
2.0
 40
2.0
 10
304.9999922950519
 20
356.9999909814214
 30
0.0
 10
306.115692266867
 20
355.340091023354
 30
0.0
 10
306.7698922503405
 20
355.9313910084165
 30
0.0
 10
304.9999922950519
 20
354.9999910319457
 30
0.0
 10
304.9999922950519
 20
355.666591015106
 30
0.0
 10
304.9999922950519
 20
356.3333909982612
 30
0.0
 10
304.9999922950519
 20
356.9999909814214
 30
0.0
  0
SPLINE
  5
98
330
70
100
AcDbEntity
  8
Layer 1
 62
   250
420
  2301728
370
    18
100
AcDbSpline
210
0.0
220
0.0
230
1.0
 70
     9
 71
     3
 72
    50
 73
    46
 74
     0
 42
0.0000000001
 43
0.0000000001
 40
0.0
 40
0.0
 40
0.0
 40
0.0
 40
1.0
 40
1.0
 40
1.0
 40
2.0
 40
2.0
 40
2.0
 40
3.0
 40
3.0
 40
3.0
 40
4.0
 40
4.0
 40
4.0
 40
5.0
 40
5.0
 40
5.0
 40
6.0
 40
6.0
 40
6.0
 40
7.0
 40
7.0
 40
7.0
 40
8.0
 40
8.0
 40
8.0
 40
9.0
 40
9.0
 40
9.0
 40
10.0
 40
10.0
 40
10.0
 40
11.0
 40
11.0
 40
11.0
 40
12.0
 40
12.0
 40
12.0
 40
13.0
 40
13.0
 40
13.0
 40
14.0
 40
14.0
 40
14.0
 40
15.0
 40
15.0
 40
15.0
 40
15.0
 10
128.9999967411859
 20
354.9999910319457
 30
0.0
 10
136.68089654715
 20
352.5044910949873
 30
0.0
 10
139.090196486286
 20
344.208091304572
 30
0.0
 10
144.9999963369919
 20
339.9999914108776
 30
0.0
 10
149.9599962116917
 20
336.4681915000983
 30
0.0
 10
156.1766960546447
 20
335.4850915249335
 30
0.0
 10
160.9999959327979
 20
331.9999916129745
 30
0.0
 10
168.3954957459718
 20
326.6562917479678
 30
0.0
 10
176.4601955422404
 20
318.5202919535004
 30
0.0
 10
182.9999953770311
 20
311.999992118217
 30
0.0
 10
184.8921953292301
 20
310.113492165874
 30
0.0
 10
185.5895953116123
 20
306.2971922622819
 30
0.0
 10
187.9999952507214
 20
304.9999922950519
 30
0.0
 10
192.1294951464006
 20
302.7775923511945
 30
0.0
 10
194.6674950822853
 20
303.4668923337813
 30
0.0
 10
197.9999949980993
 20
300.9999923961004
 30
0.0
 10
204.7919948265189
 20
295.9721925231134
 30
0.0
 10
209.1940947153134
 20
287.1424927461703
 30
0.0
 10
215.999994543381
 20
281.9999928760808
 30
0.0
 10
224.6366943251997
 20
275.4741930409364
 30
0.0
 10
239.1929939574766
 20
269.1166932015403
 30
0.0
 10
241.9999938865658
 20
256.9999935076339
 30
0.0
 10
241.3333939034064
 20
256.9999935076339
 30
0.0
 10
240.6665939202503
 20
256.9999935076339
 30
0.0
 10
239.99999393709
 20
256.9999935076339
 30
0.0
 10
238.1225939845172
 20
258.3220934742349
 30
0.0
 10
235.3007940558018
 20
257.7010934899226
 30
0.0
 10
232.9999941139249
 20
258.9999934571097
 30
0.0
 10
229.3336942065435
 20
262.9995933560713
 30
0.0
 10
225.6662942991898
 20
267.0003932550025
 30
0.0
 10
221.9999943918083
 20
270.9999931539642
 30
0.0
 10
214.7489945749839
 20
276.3030930199966
 30
0.0
 10
208.2405947394
 20
280.7079929087194
 30
0.0
 10
200.9999949223129
 20
285.9999927750323
 30
0.0
 10
195.6349950578442
 20
289.9211926759745
 30
0.0
 10
193.2886951171167
 20
298.3030924642299
 30
0.0
 10
187.9999952507214
 20
301.9999923708383
 30
0.0
 10
184.501695339095
 20
304.4453923090623
 30
0.0
 10
180.5257954395347
 20
304.6545923037775
 30
0.0
 10
176.9999955286039
 20
306.9999922445277
 30
0.0
 10
159.2166959778478
 20
318.8296919456843
 30
0.0
 10
144.0670963605589
 20
336.1821915073233
 30
0.0
 10
128.9999967411859
 20
350.9999911329942
 30
0.0
 10
128.9999967411859
 20
352.3331910993147
 30
0.0
 10
128.9999967411859
 20
353.6667910656252
 30
0.0
 10
128.9999967411859
 20
354.9999910319457
 30
0.0
  0
SPLINE
  5
99
330
70
100
AcDbEntity
  8
Layer 1
 62
   250
420
  2301728
370
    18
100
AcDbSpline
210
0.0
220
0.0
230
1.0
 70
     9
 71
     3
 72
    11
 73
     7
 74
     0
 42
0.0000000001
 43
0.0000000001
 40
0.0
 40
0.0
 40
0.0
 40
0.0
 40
1.0
 40
1.0
 40
1.0
 40
2.0
 40
2.0
 40
2.0
 40
2.0
 10
306.9999922445277
 20
354.9999910319457
 30
0.0
 10
307.9998922192681
 20
354.6666910403656
 30
0.0
 10
309.0000921940009
 20
354.333291048788
 30
0.0
 10
309.9999921687413
 20
353.9999910572078
 30
0.0
 10
308.7656921999224
 20
351.088591130756
 30
0.0
 10
308.6006922040906
 20
353.0992910799614
 30
0.0
 10
306.9999922445277
 20
354.9999910319457
 30
0.0
  0
SPLINE
  5
9A
330
70
100
AcDbEntity
  8
Layer 1
 62
   250
420
  2301728
370
    18
100
AcDbSpline
210
0.0
220
0.0
230
1.0
 70
     9
 71
     3
 72
    14
 73
    10
 74
     0
 42
0.0000000001
 43
0.0000000001
 40
0.0
 40
0.0
 40
0.0
 40
0.0
 40
1.0
 40
1.0
 40
1.0
 40
2.0
 40
2.0
 40
2.0
 40
3.0
 40
3.0
 40
3.0
 40
3.0
 10
241.9999938865658
 20
352.9999910824699
 30
0.0
 10
246.4151937750285
 20
351.5344911194916
 30
0.0
 10
252.5778936193455
 20
345.6693912676565
 30
0.0
 10
254.9999935581582
 20
341.9999913603533
 30
0.0
 10
254.3333935749979
 20
341.9999913603533
 30
0.0
 10
253.6665935918427
 20
341.9999913603533
 30
0.0
 10
252.9999936086824
 20
341.9999913603533
 30
0.0
 10
249.7395936910471
 20
346.0664912576249
 30
0.0
 10
244.9952938108982
 20
348.4440911975617
 30
0.0
 10
241.9999938865658
 20
352.9999910824699
 30
0.0
  0
SPLINE
  5
9B
330
70
100
AcDbEntity
  8
Layer 1
 62
   250
420
  2301728
370
    18
100
AcDbSpline
210
0.0
220
0.0
230
1.0
 70
     9
 71
     3
 72
    26
 73
    22
 74
     0
 42
0.0000000001
 43
0.0000000001
 40
0.0
 40
0.0
 40
0.0
 40
0.0
 40
1.0
 40
1.0
 40
1.0
 40
2.0
 40
2.0
 40
2.0
 40
3.0
 40
3.0
 40
3.0
 40
4.0
 40
4.0
 40
4.0
 40
5.0
 40
5.0
 40
5.0
 40
6.0
 40
6.0
 40
6.0
 40
7.0
 40
7.0
 40
7.0
 40
7.0
 10
222.9999943665462
 20
349.9999911582563
 30
0.0
 10
235.3768940538794
 20
346.0902912570237
 30
0.0
 10
244.4870938237364
 20
335.0565915357583
 30
0.0
 10
253.9999935834203
 20
327.999991714023
 30
0.0
 10
272.503793115975
 20
314.2738920607735
 30
0.0
 10
301.6200923804354
 20
290.9352926503562
 30
0.0
 10
313.9999920676928
 20
271.999993128702
 30
0.0
 10
313.3333920845325
 20
271.999993128702
 30
0.0
 10
312.6665921013773
 20
271.999993128702
 30
0.0
 10
311.999992118217
 20
271.999993128702
 30
0.0
 10
306.9720922452325
 20
278.9470929532035
 30
0.0
 10
297.0066924969797
 20
282.9214928528017
 30
0.0
 10
289.9999926739838
 20
287.999992724508
 30
0.0
 10
278.682092959898
 20
296.2031925172778
 30
0.0
 10
268.3672932204718
 20
306.4198922591822
 30
0.0
 10
256.9999935076339
 20
314.9999920424307
 30
0.0
 10
253.6669935918326
 20
318.6662919498122
 30
0.0
 10
250.3329936760565
 20
322.3336918571658
 30
0.0
 10
246.9999937602552
 20
325.9999917645473
 30
0.0
 10
238.5308939742026
 20
332.4073916026828
 30
0.0
 10
227.9898942404907
 20
340.3179914028442
 30
0.0
 10
222.9999943665462
 20
349.9999911582563
 30
0.0
  0
SPLINE
  5
9C
330
70
100
AcDbEntity
  8
Layer 1
 62
   250
420
  2301728
370
    18
100
AcDbSpline
210
0.0
220
0.0
230
1.0
 70
     9
 71
     3
 72
    11
 73
     7
 74
     0
 42
0.0000000001
 43
0.0000000001
 40
0.0
 40
0.0
 40
0.0
 40
0.0
 40
1.0
 40
1.0
 40
1.0
 40
2.0
 40
2.0
 40
2.0
 40
2.0
 10
315.9999920171685
 20
347.9999912087806
 30
0.0
 10
317.1156919889836
 20
346.3400912507132
 30
0.0
 10
317.7698919724571
 20
346.9313912357756
 30
0.0
 10
315.9999920171685
 20
345.9999912593048
 30
0.0
 10
315.9999920171685
 20
346.6665912424651
 30
0.0
 10
315.9999920171685
 20
347.3333912256203
 30
0.0
 10
315.9999920171685
 20
347.9999912087806
 30
0.0
  0
SPLINE
  5
9D
330
70
100
AcDbEntity
  8
Layer 1
 62
   250
420
  2301728
370
    18
100
AcDbSpline
210
0.0
220
0.0
230
1.0
 70
     9
 71
     3
 72
    35
 73
    31
 74
     0
 42
0.0000000001
 43
0.0000000001
 40
0.0
 40
0.0
 40
0.0
 40
0.0
 40
1.0
 40
1.0
 40
1.0
 40
2.0
 40
2.0
 40
2.0
 40
3.0
 40
3.0
 40
3.0
 40
4.0
 40
4.0
 40
4.0
 40
5.0
 40
5.0
 40
5.0
 40
6.0
 40
6.0
 40
6.0
 40
7.0
 40
7.0
 40
7.0
 40
8.0
 40
8.0
 40
8.0
 40
9.0
 40
9.0
 40
9.0
 40
10.0
 40
10.0
 40
10.0
 40
10.0
 10
158.9999959833221
 20
345.9999912593048
 30
0.0
 10
164.1357958535809
 20
345.1616912804821
 30
0.0
 10
178.294895495892
 20
336.560991497754
 30
0.0
 10
180.9999954275554
 20
332.9999915877124
 30
0.0
 10
182.9367953786277
 20
330.4503916521207
 30
0.0
 10
184.288095344491
 20
326.5858917497462
 30
0.0
 10
186.9999952759826
 20
324.9999917898094
 30
0.0
 10
188.9997952254634
 20
324.6666917982293
 30
0.0
 10
191.0001951749291
 20
324.3332918066517
 30
0.0
 10
192.9999951244099
 20
323.9999918150715
 30
0.0
 10
202.9329948734812
 20
316.6622920004375
 30
0.0
 10
210.0425946938776
 20
304.2275923145644
 30
0.0
 10
219.9999944423325
 20
296.9999924971489
 30
0.0
 10
231.4287941536168
 20
288.7043927067134
 30
0.0
 10
244.7395938173577
 20
280.3424929179528
 30
0.0
 10
251.9999936339445
 20
267.9999932297505
 30
0.0
 10
249.6668936928836
 20
267.9999932297505
 30
0.0
 10
247.3330937518404
 20
267.9999932297505
 30
0.0
 10
244.9999938107794
 20
267.9999932297505
 30
0.0
 10
232.1837941345439
 20
284.4556928140446
 30
0.0
 10
214.9845945690322
 20
295.5772925330894
 30
0.0
 10
197.9999949980993
 20
307.9999922192655
 30
0.0
 10
194.30629509141
 20
310.7015921510174
 30
0.0
 10
190.9042951773517
 20
318.9925919415691
 30
0.0
 10
187.9999952507214
 20
320.9999918908579
 30
0.0
 10
185.8358953053903
 20
322.4957918530709
 30
0.0
 10
183.095795374611
 20
321.6283918749832
 30
0.0
 10
180.9999954275554
 20
322.9999918403337
 30
0.0
 10
171.3501956713298
 20
329.3152916807958
 30
0.0
 10
164.3654958477782
 20
337.7889914667321
 30
0.0
 10
158.9999959833221
 20
345.9999912593048
 30
0.0
  0
SPLINE
  5
9E
330
70
100
AcDbEntity
  8
Layer 1
 62
   250
420
  2301728
370
    18
100
AcDbSpline
210
0.0
220
0.0
230
1.0
 70
     9
 71
     3
 72
    14
 73
    10
 74
     0
 42
0.0000000001
 43
0.0000000001
 40
0.0
 40
0.0
 40
0.0
 40
0.0
 40
1.0
 40
1.0
 40
1.0
 40
2.0
 40
2.0
 40
2.0
 40
3.0
 40
3.0
 40
3.0
 40
3.0
 10
317.9999919666443
 20
345.9999912593048
 30
0.0
 10
328.2014917089327
 20
344.6640912930525
 30
0.0
 10
350.9277911348181
 20
320.7067918982648
 30
0.0
 10
355.9999910066836
 20
312.9999920929549
 30
0.0
 10
355.3333910235233
 20
312.9999920929549
 30
0.0
 10
354.6665910403681
 20
312.9999920929549
 30
0.0
 10
353.9999910572078
 20
312.9999920929549
 30
0.0
 10
344.6789912926761
 20
325.8473917684023
 30
0.0
 10
322.810091845131
 20
328.6499916976027
 30
0.0
 10
317.9999919666443
 20
345.9999912593048
 30
0.0
  0
SPLINE
  5
9F
330
70
100
AcDbEntity
  8
Layer 1
 62
   250
420
  2301728
370
    18
100
AcDbSpline
210
0.0
220
0.0
230
1.0
 70
     9
 71
     3
 72
    23
 73
    19
 74
     0
 42
0.0000000001
 43
0.0000000001
 40
0.0
 40
0.0
 40
0.0
 40
0.0
 40
1.0
 40
1.0
 40
1.0
 40
2.0
 40
2.0
 40
2.0
 40
3.0
 40
3.0
 40
3.0
 40
4.0
 40
4.0
 40
4.0
 40
5.0
 40
5.0
 40
5.0
 40
6.0
 40
6.0
 40
6.0
 40
6.0
 10
254.9999935581582
 20
341.9999913603533
 30
0.0
 10
261.1430934029704
 20
338.077491459444
 30
0.0
 10
266.170993275955
 20
332.1041916103423
 30
0.0
 10
271.999993128702
 20
327.999991714023
 30
0.0
 10
291.8165926280926
 20
314.0473920664954
 30
0.0
 10
312.7340920996721
 20
301.2506923897672
 30
0.0
 10
325.9999917645473
 20
280.9999929013429
 30
0.0
 10
325.333391781387
 20
280.9999929013429
 30
0.0
 10
324.6665917982318
 20
280.9999929013429
 30
0.0
 10
323.9999918150715
 20
280.9999929013429
 30
0.0
 10
319.0419919403212
 20
287.2166927442959
 30
0.0
 10
310.6764921516515
 20
290.4153926634899
 30
0.0
 10
303.999992320314
 20
294.9999925476732
 30
0.0
 10
291.6831926314626
 20
303.4576923340137
 30
0.0
 10
280.6068929112734
 20
315.6054920271345
 30
0.0
 10
269.9999931792263
 20
325.9999917645473
 30
0.0
 10
265.0424933044633
 20
330.8581916418189
 30
0.0
 10
257.528293494288
 20
334.8891915399872
 30
0.0
 10
254.9999935581582
 20
341.9999913603533
 30
0.0
  0
SPLINE
  5
A0
330
70
100
AcDbEntity
  8
Layer 1
 62
   250
420
  2301728
370
    18
100
AcDbSpline
210
0.0
220
0.0
230
1.0
 70
     9
 71
     3
 72
    14
 73
    10
 74
     0
 42
0.0000000001
 43
0.0000000001
 40
0.0
 40
0.0
 40
0.0
 40
0.0
 40
1.0
 40
1.0
 40
1.0
 40
2.0
 40
2.0
 40
2.0
 40
3.0
 40
3.0
 40
3.0
 40
3.0
 10
306.9999922445277
 20
335.999991511926
 30
0.0
 10
317.3640919827085
 20
333.7221915694681
 30
0.0
 10
340.9973913856811
 20
312.2566921117323
 30
0.0
 10
343.9999913098291
 20
302.9999923455762
 30
0.0
 10
343.6666913182489
 20
302.9999923455762
 30
0.0
 10
343.3332913266713
 20
302.9999923455762
 30
0.0
 10
342.9999913350912
 20
302.9999923455762
 30
0.0
 10
333.4105915773398
 20
316.2553920107166
 30
0.0
 10
314.9496920437014
 20
319.113091938525
 30
0.0
 10
306.9999922445277
 20
335.999991511926
 30
0.0
  0
SPLINE
  5
A1
330
70
100
AcDbEntity
  8
Layer 1
 62
   250
420
  2301728
370
    18
100
AcDbSpline
210
0.0
220
0.0
230
1.0
 70
     9
 71
     3
 72
    11
 73
     7
 74
     0
 42
0.0000000001
 43
0.0000000001
 40
0.0
 40
0.0
 40
0.0
 40
0.0
 40
1.0
 40
1.0
 40
1.0
 40
2.0
 40
2.0
 40
2.0
 40
2.0
 10
356.9999909814214
 20
330.9999916382367
 30
0.0
 10
360.4122908952195
 20
329.8976916660831
 30
0.0
 10
362.2669908483658
 20
327.704491721488
 30
0.0
 10
363.9999908045866
 20
324.9999917898094
 30
0.0
 10
360.5876908907885
 20
326.102291761963
 30
0.0
 10
358.7329909376422
 20
328.2954917065581
 30
0.0
 10
356.9999909814214
 20
330.9999916382367
 30
0.0
  0
SPLINE
  5
A2
330
70
100
AcDbEntity
  8
Layer 1
 62
   250
420
  2301728
370
    18
100
AcDbSpline
210
0.0
220
0.0
230
1.0
 70
     9
 71
     3
 72
    14
 73
    10
 74
     0
 42
0.0000000001
 43
0.0000000001
 40
0.0
 40
0.0
 40
0.0
 40
0.0
 40
1.0
 40
1.0
 40
1.0
 40
2.0
 40
2.0
 40
2.0
 40
3.0
 40
3.0
 40
3.0
 40
3.0
 10
291.9999926234595
 20
329.9999916634988
 30
0.0
 10
307.4859922322503
 20
321.2730918839588
 30
0.0
 10
327.6019917240774
 20
305.3417922864174
 30
0.0
 10
336.9999914866639
 20
290.9999926487217
 30
0.0
 10
336.3333915035036
 20
290.9999926487217
 30
0.0
 10
335.6665915203485
 20
290.9999926487217
 30
0.0
 10
334.9999915371882
 20
290.9999926487217
 30
0.0
 10
324.0689918133285
 20
306.6941922522528
 30
0.0
 10
298.8687924499391
 20
309.8831921716919
 30
0.0
 10
291.9999926234595
 20
329.9999916634988
 30
0.0
  0
SPLINE
  5
A3
330
70
100
AcDbEntity
  8
Layer 1
 62
   250
420
  2301728
370
    18
100
AcDbSpline
210
0.0
220
0.0
230
1.0
 70
     9
 71
     3
 72
    35
 73
    31
 74
     0
 42
0.0000000001
 43
0.0000000001
 40
0.0
 40
0.0
 40
0.0
 40
0.0
 40
1.0
 40
1.0
 40
1.0
 40
2.0
 40
2.0
 40
2.0
 40
3.0
 40
3.0
 40
3.0
 40
4.0
 40
4.0
 40
4.0
 40
5.0
 40
5.0
 40
5.0
 40
6.0
 40
6.0
 40
6.0
 40
7.0
 40
7.0
 40
7.0
 40
8.0
 40
8.0
 40
8.0
 40
9.0
 40
9.0
 40
9.0
 40
10.0
 40
10.0
 40
10.0
 40
10.0
 10
136.9999965390889
 20
328.9999916887609
 30
0.0
 10
144.8627963404578
 20
326.5114917516257
 30
0.0
 10
173.0534956283008
 20
302.5349923573231
 30
0.0
 10
177.9999955033417
 20
295.999992522411
 30
0.0
 10
181.0384954265828
 20
291.9857926238183
 30
0.0
 10
184.8472953303644
 20
286.662892758286
 30
0.0
 10
188.9999952254584
 20
283.9999928255565
 30
0.0
 10
190.9997951749392
 20
283.6666928339764
 30
0.0
 10
193.0001951244048
 20
283.3332928423988
 30
0.0
 10
194.9999950738856
 20
282.9999928508187
 30
0.0
 10
204.0645948448946
 20
278.5912929621918
 30
0.0
 10
222.6285943759294
 20
260.3190934237864
 30
0.0
 10
226.9999942654977
 20
250.9999936592067
 30
0.0
 10
226.3333942823374
 20
250.9999936592067
 30
0.0
 10
225.6665942991822
 20
250.9999936592067
 30
0.0
 10
224.9999943160219
 20
250.9999936592067
 30
0.0
 10
217.4482945067939
 20
256.8698935109205
 30
0.0
 10
208.4471947341808
 20
260.385693422104
 30
0.0
 10
200.9999949223129
 20
265.9999932802748
 30
0.0
 10
196.1803950440662
 20
269.6333931884874
 30
0.0
 10
194.1587950951361
 20
275.7053930350958
 30
0.0
 10
189.9999952001962
 20
279.999992926605
 30
0.0
 10
183.7207953588222
 20
286.4841927628004
 30
0.0
 10
175.3881955693214
 20
290.5782926593747
 30
0.0
 10
167.999995755963
 20
295.999992522411
 30
0.0
 10
165.3335958233219
 20
298.6663924550521
 30
0.0
 10
162.6663958907011
 20
301.333592387673
 30
0.0
 10
159.99999595806
 20
303.999992320314
 30
0.0
 10
154.0038961095342
 20
308.4737922072964
 30
0.0
 10
135.6535965731018
 20
321.9348918672404
 30
0.0
 10
136.9999965390889
 20
328.9999916887609
 30
0.0
  0
SPLINE
  5
A4
330
70
100
AcDbEntity
  8
Layer 1
 62
   250
420
  2301728
370
    18
100
AcDbSpline
210
0.0
220
0.0
230
1.0
 70
     9
 71
     3
 72
    11
 73
     7
 74
     0
 42
0.0000000001
 43
0.0000000001
 40
0.0
 40
0.0
 40
0.0
 40
0.0
 40
1.0
 40
1.0
 40
1.0
 40
2.0
 40
2.0
 40
2.0
 40
2.0
 10
358.9999909308972
 20
309.9999921687413
 30
0.0
 10
362.4122908446953
 20
308.8976921965878
 30
0.0
 10
364.2669907978416
 20
306.7044922519926
 30
0.0
 10
365.9999907540623
 20
303.999992320314
 30
0.0
 10
362.5876908402643
 20
305.1022922924676
 30
0.0
 10
360.7329908871179
 20
307.2954922370627
 30
0.0
 10
358.9999909308972
 20
309.9999921687413
 30
0.0
  0
SPLINE
  5
A5
330
70
100
AcDbEntity
  8
Layer 1
 62
   250
420
  2301728
370
    18
100
AcDbSpline
210
0.0
220
0.0
230
1.0
 70
     9
 71
     3
 72
    32
 73
    28
 74
     0
 42
0.0000000001
 43
0.0000000001
 40
0.0
 40
0.0
 40
0.0
 40
0.0
 40
1.0
 40
1.0
 40
1.0
 40
2.0
 40
2.0
 40
2.0
 40
3.0
 40
3.0
 40
3.0
 40
4.0
 40
4.0
 40
4.0
 40
5.0
 40
5.0
 40
5.0
 40
6.0
 40
6.0
 40
6.0
 40
7.0
 40
7.0
 40
7.0
 40
8.0
 40
8.0
 40
8.0
 40
9.0
 40
9.0
 40
9.0
 40
9.0
 10
155.9999960591094
 20
291.9999926234595
 30
0.0
 10
162.023895906932
 20
290.3860926642301
 30
0.0
 10
162.8463958861539
 20
286.0245927744109
 30
0.0
 10
166.9999957812251
 20
282.9999928508187
 30
0.0
 10
173.2610956230564
 20
278.4407929659938
 30
0.0
 10
180.1194954497987
 20
275.8773930307507
 30
0.0
 10
185.9999953012447
 20
270.9999931539642
 30
0.0
 10
187.2468952697454
 20
269.9657931800903
 30
0.0
 10
186.8338952801787
 20
267.0498932537521
 30
0.0
 10
187.9999952507214
 20
265.9999932802748
 30
0.0
 10
190.3330951917815
 20
265.6666932886947
 30
0.0
 10
192.6668951328247
 20
265.3332932971171
 30
0.0
 10
194.9999950738856
 20
264.9999933055369
 30
0.0
 10
201.7705949028459
 20
260.7812934121103
 30
0.0
 10
207.4329947598017
 20
252.5624936197346
 30
0.0
 10
210.9999946696917
 20
244.9999938107794
 30
0.0
 10
210.3333946865314
 20
244.9999938107794
 30
0.0
 10
209.6665947033762
 20
244.9999938107794
 30
0.0
 10
208.9999947202159
 20
244.9999938107794
 30
0.0
 10
206.4748947840053
 20
247.320993752146
 30
0.0
 10
203.1026948691943
 20
247.0016937602122
 30
0.0
 10
199.999994947575
 20
248.9999937097309
 30
0.0
 10
195.5170950608226
 20
251.8871936367941
 30
0.0
 10
193.8472951030053
 20
257.7241934893391
 30
0.0
 10
189.9999952001962
 20
260.9999934065854
 30
0.0
 10
178.5587954892253
 20
270.7414931604944
 30
0.0
 10
164.261395850408
 20
279.2703929450363
 30
0.0
 10
155.9999960591094
 20
291.9999926234595
 30
0.0
  0
SPLINE
  5
A6
330
70
100
AcDbEntity
  8
Layer 1
 62
   250
420
  2301728
370
    18
100
AcDbSpline
210
0.0
220
0.0
230
1.0
 70
     9
 71
     3
 72
    14
 73
    10
 74
     0
 42
0.0000000001
 43
0.0000000001
 40
0.0
 40
0.0
 40
0.0
 40
0.0
 40
1.0
 40
1.0
 40
1.0
 40
2.0
 40
2.0
 40
2.0
 40
3.0
 40
3.0
 40
3.0
 40
3.0
 10
328.9999916887609
 20
277.9999929771293
 30
0.0
 10
331.3889916284097
 20
277.1580929983975
 30
0.0
 10
330.6448916472072
 20
277.598492987272
 30
0.0
 10
331.9999916129745
 20
275.9999930276535
 30
0.0
 10
332.3332916045547
 20
275.6666930360734
 30
0.0
 10
332.6666915961323
 20
275.3332930444958
 30
0.0
 10
332.9999915877124
 20
274.9999930529157
 30
0.0
 10
330.315791655521
 20
275.8912930303996
 30
0.0
 10
330.4106916531237
 20
276.0282930269386
 30
0.0
 10
328.9999916887609
 20
277.9999929771293
 30
0.0
  0
SPLINE
  5
A7
330
70
100
AcDbEntity
  8
Layer 1
 62
   250
420
  2301728
370
    18
100
AcDbSpline
210
0.0
220
0.0
230
1.0
 70
     9
 71
     3
 72
    11
 73
     7
 74
     0
 42
0.0000000001
 43
0.0000000001
 40
0.0
 40
0.0
 40
0.0
 40
0.0
 40
1.0
 40
1.0
 40
1.0
 40
2.0
 40
2.0
 40
2.0
 40
2.0
 10
313.9999920676928
 20
271.999993128702
 30
0.0
 10
315.1156920395079
 20
270.3400931706346
 30
0.0
 10
315.7698920229814
 20
270.9313931556971
 30
0.0
 10
313.9999920676928
 20
269.9999931792263
 30
0.0
 10
313.9999920676928
 20
270.6665931623866
 30
0.0
 10
313.9999920676928
 20
271.3333931455418
 30
0.0
 10
313.9999920676928
 20
271.999993128702
 30
0.0
  0
SPLINE
  5
A8
330
70
100
AcDbEntity
  8
Layer 1
 62
   250
420
  2301728
370
    18
100
AcDbSpline
210
0.0
220
0.0
230
1.0
 70
     9
 71
     3
 72
    14
 73
    10
 74
     0
 42
0.0000000001
 43
0.0000000001
 40
0.0
 40
0.0
 40
0.0
 40
0.0
 40
1.0
 40
1.0
 40
1.0
 40
2.0
 40
2.0
 40
2.0
 40
3.0
 40
3.0
 40
3.0
 40
3.0
 10
315.9999920171685
 20
269.9999931792263
 30
0.0
 10
318.68419194936
 20
269.1086932017424
 30
0.0
 10
318.5892919517574
 20
268.9716932052033
 30
0.0
 10
319.99999191612
 20
266.9999932550127
 30
0.0
 10
320.3332919077002
 20
266.6666932634325
 30
0.0
 10
320.6666918992778
 20
266.3332932718549
 30
0.0
 10
320.9999918908579
 20
265.9999932802748
 30
0.0
 10
318.0728919648027
 20
266.9465932563617
 30
0.0
 10
317.4888919795558
 20
267.7638932357149
 30
0.0
 10
315.9999920171685
 20
269.9999931792263
 30
0.0
  0
SPLINE
  5
A9
330
70
100
AcDbEntity
  8
Layer 1
 62
   250
420
  2301728
370
    18
100
AcDbSpline
210
0.0
220
0.0
230
1.0
 70
     9
 71
     3
 72
    20
 73
    16
 74
     0
 42
0.0000000001
 43
0.0000000001
 40
0.0
 40
0.0
 40
0.0
 40
0.0
 40
1.0
 40
1.0
 40
1.0
 40
2.0
 40
2.0
 40
2.0
 40
3.0
 40
3.0
 40
3.0
 40
4.0
 40
4.0
 40
4.0
 40
5.0
 40
5.0
 40
5.0
 40
5.0
 10
252.9999936086824
 20
267.9999932297505
 30
0.0
 10
255.0756935562458
 20
267.627993239148
 30
0.0
 10
254.9244935600655
 20
267.757993235864
 30
0.0
 10
255.999993532896
 20
266.9999932550127
 30
0.0
 10
265.6880932881541
 20
263.9583933318499
 30
0.0
 10
284.5894928106645
 20
244.9323938124871
 30
0.0
 10
288.9999926992459
 20
235.9999940381385
 30
0.0
 10
288.3333927160856
 20
235.9999940381385
 30
0.0
 10
287.6665927329304
 20
235.9999940381385
 30
0.0
 10
286.9999927497702
 20
235.9999940381385
 30
0.0
 10
284.1084928228156
 20
239.4850939500975
 30
0.0
 10
279.9157929287321
 20
239.4329939514137
 30
0.0
 10
275.9999930276535
 20
241.9999938865658
 30
0.0
 10
269.3612931953612
 20
246.351993776625
 30
0.0
 10
255.2116935528102
 20
259.7058934392771
 30
0.0
 10
252.9999936086824
 20
267.9999932297505
 30
0.0
  0
SPLINE
  5
AA
330
70
100
AcDbEntity
  8
Layer 1
 62
   250
420
  2301728
370
    18
100
AcDbSpline
210
0.0
220
0.0
230
1.0
 70
     9
 71
     3
 72
    14
 73
    10
 74
     0
 42
0.0000000001
 43
0.0000000001
 40
0.0
 40
0.0
 40
0.0
 40
0.0
 40
1.0
 40
1.0
 40
1.0
 40
2.0
 40
2.0
 40
2.0
 40
3.0
 40
3.0
 40
3.0
 40
3.0
 10
311.999992118217
 20
253.9999935834203
 30
0.0
 10
312.9998920929574
 20
253.6666935918402
 30
0.0
 10
314.0000920676903
 20
253.3332936002626
 30
0.0
 10
314.9999920424307
 20
252.9999936086824
 30
0.0
 10
314.9999920424307
 20
252.6666936171023
 30
0.0
 10
314.9999920424307
 20
252.3332936255247
 30
0.0
 10
314.9999920424307
 20
251.9999936339445
 30
0.0
 10
312.6109921027819
 20
252.8418936126763
 30
0.0
 10
313.3550920839843
 20
252.4014936238018
 30
0.0
 10
311.999992118217
 20
253.9999935834203
 30
0.0
  0
SPLINE
  5
AB
330
70
100
AcDbEntity
  8
Layer 1
 62
   250
420
  2301728
370
    18
100
AcDbSpline
210
0.0
220
0.0
230
1.0
 70
     9
 71
     3
 72
    14
 73
    10
 74
     0
 42
0.0000000001
 43
0.0000000001
 40
0.0
 40
0.0
 40
0.0
 40
0.0
 40
1.0
 40
1.0
 40
1.0
 40
2.0
 40
2.0
 40
2.0
 40
3.0
 40
3.0
 40
3.0
 40
3.0
 10
250.9999936592067
 20
248.9999937097309
 30
0.0
 10
259.9500934331081
 20
247.1269937570469
 30
0.0
 10
265.5623932913295
 20
241.4261939010612
 30
0.0
 10
268.9999932044884
 20
233.9999940886628
 30
0.0
 10
268.3333932213281
 20
233.9999940886628
 30
0.0
 10
267.6665932381729
 20
233.9999940886628
 30
0.0
 10
266.9999932550127
 20
233.9999940886628
 30
0.0
 10
260.261593425239
 20
240.2261939313758
 30
0.0
 10
256.1437935292634
 20
240.0666939354051
 30
0.0
 10
250.9999936592067
 20
248.9999937097309
 30
0.0
  0
SPLINE
  5
AC
330
70
100
AcDbEntity
  8
Layer 1
 62
   250
420
  2301728
370
    18
100
AcDbSpline
210
0.0
220
0.0
230
1.0
 70
     9
 71
     3
 72
    17
 73
    13
 74
     0
 42
0.0000000001
 43
0.0000000001
 40
0.0
 40
0.0
 40
0.0
 40
0.0
 40
1.0
 40
1.0
 40
1.0
 40
2.0
 40
2.0
 40
2.0
 40
3.0
 40
3.0
 40
3.0
 40
4.0
 40
4.0
 40
4.0
 40
4.0
 10
184.9999953265069
 20
247.999993734993
 30
0.0
 10
192.2514951433186
 20
245.8745937886852
 30
0.0
 10
195.3239950657007
 20
238.8416939663512
 30
0.0
 10
200.9999949223129
 20
234.9999940634007
 30
0.0
 10
200.9999949223129
 20
234.6666940718205
 30
0.0
 10
200.9999949223129
 20
234.3332940802429
 30
0.0
 10
200.9999949223129
 20
233.9999940886628
 30
0.0
 10
200.3333949391526
 20
233.9999940886628
 30
0.0
 10
199.6665949559974
 20
233.9999940886628
 30
0.0
 10
198.9999949728371
 20
233.9999940886628
 30
0.0
 10
194.3337950907153
 20
238.6661939707847
 30
0.0
 10
189.6661952086287
 20
243.3337938528712
 30
0.0
 10
184.9999953265069
 20
247.999993734993
 30
0.0
  0
SPLINE
  5
AD
330
70
100
AcDbEntity
  8
Layer 1
 62
   250
420
  2301728
370
    18
100
AcDbSpline
210
0.0
220
0.0
230
1.0
 70
     9
 71
     3
 72
    14
 73
    10
 74
     0
 42
0.0000000001
 43
0.0000000001
 40
0.0
 40
0.0
 40
0.0
 40
0.0
 40
1.0
 40
1.0
 40
1.0
 40
2.0
 40
2.0
 40
2.0
 40
3.0
 40
3.0
 40
3.0
 40
3.0
 10
320.9999918908579
 20
245.9999937855173
 30
0.0
 10
321.6665918740182
 20
245.9999937855173
 30
0.0
 10
322.3333918571734
 20
245.9999937855173
 30
0.0
 10
322.9999918403337
 20
245.9999937855173
 30
0.0
 10
322.9999918403337
 20
245.6666937939372
 30
0.0
 10
322.9999918403337
 20
245.3332938023596
 30
0.0
 10
322.9999918403337
 20
244.9999938107794
 30
0.0
 10
321.245891884646
 20
245.6306937948466
 30
0.0
 10
322.0285918648733
 20
245.1928938059063
 30
0.0
 10
320.9999918908579
 20
245.9999937855173
 30
0.0
  0
SPLINE
  5
AE
330
70
100
AcDbEntity
  8
Layer 1
 62
   250
420
  2301728
370
    18
100
AcDbSpline
210
0.0
220
0.0
230
1.0
 70
     9
 71
     3
 72
    14
 73
    10
 74
     0
 42
0.0000000001
 43
0.0000000001
 40
0.0
 40
0.0
 40
0.0
 40
0.0
 40
1.0
 40
1.0
 40
1.0
 40
2.0
 40
2.0
 40
2.0
 40
3.0
 40
3.0
 40
3.0
 40
3.0
 10
303.999992320314
 20
241.9999938865658
 30
0.0
 10
306.3889922599628
 20
241.158093907834
 30
0.0
 10
305.6448922787604
 20
241.5984938967085
 30
0.0
 10
306.9999922445277
 20
239.99999393709
 30
0.0
 10
307.3332922361078
 20
239.6666939455099
 30
0.0
 10
307.6666922276854
 20
239.3332939539323
 30
0.0
 10
307.9999922192655
 20
238.9999939623522
 30
0.0
 10
305.3157922870742
 20
239.8912939398361
 30
0.0
 10
305.4106922846768
 20
240.0282939363751
 30
0.0
 10
303.999992320314
 20
241.9999938865658
 30
0.0
  0
SPLINE
  5
AF
330
70
100
AcDbEntity
  8
Layer 1
 62
   250
420
  2301728
370
    18
100
AcDbSpline
210
0.0
220
0.0
230
1.0
 70
     9
 71
     3
 72
    14
 73
    10
 74
     0
 42
0.0000000001
 43
0.0000000001
 40
0.0
 40
0.0
 40
0.0
 40
0.0
 40
1.0
 40
1.0
 40
1.0
 40
2.0
 40
2.0
 40
2.0
 40
3.0
 40
3.0
 40
3.0
 40
3.0
 10
238.9999939623522
 20
239.99999393709
 30
0.0
 10
245.8977937880991
 20
238.0052939874804
 30
0.0
 10
251.9955936340557
 20
233.0307941131469
 30
0.0
 10
254.9999935581582
 20
226.9999942654977
 30
0.0
 10
254.0000935834178
 20
226.9999942654977
 30
0.0
 10
252.9998936086849
 20
226.9999942654977
 30
0.0
 10
251.9999936339445
 20
226.9999942654977
 30
0.0
 10
246.8808937632639
 20
231.3079941566684
 30
0.0
 10
242.6519938700949
 20
234.1843940840044
 30
0.0
 10
238.9999939623522
 20
239.99999393709
 30
0.0
  0
SPLINE
  5
B0
330
70
100
AcDbEntity
  8
Layer 1
 62
   250
420
  2301728
370
    18
100
AcDbSpline
210
0.0
220
0.0
230
1.0
 70
     9
 71
     3
 72
    11
 73
     7
 74
     0
 42
0.0000000001
 43
0.0000000001
 40
0.0
 40
0.0
 40
0.0
 40
0.0
 40
1.0
 40
1.0
 40
1.0
 40
2.0
 40
2.0
 40
2.0
 40
2.0
 10
200.9999949223129
 20
233.9999940886628
 30
0.0
 10
203.719794853605
 20
233.1228941108202
 30
0.0
 10
203.9384948480801
 20
232.2926941317928
 30
0.0
 10
205.9999947960023
 20
230.9999941644492
 30
0.0
 10
204.62569483072
 20
227.8652942436384
 30
0.0
 10
202.4696948851852
 20
231.6462941481223
 30
0.0
 10
200.9999949223129
 20
233.9999940886628
 30
0.0
  0
SPLINE
  5
B1
330
70
100
AcDbEntity
  8
Layer 1
 62
   250
420
  2301728
370
    18
100
AcDbSpline
210
0.0
220
0.0
230
1.0
 70
     9
 71
     3
 72
    14
 73
    10
 74
     0
 42
0.0000000001
 43
0.0000000001
 40
0.0
 40
0.0
 40
0.0
 40
0.0
 40
1.0
 40
1.0
 40
1.0
 40
2.0
 40
2.0
 40
2.0
 40
3.0
 40
3.0
 40
3.0
 40
3.0
 10
291.9999926234595
 20
232.9999941139249
 30
0.0
 10
292.6665926066198
 20
232.9999941139249
 30
0.0
 10
293.333392589775
 20
232.9999941139249
 30
0.0
 10
293.9999925729353
 20
232.9999941139249
 30
0.0
 10
293.9999925729353
 20
232.6666941223448
 30
0.0
 10
293.9999925729353
 20
232.3332941307672
 30
0.0
 10
293.9999925729353
 20
231.999994139187
 30
0.0
 10
292.2458926172476
 20
232.6306941232542
 30
0.0
 10
293.0285925974749
 20
232.192894134314
 30
0.0
 10
291.9999926234595
 20
232.9999941139249
 30
0.0
  0
SPLINE
  5
B2
330
70
100
AcDbEntity
  8
Layer 1
 62
   250
420
  2301728
370
    18
100
AcDbSpline
210
0.0
220
0.0
230
1.0
 70
     9
 71
     3
 72
    11
 73
     7
 74
     0
 42
0.0000000001
 43
0.0000000001
 40
0.0
 40
0.0
 40
0.0
 40
0.0
 40
1.0
 40
1.0
 40
1.0
 40
2.0
 40
2.0
 40
2.0
 40
2.0
 10
293.9999925729353
 20
231.999994139187
 30
0.0
 10
295.1156925447504
 20
230.3400941811196
 30
0.0
 10
295.7698925282238
 20
230.9313941661821
 30
0.0
 10
293.9999925729353
 20
229.9999941897113
 30
0.0
 10
293.9999925729353
 20
230.6665941728716
 30
0.0
 10
293.9999925729353
 20
231.3333941560268
 30
0.0
 10
293.9999925729353
 20
231.999994139187
 30
0.0
  0
SPLINE
  5
B3
330
70
100
AcDbEntity
  8
Layer 1
 62
   250
420
  2301728
370
    18
100
AcDbSpline
210
0.0
220
0.0
230
1.0
 70
     9
 71
     3
 72
    14
 73
    10
 74
     0
 42
0.0000000001
 43
0.0000000001
 40
0.0
 40
0.0
 40
0.0
 40
0.0
 40
1.0
 40
1.0
 40
1.0
 40
2.0
 40
2.0
 40
2.0
 40
3.0
 40
3.0
 40
3.0
 40
3.0
 10
228.9999942149734
 20
228.9999942149734
 30
0.0
 10
230.333194181294
 20
228.6666942233933
 30
0.0
 10
231.6667941476044
 20
228.3332942318157
 30
0.0
 10
232.9999941139249
 20
227.9999942402355
 30
0.0
 10
232.9999941139249
 20
227.3333942570753
 30
0.0
 10
232.9999941139249
 20
226.6665942739201
 30
0.0
 10
232.9999941139249
 20
225.9999942907598
 30
0.0
 10
230.3157941817344
 20
226.8912942682437
 30
0.0
 10
230.4106941793361
 20
227.0282942647828
 30
0.0
 10
228.9999942149734
 20
228.9999942149734
 30
0.0
  0
SPLINE
  5
B4
330
70
100
AcDbEntity
  8
Layer 1
 62
   250
420
  2301728
370
    18
100
AcDbSpline
210
0.0
220
0.0
230
1.0
 70
     9
 71
     3
 72
    14
 73
    10
 74
     0
 42
0.0000000001
 43
0.0000000001
 40
0.0
 40
0.0
 40
0.0
 40
0.0
 40
1.0
 40
1.0
 40
1.0
 40
2.0
 40
2.0
 40
2.0
 40
3.0
 40
3.0
 40
3.0
 40
3.0
 10
275.9999930276535
 20
227.9999942402355
 30
0.0
 10
280.0984929241167
 20
225.987594291073
 30
0.0
 10
283.6117928353633
 20
222.6999943741248
 30
0.0
 10
285.9999927750323
 20
218.9999944675947
 30
0.0
 10
285.333392791872
 20
218.9999944675947
 30
0.0
 10
284.6665928087168
 20
218.9999944675947
 30
0.0
 10
283.9999928255565
 20
218.9999944675947
 30
0.0
 10
281.5479928874993
 20
222.5833943770703
 30
0.0
 10
277.6287929865066
 20
223.6541943500197
 30
0.0
 10
275.9999930276535
 20
227.9999942402355
 30
0.0
  0
SPLINE
  5
B5
330
70
100
AcDbEntity
  8
Layer 1
 62
   250
420
  2301728
370
    18
100
AcDbSpline
210
0.0
220
0.0
230
1.0
 70
     9
 71
     3
 72
    17
 73
    13
 74
     0
 42
0.0000000001
 43
0.0000000001
 40
0.0
 40
0.0
 40
0.0
 40
0.0
 40
1.0
 40
1.0
 40
1.0
 40
2.0
 40
2.0
 40
2.0
 40
3.0
 40
3.0
 40
3.0
 40
4.0
 40
4.0
 40
4.0
 40
4.0
 10
258.9999934571097
 20
222.9999943665462
 30
0.0
 10
262.6969933637156
 20
222.1133943889435
 30
0.0
 10
263.8013933358161
 20
221.4597944054549
 30
0.0
 10
264.9999933055369
 20
217.9999944928568
 30
0.0
 10
265.3332932971171
 20
217.6666945012767
 30
0.0
 10
265.6666932886947
 20
217.3332945096991
 30
0.0
 10
265.9999932802748
 20
216.9999945181189
 30
0.0
 10
265.3333932971145
 20
216.9999945181189
 30
0.0
 10
264.6665933139593
 20
216.9999945181189
 30
0.0
 10
263.999993330799
 20
216.9999945181189
 30
0.0
 10
261.1086934038394
 20
219.38019445799
 30
0.0
 10
259.9346934334972
 20
218.2182944873421
 30
0.0
 10
258.9999934571097
 20
222.9999943665462
 30
0.0
  0
SPLINE
  5
B6
330
70
100
AcDbEntity
  8
Layer 1
 62
   250
420
  2301728
370
    18
100
AcDbSpline
210
0.0
220
0.0
230
1.0
 70
     9
 71
     3
 72
    14
 73
    10
 74
     0
 42
0.0000000001
 43
0.0000000001
 40
0.0
 40
0.0
 40
0.0
 40
0.0
 40
1.0
 40
1.0
 40
1.0
 40
2.0
 40
2.0
 40
2.0
 40
3.0
 40
3.0
 40
3.0
 40
3.0
 10
216.9999945181189
 20
219.9999944423325
 30
0.0
 10
219.9270944441741
 20
219.0533944662456
 30
0.0
 10
220.5110944294211
 20
218.2360944868924
 30
0.0
 10
221.9999943918083
 20
215.999994543381
 30
0.0
 10
222.3332943833884
 20
215.6666945518009
 30
0.0
 10
222.666694374966
 20
215.3332945602233
 30
0.0
 10
222.9999943665462
 20
214.9999945686432
 30
0.0
 10
219.8325944465614
 20
216.0190945428985
 30
0.0
 10
218.6006944776818
 20
217.5264945048184
 30
0.0
 10
216.9999945181189
 20
219.9999944423325
 30
0.0
  0
SPLINE
  5
B7
330
70
100
AcDbEntity
  8
Layer 1
 62
   250
420
  2301728
370
    18
100
AcDbSpline
210
0.0
220
0.0
230
1.0
 70
     9
 71
     3
 72
    17
 73
    13
 74
     0
 42
0.0000000001
 43
0.0000000001
 40
0.0
 40
0.0
 40
0.0
 40
0.0
 40
1.0
 40
1.0
 40
1.0
 40
2.0
 40
2.0
 40
2.0
 40
3.0
 40
3.0
 40
3.0
 40
4.0
 40
4.0
 40
4.0
 40
4.0
 10
239.99999393709
 20
218.9999944675947
 30
0.0
 10
242.5323938731162
 20
218.9260944694615
 30
0.0
 10
243.7163938432059
 20
218.8794944706387
 30
0.0
 10
244.9999938107794
 20
217.9999944928568
 30
0.0
 10
249.6225936940027
 20
216.492194530947
 30
0.0
 10
251.2057936540077
 20
213.3230946110052
 30
0.0
 10
252.9999936086824
 20
208.9999947202159
 30
0.0
 10
252.3333936255221
 20
208.9999947202159
 30
0.0
 10
251.6665936423669
 20
208.9999947202159
 30
0.0
 10
250.9999936592067
 20
208.9999947202159
 30
0.0
 10
246.5125937725679
 20
212.5599946302827
 30
0.0
 10
241.9995938865759
 20
212.7282946260311
 30
0.0
 10
239.99999393709
 20
218.9999944675947
 30
0.0
  0
SPLINE
  5
B8
330
70
100
AcDbEntity
  8
Layer 1
 62
   250
420
  2301728
370
    18
100
AcDbSpline
210
0.0
220
0.0
230
1.0
 70
     9
 71
     3
 72
    14
 73
    10
 74
     0
 42
0.0000000001
 43
0.0000000001
 40
0.0
 40
0.0
 40
0.0
 40
0.0
 40
1.0
 40
1.0
 40
1.0
 40
2.0
 40
2.0
 40
2.0
 40
3.0
 40
3.0
 40
3.0
 40
3.0
 10
287.999992724508
 20
216.9999945181189
 30
0.0
 10
288.6665927076683
 20
216.9999945181189
 30
0.0
 10
289.3333926908235
 20
216.9999945181189
 30
0.0
 10
289.9999926739838
 20
216.9999945181189
 30
0.0
 10
289.9999926739838
 20
216.6666945265388
 30
0.0
 10
289.9999926739838
 20
216.3332945349612
 30
0.0
 10
289.9999926739838
 20
215.999994543381
 30
0.0
 10
288.2458927182961
 20
216.6306945274482
 30
0.0
 10
289.0285926985234
 20
216.192894538508
 30
0.0
 10
287.999992724508
 20
216.9999945181189
 30
0.0
  0
SPLINE
  5
B9
330
70
100
AcDbEntity
  8
Layer 1
 62
   250
420
  2301728
370
    18
100
AcDbSpline
210
0.0
220
0.0
230
1.0
 70
     9
 71
     3
 72
    14
 73
    10
 74
     0
 42
0.0000000001
 43
0.0000000001
 40
0.0
 40
0.0
 40
0.0
 40
0.0
 40
1.0
 40
1.0
 40
1.0
 40
2.0
 40
2.0
 40
2.0
 40
3.0
 40
3.0
 40
3.0
 40
3.0
 10
222.9999943665462
 20
214.9999945686432
 30
0.0
 10
225.6841942987376
 20
214.1086945911593
 30
0.0
 10
225.589294301135
 20
213.9716945946202
 30
0.0
 10
226.9999942654977
 20
211.9999946444295
 30
0.0
 10
227.3332942570778
 20
211.6666946528494
 30
0.0
 10
227.6666942486554
 20
211.3332946612718
 30
0.0
 10
227.9999942402355
 20
210.9999946696917
 30
0.0
 10
225.0728943141803
 20
211.9465946457785
 30
0.0
 10
224.4888943289334
 20
212.7638946251318
 30
0.0
 10
222.9999943665462
 20
214.9999945686432
 30
0.0
  0
SPLINE
  5
BA
330
70
100
AcDbEntity
  8
Layer 1
 62
   250
420
  2301728
370
    18
100
AcDbSpline
210
0.0
220
0.0
230
1.0
 70
     9
 71
     3
 72
    14
 73
    10
 74
     0
 42
0.0000000001
 43
0.0000000001
 40
0.0
 40
0.0
 40
0.0
 40
0.0
 40
1.0
 40
1.0
 40
1.0
 40
2.0
 40
2.0
 40
2.0
 40
3.0
 40
3.0
 40
3.0
 40
3.0
 10
227.9999942402355
 20
210.9999946696917
 30
0.0
 10
229.3331942065561
 20
210.6666946781115
 30
0.0
 10
230.6667941728674
 20
210.3332946865339
 30
0.0
 10
231.999994139187
 20
209.9999946949538
 30
0.0
 10
231.999994139187
 20
209.3333947117935
 30
0.0
 10
231.999994139187
 20
208.6665947286383
 30
0.0
 10
231.999994139187
 20
207.999994745478
 30
0.0
 10
229.3157942069957
 20
208.8912947229619
 30
0.0
 10
229.4106942045983
 20
209.028294719501
 30
0.0
 10
227.9999942402355
 20
210.9999946696917
 30
0.0
  0
SPLINE
  5
BB
330
70
100
AcDbEntity
  8
Layer 1
 62
   250
420
  2301728
370
    18
100
AcDbSpline
210
0.0
220
0.0
230
1.0
 70
     9
 71
     3
 72
    14
 73
    10
 74
     0
 42
0.0000000001
 43
0.0000000001
 40
0.0
 40
0.0
 40
0.0
 40
0.0
 40
1.0
 40
1.0
 40
1.0
 40
2.0
 40
2.0
 40
2.0
 40
3.0
 40
3.0
 40
3.0
 40
3.0
 10
276.9999930023914
 20
206.9999947707402
 30
0.0
 10
283.2363928448467
 20
205.2323948153935
 30
0.0
 10
290.9713926494442
 20
200.0526949462437
 30
0.0
 10
292.9999925981974
 20
193.9999950991477
 30
0.0
 10
292.6666926066173
 20
193.9999950991477
 30
0.0
 10
292.3332926150397
 20
193.9999950991477
 30
0.0
 10
291.9999926234595
 20
193.9999950991477
 30
0.0
 10
286.5775927604409
 20
198.447394986797
 30
0.0
 10
280.8989929038944
 20
201.0363949213934
 30
0.0
 10
276.9999930023914
 20
206.9999947707402
 30
0.0
  0
SPLINE
  5
BC
330
70
100
AcDbEntity
  8
Layer 1
 62
   250
420
  2301728
370
    18
100
AcDbSpline
210
0.0
220
0.0
230
1.0
 70
     9
 71
     3
 72
    14
 73
    10
 74
     0
 42
0.0000000001
 43
0.0000000001
 40
0.0
 40
0.0
 40
0.0
 40
0.0
 40
1.0
 40
1.0
 40
1.0
 40
2.0
 40
2.0
 40
2.0
 40
3.0
 40
3.0
 40
3.0
 40
3.0
 10
264.9999933055369
 20
198.9999949728371
 30
0.0
 10
274.3939930682245
 20
194.0729950973036
 30
0.0
 10
279.5033929391502
 20
190.6432951839451
 30
0.0
 10
284.9999928002944
 20
181.9999954022932
 30
0.0
 10
284.3333928171341
 20
181.9999954022932
 30
0.0
 10
283.6665928339789
 20
181.9999954022932
 30
0.0
 10
282.9999928508187
 20
181.9999954022932
 30
0.0
 10
277.0297930016386
 20
189.3106952176094
 30
0.0
 10
268.3038932220734
 20
188.1189952477143
 30
0.0
 10
264.9999933055369
 20
198.9999949728371
 30
0.0
  0
SPLINE
  5
BD
330
70
100
AcDbEntity
  8
Layer 1
 62
   250
420
  2301728
370
    18
100
AcDbSpline
210
0.0
220
0.0
230
1.0
 70
     9
 71
     3
 72
    14
 73
    10
 74
     0
 42
0.0000000001
 43
0.0000000001
 40
0.0
 40
0.0
 40
0.0
 40
0.0
 40
1.0
 40
1.0
 40
1.0
 40
2.0
 40
2.0
 40
2.0
 40
3.0
 40
3.0
 40
3.0
 40
3.0
 10
248.9999937097309
 20
192.9999951244099
 30
0.0
 10
257.6660934908068
 20
190.2785951931582
 30
0.0
 10
263.6249933402723
 20
184.1102953489826
 30
0.0
 10
267.9999932297505
 20
176.9999955286039
 30
0.0
 10
267.3333932465903
 20
176.9999955286039
 30
0.0
 10
266.6665932634351
 20
176.9999955286039
 30
0.0
 10
265.9999932802748
 20
176.9999955286039
 30
0.0
 10
261.4876933942651
 20
183.225795371327
 30
0.0
 10
253.4101935983199
 20
186.3358952927592
 30
0.0
 10
248.9999937097309
 20
192.9999951244099
 30
0.0
  0
SPLINE
  5
BE
330
70
100
AcDbEntity
  8
Layer 1
 62
   250
420
  2301728
370
    18
100
AcDbSpline
210
0.0
220
0.0
230
1.0
 70
     9
 71
     3
 72
    14
 73
    10
 74
     0
 42
0.0000000001
 43
0.0000000001
 40
0.0
 40
0.0
 40
0.0
 40
0.0
 40
1.0
 40
1.0
 40
1.0
 40
2.0
 40
2.0
 40
2.0
 40
3.0
 40
3.0
 40
3.0
 40
3.0
 10
293.9999925729353
 20
192.9999951244099
 30
0.0
 10
294.6665925560956
 20
192.9999951244099
 30
0.0
 10
295.3333925392508
 20
192.9999951244099
 30
0.0
 10
295.999992522411
 20
192.9999951244099
 30
0.0
 10
295.999992522411
 20
192.6666951328297
 30
0.0
 10
295.999992522411
 20
192.3332951412522
 30
0.0
 10
295.999992522411
 20
191.999995149672
 30
0.0
 10
294.2458925667233
 20
192.6306951337392
 30
0.0
 10
295.0285925469507
 20
192.192895144799
 30
0.0
 10
293.9999925729353
 20
192.9999951244099
 30
0.0
  0
SPLINE
  5
BF
330
70
100
AcDbEntity
  8
Layer 1
 62
   250
420
  2301728
370
    18
100
AcDbSpline
210
0.0
220
0.0
230
1.0
 70
     9
 71
     3
 72
    14
 73
    10
 74
     0
 42
0.0000000001
 43
0.0000000001
 40
0.0
 40
0.0
 40
0.0
 40
0.0
 40
1.0
 40
1.0
 40
1.0
 40
2.0
 40
2.0
 40
2.0
 40
3.0
 40
3.0
 40
3.0
 40
3.0
 10
287.999992724508
 20
178.9999954780796
 30
0.0
 10
288.6665927076683
 20
178.9999954780796
 30
0.0
 10
289.3333926908235
 20
178.9999954780796
 30
0.0
 10
289.9999926739838
 20
178.9999954780796
 30
0.0
 10
289.9999926739838
 20
178.6666954864995
 30
0.0
 10
289.9999926739838
 20
178.3332954949219
 30
0.0
 10
289.9999926739838
 20
177.9999955033417
 30
0.0
 10
288.2458927182961
 20
178.6306954874089
 30
0.0
 10
289.0285926985234
 20
178.1928954984687
 30
0.0
 10
287.999992724508
 20
178.9999954780796
 30
0.0
  0
SPLINE
  5
C0
330
70
100
AcDbEntity
  8
Layer 1
 62
   250
420
  2301728
370
    18
100
AcDbSpline
210
0.0
220
0.0
230
1.0
 70
     9
 71
     3
 72
    14
 73
    10
 74
     0
 42
0.0000000001
 43
0.0000000001
 40
0.0
 40
0.0
 40
0.0
 40
0.0
 40
1.0
 40
1.0
 40
1.0
 40
2.0
 40
2.0
 40
2.0
 40
3.0
 40
3.0
 40
3.0
 40
3.0
 10
270.9999931539642
 20
173.9999956043902
 30
0.0
 10
271.9998931287046
 20
173.6666956128101
 30
0.0
 10
273.0000931034374
 20
173.3332956212325
 30
0.0
 10
273.9999930781778
 20
172.9999956296524
 30
0.0
 10
273.9999930781778
 20
172.6666956380722
 30
0.0
 10
273.9999930781778
 20
172.3332956464946
 30
0.0
 10
273.9999930781778
 20
171.9999956549145
 30
0.0
 10
271.610993138529
 20
172.8418956336463
 30
0.0
 10
272.3550931197315
 20
172.4014956447718
 30
0.0
 10
270.9999931539642
 20
173.9999956043902
 30
0.0
  0
LWPOLYLINE
  5
C1
330
70
100
AcDbEntity
  8
Layer 1
 62
   250
420
  2301728
370
    18
100
AcDbPolyline
 90
        4
 70
     1
 43
0.0
 10
439.7543456739531
 20
100.5321142460707
 10
55.56856085446998
 20
100.5321142460707
 10
55.56856085446998
 20
576.3306338614275
 10
439.7543456739531
 20
576.3306338614275
  0
ENDSEC
  0
SECTION
  2
OBJECTS
  0
DICTIONARY
  5
C
330
0
100
AcDbDictionary
281
     1
  3
ACAD_COLOR
350
63
  3
ACAD_DETAILVIEWSTYLE
350
6A
  3
ACAD_GROUP
350
D
  3
ACAD_LAYOUT
350
62
  3
ACAD_MATERIAL
350
10
  3
ACAD_MLEADERSTYLE
350
66
  3
ACAD_MLINESTYLE
350
5F
  3
ACAD_PLOTSETTINGS
350
61
  3
ACAD_PLOTSTYLENAME
350
E
  3
ACAD_SCALELIST
350
42
  3
ACAD_SECTIONVIEWSTYLE
350
68
  3
ACAD_TABLESTYLE
350
64
  3
ACAD_VISUALSTYLE
350
29
  3
ACDB_RECOMPOSE_DATA
350
CA
  3
AcDbVariableDictionary
350
C2
  0
DICTIONARY
  5
63
102
{ACAD_REACTORS
330
C
102
}
330
C
100
AcDbDictionary
281
     1
  0
DICTIONARY
  5
6A
102
{ACAD_REACTORS
330
C
102
}
330
C
100
AcDbDictionary
281
     1
  3
Imperial24
350
6B
  0
DICTIONARY
  5
D
102
{ACAD_REACTORS
330
C
102
}
330
C
100
AcDbDictionary
281
     1
  0
DICTIONARY
  5
62
102
{ACAD_REACTORS
330
C
102
}
330
C
100
AcDbDictionary
281
     1
  3
Layout1
350
6F
  3
Layout2
350
77
  3
Model
350
73
  0
DICTIONARY
  5
10
102
{ACAD_REACTORS
330
C
102
}
330
C
100
AcDbDictionary
281
     1
  3
ByBlock
350
19
  3
ByLayer
350
11
  3
Global
350
21
  0
DICTIONARY
  5
66
102
{ACAD_REACTORS
330
C
102
}
330
C
100
AcDbDictionary
281
     1
  3
Standard
350
67
  0
DICTIONARY
  5
5F
102
{ACAD_REACTORS
330
C
102
}
330
C
100
AcDbDictionary
281
     1
  3
Standard
350
60
  0
DICTIONARY
  5
61
102
{ACAD_REACTORS
330
C
102
}
330
C
100
AcDbDictionary
281
     1
  0
ACDBDICTIONARYWDFLT
  5
E
102
{ACAD_REACTORS
330
C
102
}
330
C
100
AcDbDictionary
281
     1
  3
Normal
350
F
100
AcDbDictionaryWithDefault
340
F
  0
DICTIONARY
  5
42
102
{ACAD_REACTORS
330
C
102
}
330
C
100
AcDbDictionary
281
     1
  3
A0
350
43
  3
A1
350
44
  3
A2
350
45
  3
A3
350
46
  3
A4
350
47
  3
A5
350
48
  3
A6
350
49
  3
A7
350
4A
  3
A8
350
4B
  3
A9
350
4C
  3
B0
350
4D
  3
B1
350
4E
  3
B2
350
4F
  3
B3
350
50
  3
B4
350
51
  3
B5
350
52
  3
B6
350
53
  0
DICTIONARY
  5
68
102
{ACAD_REACTORS
330
C
102
}
330
C
100
AcDbDictionary
281
     1
  3
Imperial24
350
69
  0
DICTIONARY
  5
64
102
{ACAD_REACTORS
330
C
102
}
330
C
100
AcDbDictionary
281
     1
  3
Standard
350
65
  0
DICTIONARY
  5
29
102
{ACAD_REACTORS
330
C
102
}
330
C
100
AcDbDictionary
281
     1
  3
2dWireframe
350
2F
  3
Basic
350
2E
  3
Brighten
350
35
  3
ColorChange
350
39
  3
Conceptual
350
32
  3
Dim
350
34
  3
EdgeColorOff
350
41
  3
Facepattern
350
38
  3
Flat
350
2A
  3
FlatWithEdges
350
2B
  3
Gouraud
350
2C
  3
GouraudWithEdges
350
2D
  3
Hidden
350
31
  3
JitterOff
350
3F
  3
Linepattern
350
37
  3
OverhangOff
350
40
  3
Realistic
350
33
  3
Shaded
350
3E
  3
Shaded with edges
350
3D
  3
Shades of Gray
350
3A
  3
Sketchy
350
3B
  3
Thicken
350
36
  3
Wireframe
350
30
  3
X-Ray
350
3C
  0
XRECORD
  5
CA
102
{ACAD_REACTORS
330
C
102
}
330
C
100
AcDbXrecord
280
     1
 90
        1
330
65
  0
DICTIONARY
  5
C2
102
{ACAD_REACTORS
330
C
102
}
330
C
100
AcDbDictionary
281
     1
  3
CANNOSCALE
350
C7
  3
CMLEADERSTYLE
350
C4
  3
CTABLESTYLE
350
C3
  3
CVIEWDETAILSTYLE
350
C5
  3
CVIEWSECTIONSTYLE
350
C6
  0
ACDBDETAILVIEWSTYLE
  5
6B
102
{ACAD_REACTORS
330
6A
102
}
330
6A
100
AcDbModelDocViewStyle
 70
     0
  3
Imperial24
290
     1
300
Imperial24
 90
        0
100
AcDbDetailViewStyle
 70
     0
 71
     0
 90
        3
 71
     1
340
55
 62
   256
 40
0.24
340
0
 62
   256
 40
0.24
300

 40
0.36
280
     3
 71
     2
340
5D
 90
       25
 62
   256
 71
     3
340
55
 62
   256
 40
0.24
 90
        1
 40
0.75
 90
        1
300
%<\AcVar ViewType \f "%tc1">% %<\AcVar ViewDetailId>%\PSCALE %<\AcVar ViewScale \f "%sn">%
 71
     4
340
5D
 90
       25
 62
   256
340
5D
 90
       25
 62
   256
280
     0
  0
LAYOUT
  5
6F
102
{ACAD_REACTORS
330
62
102
}
330
62
100
AcDbPlotSettings
  1

  2

  4

  6

 40
0.0
 41
0.0
 42
0.0
 43
0.0
 44
0.0
 45
0.0
 46
0.0
 47
0.0
 48
0.0
 49
0.0
140
0.0
141
0.0
142
1.0
143
1.0
 70
   688
 72
     0
 73
     0
 74
     5
  7

 75
    16
147
1.0
 76
     0
 77
     2
 78
   300
148
0.0
149
0.0
100
AcDbLayout
  1
Layout1
 70
     1
 71
     1
 10
0.0
 20
0.0
 11
12.0
 21
9.0
 12
0.0
 22
0.0
 32
0.0
 14
0.0
 24
0.0
 34
0.0
 15
0.0
 25
0.0
 35
0.0
146
0.0
 13
0.0
 23
0.0
 33
0.0
 16
1.0
 26
0.0
 36
0.0
 17
0.0
 27
1.0
 37
0.0
 76
     0
330
6C
  0
LAYOUT
  5
77
102
{ACAD_REACTORS
330
62
102
}
330
62
100
AcDbPlotSettings
  1

  2

  4

  6

 40
0.0
 41
0.0
 42
0.0
 43
0.0
 44
0.0
 45
0.0
 46
0.0
 47
0.0
 48
0.0
 49
0.0
140
0.0
141
0.0
142
1.0
143
1.0
 70
   688
 72
     0
 73
     0
 74
     5
  7

 75
    16
147
1.0
 76
     0
 77
     2
 78
   300
148
0.0
149
0.0
100
AcDbLayout
  1
Layout2
 70
     1
 71
     2
 10
0.0
 20
0.0
 11
12.0
 21
9.0
 12
0.0
 22
0.0
 32
0.0
 14
0.0
 24
0.0
 34
0.0
 15
0.0
 25
0.0
 35
0.0
146
0.0
 13
0.0
 23
0.0
 33
0.0
 16
1.0
 26
0.0
 36
0.0
 17
0.0
 27
1.0
 37
0.0
 76
     0
330
74
  0
LAYOUT
  5
73
102
{ACAD_REACTORS
330
62
102
}
330
62
100
AcDbPlotSettings
  1

  2

  4

  6

 40
0.0
 41
0.0
 42
0.0
 43
0.0
 44
0.0
 45
0.0
 46
0.0
 47
0.0
 48
0.0
 49
0.0
140
0.0
141
0.0
142
1.0
143
1.0
 70
  1712
 72
     0
 73
     0
 74
     0
  7

 75
     0
147
1.0
 76
     0
 77
     2
 78
   300
148
0.0
149
0.0
100
AcDbLayout
  1
Model
 70
     1
 71
     0
 10
0.0
 20
0.0
 11
12.0
 21
9.0
 12
0.0
 22
0.0
 32
0.0
 14
0.0
 24
0.0
 34
0.0
 15
0.0
 25
0.0
 35
0.0
146
0.0
 13
0.0
 23
0.0
 33
0.0
 16
1.0
 26
0.0
 36
0.0
 17
0.0
 27
1.0
 37
0.0
 76
     0
330
70
  0
MATERIAL
  5
19
102
{ACAD_XDICTIONARY
360
1A
102
}
102
{ACAD_REACTORS
330
10
102
}
330
10
100
AcDbMaterial
  1
ByBlock
 72
     0
 43
0.0208333333333333
 43
0.0
 43
0.0
 43
0.0
 43
0.0
 43
0.0208333333333333
 43
0.0
 43
0.0
 43
0.0
 43
0.0
 43
1.0
 43
0.0
 43
0.0
 43
0.0
 43
0.0
 43
1.0
 77
     0
 47
0.0208333333333333
 47
0.0
 47
0.0
 47
0.0
 47
0.0
 47
0.0208333333333333
 47
0.0
 47
0.0
 47
0.0
 47
0.0
 47
1.0
 47
0.0
 47
0.0
 47
0.0
 47
0.0
 47
1.0
171
     0
 49
0.0208333333333333
 49
0.0
 49
0.0
 49
0.0
 49
0.0
 49
0.0208333333333333
 49
0.0
 49
0.0
 49
0.0
 49
0.0
 49
1.0
 49
0.0
 49
0.0
 49
0.0
 49
0.0
 49
1.0
175
     0
142
0.0208333333333333
142
0.0
142
0.0
142
0.0
142
0.0
142
0.0208333333333333
142
0.0
142
0.0
142
0.0
142
0.0
142
1.0
142
0.0
142
0.0
142
0.0
142
0.0
142
1.0
179
     0
144
0.0208333333333333
144
0.0
144
0.0
144
0.0
144
0.0
144
0.0208333333333333
144
0.0
144
0.0
144
0.0
144
0.0
144
1.0
144
0.0
144
0.0
144
0.0
144
0.0
144
1.0
147
0.0208333333333333
147
0.0
147
0.0
147
0.0
147
0.0
147
0.0208333333333333
147
0.0
147
0.0
147
0.0
147
0.0
147
1.0
147
0.0
147
0.0
147
0.0
147
0.0
147
1.0
  0
MATERIAL
  5
11
102
{ACAD_XDICTIONARY
360
12
102
}
102
{ACAD_REACTORS
330
10
102
}
330
10
100
AcDbMaterial
  1
ByLayer
 72
     0
 43
0.0208333333333333
 43
0.0
 43
0.0
 43
0.0
 43
0.0
 43
0.0208333333333333
 43
0.0
 43
0.0
 43
0.0
 43
0.0
 43
1.0
 43
0.0
 43
0.0
 43
0.0
 43
0.0
 43
1.0
 77
     0
 47
0.0208333333333333
 47
0.0
 47
0.0
 47
0.0
 47
0.0
 47
0.0208333333333333
 47
0.0
 47
0.0
 47
0.0
 47
0.0
 47
1.0
 47
0.0
 47
0.0
 47
0.0
 47
0.0
 47
1.0
171
     0
 49
0.0208333333333333
 49
0.0
 49
0.0
 49
0.0
 49
0.0
 49
0.0208333333333333
 49
0.0
 49
0.0
 49
0.0
 49
0.0
 49
1.0
 49
0.0
 49
0.0
 49
0.0
 49
0.0
 49
1.0
175
     0
142
0.0208333333333333
142
0.0
142
0.0
142
0.0
142
0.0
142
0.0208333333333333
142
0.0
142
0.0
142
0.0
142
0.0
142
1.0
142
0.0
142
0.0
142
0.0
142
0.0
142
1.0
179
     0
144
0.0208333333333333
144
0.0
144
0.0
144
0.0
144
0.0
144
0.0208333333333333
144
0.0
144
0.0
144
0.0
144
0.0
144
1.0
144
0.0
144
0.0
144
0.0
144
0.0
144
1.0
147
0.0208333333333333
147
0.0
147
0.0
147
0.0
147
0.0
147
0.0208333333333333
147
0.0
147
0.0
147
0.0
147
0.0
147
1.0
147
0.0
147
0.0
147
0.0
147
0.0
147
1.0
  0
MATERIAL
  5
21
102
{ACAD_XDICTIONARY
360
22
102
}
102
{ACAD_REACTORS
330
10
102
}
330
10
100
AcDbMaterial
  1
Global
 72
     0
 43
0.0208333333333333
 43
0.0
 43
0.0
 43
0.0
 43
0.0
 43
0.0208333333333333
 43
0.0
 43
0.0
 43
0.0
 43
0.0
 43
1.0
 43
0.0
 43
0.0
 43
0.0
 43
0.0
 43
1.0
 77
     0
 47
0.0208333333333333
 47
0.0
 47
0.0
 47
0.0
 47
0.0
 47
0.0208333333333333
 47
0.0
 47
0.0
 47
0.0
 47
0.0
 47
1.0
 47
0.0
 47
0.0
 47
0.0
 47
0.0
 47
1.0
171
     0
 49
0.0208333333333333
 49
0.0
 49
0.0
 49
0.0
 49
0.0
 49
0.0208333333333333
 49
0.0
 49
0.0
 49
0.0
 49
0.0
 49
1.0
 49
0.0
 49
0.0
 49
0.0
 49
0.0
 49
1.0
175
     0
142
0.0208333333333333
142
0.0
142
0.0
142
0.0
142
0.0
142
0.0208333333333333
142
0.0
142
0.0
142
0.0
142
0.0
142
1.0
142
0.0
142
0.0
142
0.0
142
0.0
142
1.0
179
     0
144
0.0208333333333333
144
0.0
144
0.0
144
0.0
144
0.0
144
0.0208333333333333
144
0.0
144
0.0
144
0.0
144
0.0
144
1.0
144
0.0
144
0.0
144
0.0
144
0.0
144
1.0
147
0.0208333333333333
147
0.0
147
0.0
147
0.0
147
0.0
147
0.0208333333333333
147
0.0
147
0.0
147
0.0
147
0.0
147
1.0
147
0.0
147
0.0
147
0.0
147
0.0
147
1.0
  0
MLEADERSTYLE
  5
67
102
{ACAD_REACTORS
330
66
102
}
330
66
100
AcDbMLeaderStyle
179
     2
170
     2
171
     1
172
     0
 90
        2
 40
0.0
 41
0.0
173
     1
 91
-1056964608
340
5B
 92
       -2
290
     1
 42
0.09
291
     1
 43
0.36
  3
Standard
 44
0.18
300

342
55
174
     1
178
     6
175
     1
176
     0
 93
-1056964608
 45
0.18
292
     0
297
     0
 46
0.18
 94
-1056964608
 47
1.0
 49
1.0
140
1.0
293
     1
141
0.0
294
     1
177
     0
142
1.0
295
     1
296
     0
143
0.125
271
     0
272
     9
273
     9
298
     1
  0
MLINESTYLE
  5
60
102
{ACAD_REACTORS
330
5F
102
}
330
5F
100
AcDbMlineStyle
  2
STANDARD
 70
     0
  3

 62
   256
 51
90.0
 52
90.0
 71
     2
 49
0.5
 62
   256
  6
BYLAYER
 49
-0.5
 62
   256
  6
BYLAYER
  0
ACDBPLACEHOLDER
  5
F
102
{ACAD_REACTORS
330
E
102
}
330
E
  0
SCALE
  5
43
102
{ACAD_REACTORS
330
42
102
}
330
42
100
AcDbScale
 70
     0
300
1:1
140
1.0
141
1.0
290
     1
  0
SCALE
  5
44
102
{ACAD_REACTORS
330
42
102
}
330
42
100
AcDbScale
 70
     0
300
1/128" = 1'-0"
140
0.0078125
141
12.0
290
     0
  0
SCALE
  5
45
102
{ACAD_REACTORS
330
42
102
}
330
42
100
AcDbScale
 70
     0
300
1/64" = 1'-0"
140
0.015625
141
12.0
290
     0
  0
SCALE
  5
46
102
{ACAD_REACTORS
330
42
102
}
330
42
100
AcDbScale
 70
     0
300
1/32" = 1'-0"
140
0.03125
141
12.0
290
     0
  0
SCALE
  5
47
102
{ACAD_REACTORS
330
42
102
}
330
42
100
AcDbScale
 70
     0
300
1/16" = 1'-0"
140
0.0625
141
12.0
290
     0
  0
SCALE
  5
48
102
{ACAD_REACTORS
330
42
102
}
330
42
100
AcDbScale
 70
     0
300
3/32" = 1'-0"
140
0.09375
141
12.0
290
     0
  0
SCALE
  5
49
102
{ACAD_REACTORS
330
42
102
}
330
42
100
AcDbScale
 70
     0
300
1/8" = 1'-0"
140
0.125
141
12.0
290
     0
  0
SCALE
  5
4A
102
{ACAD_REACTORS
330
42
102
}
330
42
100
AcDbScale
 70
     0
300
3/16" = 1'-0"
140
0.1875
141
12.0
290
     0
  0
SCALE
  5
4B
102
{ACAD_REACTORS
330
42
102
}
330
42
100
AcDbScale
 70
     0
300
1/4" = 1'-0"
140
0.25
141
12.0
290
     0
  0
SCALE
  5
4C
102
{ACAD_REACTORS
330
42
102
}
330
42
100
AcDbScale
 70
     0
300
3/8" = 1'-0"
140
0.375
141
12.0
290
     0
  0
SCALE
  5
4D
102
{ACAD_REACTORS
330
42
102
}
330
42
100
AcDbScale
 70
     0
300
1/2" = 1'-0"
140
0.5
141
12.0
290
     0
  0
SCALE
  5
4E
102
{ACAD_REACTORS
330
42
102
}
330
42
100
AcDbScale
 70
     0
300
3/4" = 1'-0"
140
0.75
141
12.0
290
     0
  0
SCALE
  5
4F
102
{ACAD_REACTORS
330
42
102
}
330
42
100
AcDbScale
 70
     0
300
1" = 1'-0"
140
1.0
141
12.0
290
     0
  0
SCALE
  5
50
102
{ACAD_REACTORS
330
42
102
}
330
42
100
AcDbScale
 70
     0
300
1-1/2" = 1'-0"
140
1.5
141
12.0
290
     0
  0
SCALE
  5
51
102
{ACAD_REACTORS
330
42
102
}
330
42
100
AcDbScale
 70
     0
300
3" = 1'-0"
140
3.0
141
12.0
290
     0
  0
SCALE
  5
52
102
{ACAD_REACTORS
330
42
102
}
330
42
100
AcDbScale
 70
     0
300
6" = 1'-0"
140
6.0
141
12.0
290
     0
  0
SCALE
  5
53
102
{ACAD_REACTORS
330
42
102
}
330
42
100
AcDbScale
 70
     0
300
1'-0" = 1'-0"
140
12.0
141
12.0
290
     0
  0
ACDBSECTIONVIEWSTYLE
  5
69
102
{ACAD_REACTORS
330
68
102
}
330
68
100
AcDbModelDocViewStyle
 70
     0
  3
Imperial24
290
     1
300
Imperial24
 90
        0
100
AcDbSectionViewStyle
 70
     0
 71
     0
 90
       78
 71
     1
340
55
 62
   256
 40
0.24
340
0
340
0
 62
   256
 40
0.24
300
I, O, Q, S, X, Z
 40
0.48
 90
        3
 40
0.18
 90
        1
 71
     2
340
5D
 90
       25
 62
   256
340
5D
 90
       50
 62
   256
 40
0.24
 40
0.0
 40
0.24
 71
     3
340
55
 62
   256
 40
0.24
 90
        1
 40
0.75
 90
        1
300
%<\AcVar ViewType \f "%tc1">% %<\AcVar ViewSectionStartId>%-%<\AcVar ViewSectionEndId>%\PSCALE %<\AcVar ViewScale \f "%sn">%
 71
     4
 62
   256
 62
   257
300
ANSI31
 40
1.0
 90
        0
290
     0
290
     0
 90
        6
 40
0.0
 40
1.570796326794896
 40
0.2617993877991494
 40
1.308996938995747
 40
-0.2617993877991494
 40
1.832595714594046
  0
TABLESTYLE
  5
65
102
{ACAD_XDICTIONARY
360
C8
102
}
102
{ACAD_REACTORS
330
64
102
}
330
64
100
AcDbTableStyle
280
     0
  3
Standard
 70
     0
 71
     0
 40
0.06
 41
0.06
280
     0
281
     0
  7
Standard
140
0.18
170
     2
 62
     0
 63
     7
283
     0
 90
      512
 91
        0
  1

274
    -2
284
     1
 64
     0
275
    -2
285
     1
 65
     0
276
    -2
286
     1
 66
     0
277
    -2
287
     1
 67
     0
278
    -2
288
     1
 68
     0
279
    -2
289
     1
 69
     0
  7
Standard
140
0.25
170
     5
 62
     0
 63
     7
283
     0
 90
      512
 91
        0
  1

274
    -2
284
     1
 64
     0
275
    -2
285
     1
 65
     0
276
    -2
286
     1
 66
     0
277
    -2
287
     1
 67
     0
278
    -2
288
     1
 68
     0
279
    -2
289
     1
 69
     0
  7
Standard
140
0.18
170
     5
 62
     0
 63
     7
283
     0
 90
      512
 91
        0
  1

274
    -2
284
     1
 64
     0
275
    -2
285
     1
 65
     0
276
    -2
286
     1
 66
     0
277
    -2
287
     1
 67
     0
278
    -2
288
     1
 68
     0
279
    -2
289
     1
 69
     0
  0
VISUALSTYLE
  5
2F
102
{ACAD_REACTORS
330
29
102
}
330
29
100
AcDbVisualStyle
  2
2dWireframe
 70
     4
177
     3
291
     0
 70
    58
 90
        0
176
     1
 90
        2
176
     1
 90
        0
176
     1
 90
        0
176
     1
 40
0.6
176
     1
 40
30.0
176
     1
 62
     7
420
 16777215
176
     1
 90
        1
176
     1
 90
        4
176
     1
 62
     7
176
     1
 62
   257
176
     1
 90
        1
176
     1
 90
        1
176
     1
 40
1.0
176
     1
 90
        0
176
     1
 62
   257
176
     1
 40
1.0
176
     1
 90
        1
176
     1
 90
        6
176
     1
 90
        2
176
     1
 62
     7
176
     1
 90
        5
176
     1
 90
        0
176
     1
 90
        0
176
     1
290
     0
176
     1
 90
        1
176
     1
 40
0.0
176
     1
 90
        0
176
     1
290
     1
176
     1
290
     1
176
     1
290
     0
176
     1
290
     0
176
     1
290
     0
176
     1
290
     0
176
     1
290
     0
176
     1
290
     0
176
     1
290
     0
176
     1
 90
       50
176
     1
 40
0.0
176
     1
 40
1.0
176
     1
 90
        0
176
     1
 62
    18
420
        0
176
     1
 90
       50
176
     1
 90
        3
176
     1
 62
     5
420
      255
176
     1
290
     0
176
     1
 90
       50
176
     1
 90
       50
176
     1
 90
       50
176
     1
290
     0
176
     1
 90
       50
176
     1
 62
   256
176
     0
 40
1.0
176
     0
 90
        2
176
     1
  1
strokes_ogs.tif
176
     1
290
     0
176
     1
 40
1.0
176
     1
 40
1.0
176
     1
  0
VISUALSTYLE
  5
2E
102
{ACAD_REACTORS
330
29
102
}
330
29
100
AcDbVisualStyle
  2
Basic
 70
     7
177
     3
291
     1
 70
    58
 90
        1
176
     1
 90
        0
176
     1
 90
        1
176
     1
 90
        0
176
     1
 40
0.6
176
     1
 40
30.0
176
     1
 62
     7
420
 16777215
176
     1
 90
        0
176
     1
 90
        4
176
     1
 62
     7
176
     1
 62
   257
176
     1
 90
        1
176
     1
 90
        1
176
     1
 40
1.0
176
     1
 90
        8
176
     1
 62
     7
176
     1
 40
1.0
176
     1
 90
        1
176
     1
 90
        6
176
     1
 90
        2
176
     1
 62
     7
176
     1
 90
        5
176
     1
 90
        0
176
     1
 90
        0
176
     1
290
     0
176
     1
 90
        1
176
     1
 40
0.0
176
     1
 90
        0
176
     1
290
     0
176
     1
290
     1
176
     1
290
     1
176
     1
290
     0
176
     1
290
     0
176
     1
290
     0
176
     1
290
     0
176
     1
290
     0
176
     1
290
     0
176
     1
 90
       50
176
     1
 40
0.0
176
     1
 40
1.0
176
     1
 90
        0
176
     1
 62
    18
420
        0
176
     1
 90
       50
176
     1
 90
        3
176
     1
 62
     5
420
      255
176
     1
290
     0
176
     1
 90
       50
176
     1
 90
       50
176
     1
 90
       50
176
     1
290
     0
176
     1
 90
       50
176
     1
 62
   256
176
     0
 40
1.0
176
     0
 90
        2
176
     1
  1
strokes_ogs.tif
176
     1
290
     0
176
     1
 40
1.0
176
     1
 40
1.0
176
     1
  0
VISUALSTYLE
  5
35
102
{ACAD_REACTORS
330
29
102
}
330
29
100
AcDbVisualStyle
  2
Brighten
 70
    12
177
     3
291
     1
 70
    58
 90
        2
176
     1
 90
        2
176
     1
 90
        0
176
     1
 90
        0
176
     1
 40
0.6
176
     1
 40
30.0
176
     1
 62
     7
420
 16777215
176
     1
 90
        1
176
     1
 90
        4
176
     1
 62
     7
176
     1
 62
   257
176
     1
 90
        1
176
     1
 90
        1
176
     1
 40
1.0
176
     1
 90
        8
176
     1
 62
     7
176
     1
 40
1.0
176
     1
 90
        1
176
     1
 90
        6
176
     1
 90
        2
176
     1
 62
     7
176
     1
 90
        5
176
     1
 90
        0
176
     1
 90
        0
176
     1
290
     0
176
     1
 90
        1
176
     1
 40
50.0
176
     1
 90
        0
176
     1
290
     0
176
     1
290
     1
176
     1
290
     1
176
     1
290
     0
176
     1
290
     0
176
     1
290
     0
176
     1
290
     0
176
     1
290
     0
176
     1
290
     0
176
     1
 90
       50
176
     1
 40
0.0
176
     1
 40
1.0
176
     1
 90
        0
176
     1
 62
    18
420
        0
176
     1
 90
       50
176
     1
 90
        3
176
     1
 62
     5
420
      255
176
     1
290
     0
176
     1
 90
       50
176
     1
 90
       50
176
     1
 90
       50
176
     1
290
     0
176
     1
 90
       50
176
     1
 62
   256
176
     0
 40
1.0
176
     0
 90
        2
176
     1
  1
strokes_ogs.tif
176
     1
290
     0
176
     1
 40
1.0
176
     1
 40
1.0
176
     1
  0
VISUALSTYLE
  5
39
102
{ACAD_REACTORS
330
29
102
}
330
29
100
AcDbVisualStyle
  2
ColorChange
 70
    16
177
     3
291
     1
 70
    58
 90
        2
176
     1
 90
        2
176
     1
 90
        3
176
     1
 90
        0
176
     1
 40
0.6
176
     1
 40
30.0
176
     1
 62
     8
420
  8421504
176
     1
 90
        1
176
     1
 90
        4
176
     1
 62
     7
176
     1
 62
   257
176
     1
 90
        1
176
     1
 90
        1
176
     1
 40
1.0
176
     1
 90
        8
176
     1
 62
     8
420
  8421504
176
     1
 40
1.0
176
     1
 90
        1
176
     1
 90
        6
176
     1
 90
        2
176
     1
 62
     7
176
     1
 90
        5
176
     1
 90
        0
176
     1
 90
        0
176
     1
290
     0
176
     1
 90
        1
176
     1
 40
0.0
176
     1
 90
        0
176
     1
290
     0
176
     1
290
     1
176
     1
290
     1
176
     1
290
     0
176
     1
290
     0
176
     1
290
     0
176
     1
290
     0
176
     1
290
     0
176
     1
290
     0
176
     1
 90
       50
176
     1
 40
0.0
176
     1
 40
1.0
176
     1
 90
        0
176
     1
 62
    18
420
        0
176
     1
 90
       50
176
     1
 90
        3
176
     1
 62
     5
420
      255
176
     1
290
     0
176
     1
 90
       50
176
     1
 90
       50
176
     1
 90
       50
176
     1
290
     0
176
     1
 90
       50
176
     1
 62
   256
176
     0
 40
1.0
176
     0
 90
        2
176
     1
  1
strokes_ogs.tif
176
     1
290
     0
176
     1
 40
1.0
176
     1
 40
1.0
176
     1
  0
VISUALSTYLE
  5
32
102
{ACAD_REACTORS
330
29
102
}
330
29
100
AcDbVisualStyle
  2
Conceptual
 70
     9
177
     3
291
     0
 70
    58
 90
        3
176
     1
 90
        2
176
     1
 90
        0
176
     1
 90
        0
176
     1
 40
0.6
176
     1
 40
30.0
176
     1
 62
     7
420
 16777215
176
     1
 90
        2
176
     1
 90
        2
176
     1
 62
     7
176
     1
 62
   257
176
     1
 90
        1
176
     1
 90
        1
176
     1
 40
179.0
176
     1
 90
        8
176
     1
 62
     7
176
     1
 40
1.0
176
     1
 90
        1
176
     1
 90
        6
176
     1
 90
        2
176
     1
 62
     7
176
     1
 90
        3
176
     1
 90
        0
176
     1
 90
        0
176
     1
290
     0
176
     1
 90
        1
176
     1
 40
0.0
176
     1
 90
        0
176
     1
290
     0
176
     1
290
     1
176
     1
290
     1
176
     1
290
     0
176
     1
290
     0
176
     1
290
     0
176
     1
290
     0
176
     1
290
     0
176
     1
290
     0
176
     1
 90
       50
176
     1
 40
0.0
176
     1
 40
1.0
176
     1
 90
        0
176
     1
 62
    18
420
        0
176
     1
 90
       50
176
     1
 90
        3
176
     1
 62
     5
420
      255
176
     1
290
     0
176
     1
 90
       50
176
     1
 90
       50
176
     1
 90
       50
176
     1
290
     0
176
     1
 90
       50
176
     1
 62
   256
176
     0
 40
1.0
176
     0
 90
        2
176
     1
  1
strokes_ogs.tif
176
     1
290
     0
176
     1
 40
1.0
176
     1
 40
1.0
176
     1
  0
VISUALSTYLE
  5
34
102
{ACAD_REACTORS
330
29
102
}
330
29
100
AcDbVisualStyle
  2
Dim
 70
    11
177
     3
291
     1
 70
    58
 90
        2
176
     1
 90
        2
176
     1
 90
        0
176
     1
 90
        0
176
     1
 40
0.6
176
     1
 40
30.0
176
     1
 62
     7
420
 16777215
176
     1
 90
        1
176
     1
 90
        4
176
     1
 62
     7
176
     1
 62
   257
176
     1
 90
        1
176
     1
 90
        1
176
     1
 40
1.0
176
     1
 90
        8
176
     1
 62
     7
176
     1
 40
1.0
176
     1
 90
        1
176
     1
 90
        6
176
     1
 90
        2
176
     1
 62
     7
176
     1
 90
        5
176
     1
 90
        0
176
     1
 90
        0
176
     1
290
     0
176
     1
 90
        1
176
     1
 40
-50.0
176
     1
 90
        0
176
     1
290
     0
176
     1
290
     1
176
     1
290
     1
176
     1
290
     0
176
     1
290
     0
176
     1
290
     0
176
     1
290
     0
176
     1
290
     0
176
     1
290
     0
176
     1
 90
       50
176
     1
 40
0.0
176
     1
 40
1.0
176
     1
 90
        0
176
     1
 62
    18
420
        0
176
     1
 90
       50
176
     1
 90
        3
176
     1
 62
     5
420
      255
176
     1
290
     0
176
     1
 90
       50
176
     1
 90
       50
176
     1
 90
       50
176
     1
290
     0
176
     1
 90
       50
176
     1
 62
   256
176
     0
 40
1.0
176
     0
 90
        2
176
     1
  1
strokes_ogs.tif
176
     1
290
     0
176
     1
 40
1.0
176
     1
 40
1.0
176
     1
  0
VISUALSTYLE
  5
41
102
{ACAD_REACTORS
330
29
102
}
330
29
100
AcDbVisualStyle
  2
EdgeColorOff
 70
    22
177
     3
291
     1
 70
    58
 90
        2
176
     0
 90
        2
176
     0
 90
        0
176
     0
 90
        0
176
     0
 40
0.6
176
     0
 40
30.0
176
     0
 62
     7
420
 16777215
176
     0
 90
        1
176
     0
 90
        4
176
     0
 62
     7
176
     0
 62
   257
176
     0
 90
        1
176
     0
 90
        1
176
     0
 40
1.0
176
     0
 90
        8
176
     2
 62
     7
176
     0
 40
1.0
176
     0
 90
        1
176
     0
 90
        6
176
     0
 90
        2
176
     0
 62
     7
176
     0
 90
        5
176
     0
 90
        0
176
     0
 90
        0
176
     0
290
     0
176
     0
 90
        1
176
     0
 40
0.0
176
     0
 90
        0
176
     0
290
     0
176
     0
290
     1
176
     0
290
     1
176
     0
290
     0
176
     0
290
     0
176
     0
290
     0
176
     0
290
     0
176
     0
290
     0
176
     0
290
     0
176
     0
 90
       50
176
     0
 40
0.0
176
     0
 40
1.0
176
     0
 90
        0
176
     0
 62
    18
420
        0
176
     0
 90
       50
176
     0
 90
        3
176
     0
 62
     5
420
      255
176
     0
290
     0
176
     0
 90
       50
176
     0
 90
       50
176
     0
 90
       50
176
     0
290
     0
176
     0
 90
       50
176
     0
 62
   256
176
     0
 40
1.0
176
     0
 90
        2
176
     0
  1
strokes_ogs.tif
176
     0
290
     0
176
     0
 40
1.0
176
     0
 40
1.0
176
     0
  0
VISUALSTYLE
  5
38
102
{ACAD_REACTORS
330
29
102
}
330
29
100
AcDbVisualStyle
  2
Facepattern
 70
    15
177
     3
291
     1
 70
    58
 90
        2
176
     1
 90
        2
176
     1
 90
        0
176
     1
 90
        0
176
     1
 40
0.6
176
     1
 40
30.0
176
     1
 62
     7
420
 16777215
176
     1
 90
        1
176
     1
 90
        4
176
     1
 62
     7
176
     1
 62
   257
176
     1
 90
        1
176
     1
 90
        1
176
     1
 40
1.0
176
     1
 90
        8
176
     1
 62
     7
176
     1
 40
1.0
176
     1
 90
        1
176
     1
 90
        6
176
     1
 90
        2
176
     1
 62
     7
176
     1
 90
        5
176
     1
 90
        0
176
     1
 90
        0
176
     1
290
     0
176
     1
 90
        1
176
     1
 40
0.0
176
     1
 90
        0
176
     1
290
     0
176
     1
290
     1
176
     1
290
     1
176
     1
290
     0
176
     1
290
     0
176
     1
290
     0
176
     1
290
     0
176
     1
290
     0
176
     1
290
     0
176
     1
 90
       50
176
     1
 40
0.0
176
     1
 40
1.0
176
     1
 90
        0
176
     1
 62
    18
420
        0
176
     1
 90
       50
176
     1
 90
        3
176
     1
 62
     5
420
      255
176
     1
290
     0
176
     1
 90
       50
176
     1
 90
       50
176
     1
 90
       50
176
     1
290
     0
176
     1
 90
       50
176
     1
 62
   256
176
     0
 40
1.0
176
     0
 90
        2
176
     1
  1
strokes_ogs.tif
176
     1
290
     0
176
     1
 40
1.0
176
     1
 40
1.0
176
     1
  0
VISUALSTYLE
  5
2A
102
{ACAD_REACTORS
330
29
102
}
330
29
100
AcDbVisualStyle
  2
Flat
 70
     0
177
     3
291
     1
 70
    58
 90
        2
176
     1
 90
        1
176
     1
 90
        1
176
     1
 90
        2
176
     1
 40
0.6
176
     1
 40
30.0
176
     1
 62
     7
420
 16777215
176
     1
 90
        0
176
     1
 90
        0
176
     1
 62
     7
176
     1
 62
   257
176
     1
 90
        1
176
     1
 90
        1
176
     1
 40
1.0
176
     1
 90
        8
176
     1
 62
     7
176
     1
 40
1.0
176
     1
 90
        1
176
     1
 90
        6
176
     1
 90
        2
176
     1
 62
     7
176
     1
 90
        5
176
     1
 90
        0
176
     1
 90
        0
176
     1
290
     0
176
     1
 90
       13
176
     1
 40
0.0
176
     1
 90
        0
176
     1
290
     0
176
     1
290
     1
176
     1
290
     1
176
     1
290
     0
176
     1
290
     0
176
     1
290
     0
176
     1
290
     0
176
     1
290
     0
176
     1
290
     0
176
     1
 90
       50
176
     1
 40
0.0
176
     1
 40
1.0
176
     1
 90
        0
176
     1
 62
    18
420
        0
176
     1
 90
       50
176
     1
 90
        3
176
     1
 62
     5
420
      255
176
     1
290
     0
176
     1
 90
       50
176
     1
 90
       50
176
     1
 90
       50
176
     1
290
     0
176
     1
 90
       50
176
     1
 62
   256
176
     0
 40
1.0
176
     0
 90
        2
176
     1
  1
strokes_ogs.tif
176
     1
290
     0
176
     1
 40
1.0
176
     1
 40
1.0
176
     1
  0
VISUALSTYLE
  5
2B
102
{ACAD_REACTORS
330
29
102
}
330
29
100
AcDbVisualStyle
  2
FlatWithEdges
 70
     1
177
     3
291
     1
 70
    58
 90
        2
176
     1
 90
        1
176
     1
 90
        1
176
     1
 90
        2
176
     1
 40
0.6
176
     1
 40
30.0
176
     1
 62
     7
420
 16777215
176
     1
 90
        1
176
     1
 90
        0
176
     1
 62
     7
176
     1
 62
   257
176
     1
 90
        1
176
     1
 90
        1
176
     1
 40
1.0
176
     1
 90
        0
176
     1
 62
   257
176
     1
 40
1.0
176
     1
 90
        1
176
     1
 90
        6
176
     1
 90
        2
176
     1
 62
     7
176
     1
 90
        5
176
     1
 90
        0
176
     1
 90
        0
176
     1
290
     0
176
     1
 90
       13
176
     1
 40
0.0
176
     1
 90
        0
176
     1
290
     0
176
     1
290
     1
176
     1
290
     1
176
     1
290
     0
176
     1
290
     0
176
     1
290
     0
176
     1
290
     0
176
     1
290
     0
176
     1
290
     0
176
     1
 90
       50
176
     1
 40
0.0
176
     1
 40
1.0
176
     1
 90
        0
176
     1
 62
    18
420
        0
176
     1
 90
       50
176
     1
 90
        3
176
     1
 62
     5
420
      255
176
     1
290
     0
176
     1
 90
       50
176
     1
 90
       50
176
     1
 90
       50
176
     1
290
     0
176
     1
 90
       50
176
     1
 62
   256
176
     0
 40
1.0
176
     0
 90
        2
176
     1
  1
strokes_ogs.tif
176
     1
290
     0
176
     1
 40
1.0
176
     1
 40
1.0
176
     1
  0
VISUALSTYLE
  5
2C
102
{ACAD_REACTORS
330
29
102
}
330
29
100
AcDbVisualStyle
  2
Gouraud
 70
     2
177
     3
291
     1
 70
    58
 90
        2
176
     1
 90
        2
176
     1
 90
        1
176
     1
 90
        2
176
     1
 40
0.6
176
     1
 40
30.0
176
     1
 62
     7
420
 16777215
176
     1
 90
        0
176
     1
 90
        0
176
     1
 62
     7
176
     1
 62
   257
176
     1
 90
        1
176
     1
 90
        1
176
     1
 40
1.0
176
     1
 90
        0
176
     1
 62
     7
176
     1
 40
1.0
176
     1
 90
        1
176
     1
 90
        6
176
     1
 90
        2
176
     1
 62
     7
176
     1
 90
        5
176
     1
 90
        0
176
     1
 90
        0
176
     1
290
     0
176
     1
 90
       13
176
     1
 40
0.0
176
     1
 90
        0
176
     1
290
     0
176
     1
290
     1
176
     1
290
     1
176
     1
290
     0
176
     1
290
     0
176
     1
290
     0
176
     1
290
     0
176
     1
290
     0
176
     1
290
     0
176
     1
 90
       50
176
     1
 40
0.0
176
     1
 40
1.0
176
     1
 90
        0
176
     1
 62
    18
420
        0
176
     1
 90
       50
176
     1
 90
        3
176
     1
 62
     5
420
      255
176
     1
290
     0
176
     1
 90
       50
176
     1
 90
       50
176
     1
 90
       50
176
     1
290
     0
176
     1
 90
       50
176
     1
 62
   256
176
     0
 40
1.0
176
     0
 90
        2
176
     1
  1
strokes_ogs.tif
176
     1
290
     0
176
     1
 40
1.0
176
     1
 40
1.0
176
     1
  0
VISUALSTYLE
  5
2D
102
{ACAD_REACTORS
330
29
102
}
330
29
100
AcDbVisualStyle
  2
GouraudWithEdges
 70
     3
177
     3
291
     1
 70
    58
 90
        2
176
     1
 90
        2
176
     1
 90
        1
176
     1
 90
        2
176
     1
 40
0.6
176
     1
 40
30.0
176
     1
 62
     7
420
 16777215
176
     1
 90
        1
176
     1
 90
        0
176
     1
 62
     7
176
     1
 62
   257
176
     1
 90
        1
176
     1
 90
        1
176
     1
 40
1.0
176
     1
 90
        0
176
     1
 62
   257
176
     1
 40
1.0
176
     1
 90
        1
176
     1
 90
        6
176
     1
 90
        2
176
     1
 62
     7
176
     1
 90
        5
176
     1
 90
        0
176
     1
 90
        0
176
     1
290
     0
176
     1
 90
       13
176
     1
 40
0.0
176
     1
 90
        0
176
     1
290
     0
176
     1
290
     1
176
     1
290
     1
176
     1
290
     0
176
     1
290
     0
176
     1
290
     0
176
     1
290
     0
176
     1
290
     0
176
     1
290
     0
176
     1
 90
       50
176
     1
 40
0.0
176
     1
 40
1.0
176
     1
 90
        0
176
     1
 62
    18
420
        0
176
     1
 90
       50
176
     1
 90
        3
176
     1
 62
     5
420
      255
176
     1
290
     0
176
     1
 90
       50
176
     1
 90
       50
176
     1
 90
       50
176
     1
290
     0
176
     1
 90
       50
176
     1
 62
   256
176
     0
 40
1.0
176
     0
 90
        2
176
     1
  1
strokes_ogs.tif
176
     1
290
     0
176
     1
 40
1.0
176
     1
 40
1.0
176
     1
  0
VISUALSTYLE
  5
31
102
{ACAD_REACTORS
330
29
102
}
330
29
100
AcDbVisualStyle
  2
Hidden
 70
     6
177
     3
291
     0
 70
    58
 90
        1
176
     1
 90
        2
176
     1
 90
        2
176
     1
 90
        0
176
     1
 40
0.6
176
     1
 40
30.0
176
     1
 62
     7
420
 16777215
176
     1
 90
        2
176
     1
 90
        2
176
     1
 62
     7
176
     1
 62
   257
176
     1
 90
        2
176
     1
 90
        1
176
     1
 40
40.0
176
     1
 90
        0
176
     1
 62
   257
176
     1
 40
1.0
176
     1
 90
        1
176
     1
 90
        6
176
     1
 90
        2
176
     1
 62
     7
176
     1
 90
        3
176
     1
 90
        0
176
     1
 90
        0
176
     1
290
     0
176
     1
 90
        1
176
     1
 40
0.0
176
     1
 90
        0
176
     1
290
     0
176
     1
290
     1
176
     1
290
     1
176
     1
290
     0
176
     1
290
     0
176
     1
290
     0
176
     1
290
     0
176
     1
290
     0
176
     1
290
     0
176
     1
 90
       50
176
     1
 40
0.0
176
     1
 40
1.0
176
     1
 90
        0
176
     1
 62
    18
420
        0
176
     1
 90
       50
176
     1
 90
        3
176
     1
 62
     5
420
      255
176
     1
290
     0
176
     1
 90
       50
176
     1
 90
       50
176
     1
 90
       50
176
     1
290
     0
176
     1
 90
       50
176
     1
 62
   256
176
     0
 40
1.0
176
     0
 90
        2
176
     1
  1
strokes_ogs.tif
176
     1
290
     0
176
     1
 40
1.0
176
     1
 40
1.0
176
     1
  0
VISUALSTYLE
  5
3F
102
{ACAD_REACTORS
330
29
102
}
330
29
100
AcDbVisualStyle
  2
JitterOff
 70
    20
177
     3
291
     1
 70
    58
 90
        2
176
     0
 90
        2
176
     0
 90
        0
176
     0
 90
        0
176
     0
 40
0.6
176
     0
 40
30.0
176
     0
 62
     7
420
 16777215
176
     0
 90
        1
176
     0
 90
        4
176
     0
 62
     7
176
     0
 62
   257
176
     0
 90
        1
176
     0
 90
        1
176
     0
 40
1.0
176
     0
 90
       10
176
     2
 62
     7
176
     0
 40
1.0
176
     0
 90
        1
176
     0
 90
        6
176
     0
 90
        2
176
     0
 62
     7
176
     0
 90
        5
176
     0
 90
        0
176
     0
 90
        0
176
     0
290
     0
176
     0
 90
        1
176
     0
 40
0.0
176
     0
 90
        0
176
     0
290
     0
176
     0
290
     1
176
     0
290
     1
176
     0
290
     0
176
     0
290
     0
176
     0
290
     0
176
     0
290
     0
176
     0
290
     0
176
     0
290
     0
176
     0
 90
       50
176
     0
 40
0.0
176
     0
 40
1.0
176
     0
 90
        0
176
     0
 62
    18
420
        0
176
     0
 90
       50
176
     0
 90
        3
176
     0
 62
     5
420
      255
176
     0
290
     0
176
     0
 90
       50
176
     0
 90
       50
176
     0
 90
       50
176
     0
290
     0
176
     0
 90
       50
176
     0
 62
   256
176
     0
 40
1.0
176
     0
 90
        2
176
     0
  1
strokes_ogs.tif
176
     0
290
     0
176
     0
 40
1.0
176
     0
 40
1.0
176
     0
  0
VISUALSTYLE
  5
37
102
{ACAD_REACTORS
330
29
102
}
330
29
100
AcDbVisualStyle
  2
Linepattern
 70
    14
177
     3
291
     1
 70
    58
 90
        2
176
     1
 90
        2
176
     1
 90
        0
176
     1
 90
        0
176
     1
 40
0.6
176
     1
 40
30.0
176
     1
 62
     7
420
 16777215
176
     1
 90
        1
176
     1
 90
        4
176
     1
 62
     7
176
     1
 62
   257
176
     1
 90
        7
176
     1
 90
        7
176
     1
 40
1.0
176
     1
 90
        8
176
     1
 62
     7
176
     1
 40
1.0
176
     1
 90
        1
176
     1
 90
        6
176
     1
 90
        2
176
     1
 62
     7
176
     1
 90
        5
176
     1
 90
        0
176
     1
 90
        0
176
     1
290
     0
176
     1
 90
        1
176
     1
 40
0.0
176
     1
 90
        0
176
     1
290
     0
176
     1
290
     1
176
     1
290
     1
176
     1
290
     0
176
     1
290
     0
176
     1
290
     0
176
     1
290
     0
176
     1
290
     0
176
     1
290
     0
176
     1
 90
       50
176
     1
 40
0.0
176
     1
 40
1.0
176
     1
 90
        0
176
     1
 62
    18
420
        0
176
     1
 90
       50
176
     1
 90
        3
176
     1
 62
     5
420
      255
176
     1
290
     0
176
     1
 90
       50
176
     1
 90
       50
176
     1
 90
       50
176
     1
290
     0
176
     1
 90
       50
176
     1
 62
   256
176
     0
 40
1.0
176
     0
 90
        2
176
     1
  1
strokes_ogs.tif
176
     1
290
     0
176
     1
 40
1.0
176
     1
 40
1.0
176
     1
  0
VISUALSTYLE
  5
40
102
{ACAD_REACTORS
330
29
102
}
330
29
100
AcDbVisualStyle
  2
OverhangOff
 70
    21
177
     3
291
     1
 70
    58
 90
        2
176
     0
 90
        2
176
     0
 90
        0
176
     0
 90
        0
176
     0
 40
0.6
176
     0
 40
30.0
176
     0
 62
     7
420
 16777215
176
     0
 90
        1
176
     0
 90
        4
176
     0
 62
     7
176
     0
 62
   257
176
     0
 90
        1
176
     0
 90
        1
176
     0
 40
1.0
176
     0
 90
        9
176
     2
 62
     7
176
     0
 40
1.0
176
     0
 90
        1
176
     0
 90
        6
176
     0
 90
        2
176
     0
 62
     7
176
     0
 90
        5
176
     0
 90
        0
176
     0
 90
        0
176
     0
290
     0
176
     0
 90
        1
176
     0
 40
0.0
176
     0
 90
        0
176
     0
290
     0
176
     0
290
     1
176
     0
290
     1
176
     0
290
     0
176
     0
290
     0
176
     0
290
     0
176
     0
290
     0
176
     0
290
     0
176
     0
290
     0
176
     0
 90
       50
176
     0
 40
0.0
176
     0
 40
1.0
176
     0
 90
        0
176
     0
 62
    18
420
        0
176
     0
 90
       50
176
     0
 90
        3
176
     0
 62
     5
420
      255
176
     0
290
     0
176
     0
 90
       50
176
     0
 90
       50
176
     0
 90
       50
176
     0
290
     0
176
     0
 90
       50
176
     0
 62
   256
176
     0
 40
1.0
176
     0
 90
        2
176
     0
  1
strokes_ogs.tif
176
     0
290
     0
176
     0
 40
1.0
176
     0
 40
1.0
176
     0
  0
VISUALSTYLE
  5
33
102
{ACAD_REACTORS
330
29
102
}
330
29
100
AcDbVisualStyle
  2
Realistic
 70
     8
177
     3
291
     0
 70
    58
 90
        2
176
     1
 90
        3
176
     1
 90
        0
176
     1
 90
        2
176
     1
 40
0.6
176
     1
 40
30.0
176
     1
 62
     7
420
 16777215
176
     1
 90
        0
176
     1
 90
        0
176
     1
 62
     7
176
     1
 62
   257
176
     1
 90
        1
176
     1
 90
        1
176
     1
 40
1.0
176
     1
 90
        8
176
     1
 62
   257
176
     1
 40
1.0
176
     1
 90
        1
176
     1
 90
        6
176
     1
 90
        2
176
     1
 62
     7
176
     1
 90
        3
176
     1
 90
        0
176
     1
 90
        0
176
     1
290
     0
176
     1
 90
       13
176
     1
 40
0.0
176
     1
 90
        0
176
     1
290
     0
176
     1
290
     1
176
     1
290
     1
176
     1
290
     0
176
     1
290
     0
176
     1
290
     0
176
     1
290
     0
176
     1
290
     0
176
     1
290
     0
176
     1
 90
       50
176
     1
 40
0.0
176
     1
 40
1.0
176
     1
 90
        0
176
     1
 62
    18
420
        0
176
     1
 90
       50
176
     1
 90
        3
176
     1
 62
     5
420
      255
176
     1
290
     0
176
     1
 90
       50
176
     1
 90
       50
176
     1
 90
       50
176
     1
290
     0
176
     1
 90
       50
176
     1
 62
   256
176
     0
 40
1.0
176
     0
 90
        2
176
     1
  1
strokes_ogs.tif
176
     1
290
     0
176
     1
 40
1.0
176
     1
 40
1.0
176
     1
  0
VISUALSTYLE
  5
3E
102
{ACAD_REACTORS
330
29
102
}
330
29
100
AcDbVisualStyle
  2
Shaded
 70
    27
177
     3
291
     0
 70
    58
 90
        2
176
     1
 90
        2
176
     1
 90
        1
176
     1
 90
        2
176
     1
 40
0.6
176
     1
 40
30.0
176
     1
 62
     7
420
 16777215
176
     1
 90
        0
176
     1
 90
        4
176
     1
 62
     7
176
     1
 62
   257
176
     1
 90
        1
176
     1
 90
        1
176
     1
 40
1.0
176
     1
 90
        8
176
     1
 62
   257
176
     1
 40
1.0
176
     1
 90
        1
176
     1
 90
        6
176
     1
 90
        2
176
     1
 62
     8
420
  7895160
176
     1
 90
        3
176
     1
 90
        0
176
     1
 90
        0
176
     1
290
     0
176
     1
 90
        5
176
     1
 40
0.0
176
     1
 90
        0
176
     1
290
     0
176
     1
290
     1
176
     1
290
     1
176
     1
290
     0
176
     1
290
     0
176
     1
290
     0
176
     1
290
     0
176
     1
290
     0
176
     1
290
     0
176
     1
 90
       50
176
     1
 40
0.0
176
     1
 40
1.0
176
     1
 90
        0
176
     1
 62
    18
420
        0
176
     1
 90
       50
176
     1
 90
        3
176
     1
 62
     5
420
      255
176
     1
290
     0
176
     1
 90
       50
176
     1
 90
       50
176
     1
 90
       50
176
     1
290
     0
176
     1
 90
       50
176
     1
 62
   256
176
     0
 40
1.0
176
     0
 90
        2
176
     1
  1
strokes_ogs.tif
176
     1
290
     0
176
     1
 40
1.0
176
     1
 40
1.0
176
     1
  0
VISUALSTYLE
  5
3D
102
{ACAD_REACTORS
330
29
102
}
330
29
100
AcDbVisualStyle
  2
Shaded with edges
 70
    26
177
     3
291
     0
 70
    58
 90
        2
176
     1
 90
        2
176
     1
 90
        1
176
     1
 90
        2
176
     1
 40
0.6
176
     1
 40
30.0
176
     1
 62
     7
420
 16777215
176
     1
 90
        1
176
     1
 90
        2
176
     1
 62
     7
176
     1
 62
   257
176
     1
 90
        2
176
     1
 90
        1
176
     1
 40
1.0
176
     1
 90
        8
176
     1
 62
   257
176
     1
 40
1.0
176
     1
 90
        1
176
     1
 90
        6
176
     1
 90
        2
176
     1
 62
     7
176
     1
 90
        3
176
     1
 90
        0
176
     1
 90
        0
176
     1
290
     0
176
     1
 90
        5
176
     1
 40
0.0
176
     1
 90
        0
176
     1
290
     0
176
     1
290
     1
176
     1
290
     1
176
     1
290
     0
176
     1
290
     0
176
     1
290
     0
176
     1
290
     0
176
     1
290
     0
176
     1
290
     0
176
     1
 90
       50
176
     1
 40
0.0
176
     1
 40
1.0
176
     1
 90
        0
176
     1
 62
    18
420
        0
176
     1
 90
       50
176
     1
 90
        3
176
     1
 62
     5
420
      255
176
     1
290
     0
176
     1
 90
       50
176
     1
 90
       50
176
     1
 90
       50
176
     1
290
     0
176
     1
 90
       50
176
     1
 62
   256
176
     0
 40
1.0
176
     0
 90
        2
176
     1
  1
strokes_ogs.tif
176
     1
290
     0
176
     1
 40
1.0
176
     1
 40
1.0
176
     1
  0
VISUALSTYLE
  5
3A
102
{ACAD_REACTORS
330
29
102
}
330
29
100
AcDbVisualStyle
  2
Shades of Gray
 70
    23
177
     3
291
     0
 70
    58
 90
        2
176
     1
 90
        2
176
     1
 90
        3
176
     1
 90
        0
176
     1
 40
0.6
176
     1
 40
30.0
176
     1
 62
     7
420
 16777215
176
     1
 90
        2
176
     1
 90
        2
176
     1
 62
     7
176
     1
 62
     7
176
     1
 90
        1
176
     1
 90
        1
176
     1
 40
40.0
176
     1
 90
        8
176
     1
 62
     7
176
     1
 40
1.0
176
     1
 90
        1
176
     1
 90
        6
176
     1
 90
        2
176
     1
 62
     7
176
     1
 90
        3
176
     1
 90
        0
176
     1
 90
        0
176
     1
290
     0
176
     1
 90
        1
176
     1
 40
0.0
176
     1
 90
        0
176
     1
290
     0
176
     1
290
     1
176
     1
290
     1
176
     1
290
     0
176
     1
290
     0
176
     1
290
     0
176
     1
290
     0
176
     1
290
     0
176
     1
290
     0
176
     1
 90
       50
176
     1
 40
0.0
176
     1
 40
1.0
176
     1
 90
        0
176
     1
 62
    18
420
        0
176
     1
 90
       50
176
     1
 90
        3
176
     1
 62
     5
420
      255
176
     1
290
     0
176
     1
 90
       50
176
     1
 90
       50
176
     1
 90
       50
176
     1
290
     0
176
     1
 90
       50
176
     1
 62
   256
176
     0
 40
1.0
176
     0
 90
        2
176
     1
  1
strokes_ogs.tif
176
     1
290
     0
176
     1
 40
1.0
176
     1
 40
1.0
176
     1
  0
VISUALSTYLE
  5
3B
102
{ACAD_REACTORS
330
29
102
}
330
29
100
AcDbVisualStyle
  2
Sketchy
 70
    24
177
     3
291
     0
 70
    58
 90
        1
176
     1
 90
        2
176
     1
 90
        2
176
     1
 90
        0
176
     1
 40
0.6
176
     1
 40
30.0
176
     1
 62
     7
420
 16777215
176
     1
 90
        2
176
     1
 90
        2
176
     1
 62
     7
176
     1
 62
     7
176
     1
 90
        1
176
     1
 90
        1
176
     1
 40
40.0
176
     1
 90
       11
176
     1
 62
     7
176
     1
 40
1.0
176
     1
 90
        1
176
     1
 90
        6
176
     1
 90
        2
176
     1
 62
     7
176
     1
 90
        6
176
     1
 90
        0
176
     1
 90
        0
176
     1
290
     0
176
     1
 90
        1
176
     1
 40
0.0
176
     1
 90
        0
176
     1
290
     0
176
     1
290
     1
176
     1
290
     1
176
     1
290
     0
176
     1
290
     0
176
     1
290
     0
176
     1
290
     0
176
     1
290
     0
176
     1
290
     0
176
     1
 90
       50
176
     1
 40
0.0
176
     1
 40
1.0
176
     1
 90
        0
176
     1
 62
    18
420
        0
176
     1
 90
       50
176
     1
 90
        3
176
     1
 62
     5
420
      255
176
     1
290
     0
176
     1
 90
       50
176
     1
 90
       50
176
     1
 90
       50
176
     1
290
     0
176
     1
 90
       50
176
     1
 62
   256
176
     0
 40
1.0
176
     0
 90
        2
176
     1
  1
strokes_ogs.tif
176
     1
290
     0
176
     1
 40
1.0
176
     1
 40
1.0
176
     1
  0
VISUALSTYLE
  5
36
102
{ACAD_REACTORS
330
29
102
}
330
29
100
AcDbVisualStyle
  2
Thicken
 70
    13
177
     3
291
     1
 70
    58
 90
        2
176
     1
 90
        2
176
     1
 90
        0
176
     1
 90
        0
176
     1
 40
0.6
176
     1
 40
30.0
176
     1
 62
     7
420
 16777215
176
     1
 90
        1
176
     1
 90
        4
176
     1
 62
     7
176
     1
 62
   257
176
     1
 90
        1
176
     1
 90
        1
176
     1
 40
1.0
176
     1
 90
       12
176
     1
 62
     7
176
     1
 40
1.0
176
     1
 90
        1
176
     1
 90
        6
176
     1
 90
        2
176
     1
 62
     7
176
     1
 90
        5
176
     1
 90
        0
176
     1
 90
        0
176
     1
290
     0
176
     1
 90
        1
176
     1
 40
0.0
176
     1
 90
        0
176
     1
290
     0
176
     1
290
     1
176
     1
290
     1
176
     1
290
     0
176
     1
290
     0
176
     1
290
     0
176
     1
290
     0
176
     1
290
     0
176
     1
290
     0
176
     1
 90
       50
176
     1
 40
0.0
176
     1
 40
1.0
176
     1
 90
        0
176
     1
 62
    18
420
        0
176
     1
 90
       50
176
     1
 90
        3
176
     1
 62
     5
420
      255
176
     1
290
     0
176
     1
 90
       50
176
     1
 90
       50
176
     1
 90
       50
176
     1
290
     0
176
     1
 90
       50
176
     1
 62
   256
176
     0
 40
1.0
176
     0
 90
        2
176
     1
  1
strokes_ogs.tif
176
     1
290
     0
176
     1
 40
1.0
176
     1
 40
1.0
176
     1
  0
VISUALSTYLE
  5
30
102
{ACAD_REACTORS
330
29
102
}
330
29
100
AcDbVisualStyle
  2
Wireframe
 70
     5
177
     3
291
     0
 70
    58
 90
        0
176
     1
 90
        2
176
     1
 90
        0
176
     1
 90
        0
176
     1
 40
0.6
176
     1
 40
30.0
176
     1
 62
     7
420
 16777215
176
     1
 90
        1
176
     1
 90
        4
176
     1
 62
     7
176
     1
 62
   257
176
     1
 90
        1
176
     1
 90
        1
176
     1
 40
1.0
176
     1
 90
        0
176
     1
 62
   257
176
     1
 40
1.0
176
     1
 90
        1
176
     1
 90
        6
176
     1
 90
        2
176
     1
 62
     7
176
     1
 90
        3
176
     1
 90
        0
176
     1
 90
        0
176
     1
290
     0
176
     1
 90
        1
176
     1
 40
0.0
176
     1
 90
        0
176
     1
290
     0
176
     1
290
     1
176
     1
290
     1
176
     1
290
     0
176
     1
290
     0
176
     1
290
     0
176
     1
290
     0
176
     1
290
     0
176
     1
290
     0
176
     1
 90
       50
176
     1
 40
0.0
176
     1
 40
1.0
176
     1
 90
        0
176
     1
 62
    18
420
        0
176
     1
 90
       50
176
     1
 90
        3
176
     1
 62
     5
420
      255
176
     1
290
     0
176
     1
 90
       50
176
     1
 90
       50
176
     1
 90
       50
176
     1
290
     0
176
     1
 90
       50
176
     1
 62
   256
176
     0
 40
1.0
176
     0
 90
        2
176
     1
  1
strokes_ogs.tif
176
     1
290
     0
176
     1
 40
1.0
176
     1
 40
1.0
176
     1
  0
VISUALSTYLE
  5
3C
102
{ACAD_REACTORS
330
29
102
}
330
29
100
AcDbVisualStyle
  2
X-Ray
 70
    25
177
     3
291
     0
 70
    58
 90
        2
176
     1
 90
        2
176
     1
 90
        1
176
     1
 90
        1
176
     1
 40
0.5
176
     1
 40
30.0
176
     1
 62
     7
420
 16777215
176
     1
 90
        1
176
     1
 90
        0
176
     1
 62
     7
176
     1
 62
   257
176
     1
 90
        1
176
     1
 90
        1
176
     1
 40
1.0
176
     1
 90
        8
176
     1
 62
     7
176
     1
 40
1.0
176
     1
 90
        1
176
     1
 90
        6
176
     1
 90
        2
176
     1
 62
     7
176
     1
 90
        3
176
     1
 90
        0
176
     1
 90
        0
176
     1
290
     0
176
     1
 90
       13
176
     1
 40
0.0
176
     1
 90
        0
176
     1
290
     0
176
     1
290
     1
176
     1
290
     1
176
     1
290
     0
176
     1
290
     0
176
     1
290
     0
176
     1
290
     0
176
     1
290
     0
176
     1
290
     0
176
     1
 90
       50
176
     1
 40
0.0
176
     1
 40
1.0
176
     1
 90
        0
176
     1
 62
    18
420
        0
176
     1
 90
       50
176
     1
 90
        3
176
     1
 62
     5
420
      255
176
     1
290
     0
176
     1
 90
       50
176
     1
 90
       50
176
     1
 90
       50
176
     1
290
     0
176
     1
 90
       50
176
     1
 62
   256
176
     0
 40
1.0
176
     0
 90
        2
176
     1
  1
strokes_ogs.tif
176
     1
290
     0
176
     1
 40
1.0
176
     1
 40
1.0
176
     1
  0
DICTIONARYVAR
  5
C7
102
{ACAD_REACTORS
330
C2
102
}
330
C2
100
DictionaryVariables
280
     0
  1
1:1
  0
DICTIONARYVAR
  5
C4
102
{ACAD_REACTORS
330
C2
102
}
330
C2
100
DictionaryVariables
280
     0
  1
STANDARD
  0
DICTIONARYVAR
  5
C3
102
{ACAD_REACTORS
330
C2
102
}
330
C2
100
DictionaryVariables
280
     0
  1
STANDARD
  0
DICTIONARYVAR
  5
C5
102
{ACAD_REACTORS
330
C2
102
}
330
C2
100
DictionaryVariables
280
     0
  1
Imperial24
  0
DICTIONARYVAR
  5
C6
102
{ACAD_REACTORS
330
C2
102
}
330
C2
100
DictionaryVariables
280
     0
  1
Imperial24
  0
DICTIONARY
  5
1A
330
19
100
AcDbDictionary
280
     1
281
     1
  3
BUMPTILE
360
1C
  3
DIFFUSETILE
360
1B
  3
OPACITYTILE
360
1F
  3
REFLECTIONTILE
360
1E
  3
REFRACTIONTILE
360
20
  3
SPECULARTILE
360
1D
  0
DICTIONARY
  5
12
330
11
100
AcDbDictionary
280
     1
281
     1
  3
BUMPTILE
360
14
  3
DIFFUSETILE
360
13
  3
OPACITYTILE
360
17
  3
REFLECTIONTILE
360
16
  3
REFRACTIONTILE
360
18
  3
SPECULARTILE
360
15
  0
DICTIONARY
  5
22
330
21
100
AcDbDictionary
280
     1
281
     1
  3
BUMPTILE
360
24
  3
DIFFUSETILE
360
23
  3
OPACITYTILE
360
27
  3
REFLECTIONTILE
360
26
  3
REFRACTIONTILE
360
28
  3
SPECULARTILE
360
25
  0
DICTIONARY
  5
C8
330
65
100
AcDbDictionary
280
     1
281
     1
  3
ACAD_ROUNDTRIP_2008_TABLESTYLE_CELLSTYLEMAP
360
C9
  0
XRECORD
  5
1C
102
{ACAD_REACTORS
330
1A
102
}
330
1A
100
AcDbXrecord
280
     1
270
     1
271
     1
  0
XRECORD
  5
1B
102
{ACAD_REACTORS
330
1A
102
}
330
1A
100
AcDbXrecord
280
     1
270
     1
271
     1
  0
XRECORD
  5
1F
102
{ACAD_REACTORS
330
1A
102
}
330
1A
100
AcDbXrecord
280
     1
270
     1
271
     1
  0
XRECORD
  5
1E
102
{ACAD_REACTORS
330
1A
102
}
330
1A
100
AcDbXrecord
280
     1
270
     1
271
     1
  0
XRECORD
  5
20
102
{ACAD_REACTORS
330
1A
102
}
330
1A
100
AcDbXrecord
280
     1
270
     1
271
     1
  0
XRECORD
  5
1D
102
{ACAD_REACTORS
330
1A
102
}
330
1A
100
AcDbXrecord
280
     1
270
     1
271
     1
  0
XRECORD
  5
14
102
{ACAD_REACTORS
330
12
102
}
330
12
100
AcDbXrecord
280
     1
270
     1
271
     1
  0
XRECORD
  5
13
102
{ACAD_REACTORS
330
12
102
}
330
12
100
AcDbXrecord
280
     1
270
     1
271
     1
  0
XRECORD
  5
17
102
{ACAD_REACTORS
330
12
102
}
330
12
100
AcDbXrecord
280
     1
270
     1
271
     1
  0
XRECORD
  5
16
102
{ACAD_REACTORS
330
12
102
}
330
12
100
AcDbXrecord
280
     1
270
     1
271
     1
  0
XRECORD
  5
18
102
{ACAD_REACTORS
330
12
102
}
330
12
100
AcDbXrecord
280
     1
270
     1
271
     1
  0
XRECORD
  5
15
102
{ACAD_REACTORS
330
12
102
}
330
12
100
AcDbXrecord
280
     1
270
     1
271
     1
  0
XRECORD
  5
24
102
{ACAD_REACTORS
330
22
102
}
330
22
100
AcDbXrecord
280
     1
270
     1
271
     1
  0
XRECORD
  5
23
102
{ACAD_REACTORS
330
22
102
}
330
22
100
AcDbXrecord
280
     1
270
     1
271
     1
  0
XRECORD
  5
27
102
{ACAD_REACTORS
330
22
102
}
330
22
100
AcDbXrecord
280
     1
270
     1
271
     1
  0
XRECORD
  5
26
102
{ACAD_REACTORS
330
22
102
}
330
22
100
AcDbXrecord
280
     1
270
     1
271
     1
  0
XRECORD
  5
28
102
{ACAD_REACTORS
330
22
102
}
330
22
100
AcDbXrecord
280
     1
270
     1
271
     1
  0
XRECORD
  5
25
102
{ACAD_REACTORS
330
22
102
}
330
22
100
AcDbXrecord
280
     1
270
     1
271
     1
  0
CELLSTYLEMAP
  5
C9
102
{ACAD_REACTORS
330
C8
102
}
330
C8
100
AcDbCellStyleMap
 90
        3
300
CELLSTYLE
  1
TABLEFORMAT_BEGIN
 90
        5
170
     1
 91
        0
 92
    32768
 62
   257
 93
        1
300
CONTENTFORMAT
  1
CONTENTFORMAT_BEGIN
 90
        0
 91
        0
 92
      512
 93
        0
300

 40
0.0
140
1.0
 94
        5
 62
     0
340
55
144
0.25
309
CONTENTFORMAT_END
171
     0
 94
        0
309
TABLEFORMAT_END
  1
CELLSTYLE_BEGIN
 90
        1
 91
        1
300
_TITLE
309
CELLSTYLE_END
300
CELLSTYLE
  1
TABLEFORMAT_BEGIN
 90
        5
170
     1
 91
        0
 92
        0
 62
   257
 93
        1
300
CONTENTFORMAT
  1
CONTENTFORMAT_BEGIN
 90
        0
 91
        0
 92
      512
 93
        0
300

 40
0.0
140
1.0
 94
        5
 62
     0
340
55
144
0.18
309
CONTENTFORMAT_END
171
     0
 94
        0
309
TABLEFORMAT_END
  1
CELLSTYLE_BEGIN
 90
        2
 91
        1
300
_HEADER
309
CELLSTYLE_END
300
CELLSTYLE
  1
TABLEFORMAT_BEGIN
 90
        5
170
     1
 91
        0
 92
        0
 62
   257
 93
        1
300
CONTENTFORMAT
  1
CONTENTFORMAT_BEGIN
 90
        0
 91
        0
 92
      512
 93
        0
300

 40
0.0
140
1.0
 94
        2
 62
     0
340
55
144
0.18
309
CONTENTFORMAT_END
171
     0
 94
        0
309
TABLEFORMAT_END
  1
CELLSTYLE_BEGIN
 90
        3
 91
        2
300
_DATA
309
CELLSTYLE_END
  0
ENDSEC
  0
EOF
